%TF.GenerationSoftware,KiCad,Pcbnew,8.0.2*%
%TF.CreationDate,2024-06-15T15:47:28-07:00*%
%TF.ProjectId,dimension-PCB,64696d65-6e73-4696-9f6e-2d5043422e6b,rev?*%
%TF.SameCoordinates,Original*%
%TF.FileFunction,Profile,NP*%
%FSLAX46Y46*%
G04 Gerber Fmt 4.6, Leading zero omitted, Abs format (unit mm)*
G04 Created by KiCad (PCBNEW 8.0.2) date 2024-06-15 15:47:28*
%MOMM*%
%LPD*%
G01*
G04 APERTURE LIST*
%TA.AperFunction,Profile*%
%ADD10C,0.200000*%
%TD*%
G04 APERTURE END LIST*
D10*
X245632500Y-249897500D02*
X240882498Y-249897500D01*
X83382498Y-249897500D02*
X78632500Y-249897500D01*
X441685586Y-65250000D02*
X443880000Y-65250000D01*
X86382500Y-246897473D02*
G75*
G02*
X83382498Y-249897500I-3000000J-27D01*
G01*
X47400000Y-234884283D02*
X47400000Y-125220000D01*
X440879998Y-58200000D02*
G75*
G02*
X443880000Y-61200000I2J-3000000D01*
G01*
X86382500Y-246897473D02*
X86382500Y-237897500D01*
X47400000Y-61199973D02*
G75*
G02*
X50412245Y-58199995I3000000J3D01*
G01*
X441669998Y-125350000D02*
X443880000Y-125350000D01*
X443880000Y-234897473D02*
G75*
G02*
X440879998Y-237897500I-3000000J-27D01*
G01*
X74132500Y-249897500D02*
X69382498Y-249897500D01*
X50399998Y-237897500D02*
G75*
G02*
X47400029Y-234884283I2J3000000D01*
G01*
X257882500Y-237897500D02*
X409270000Y-237897500D01*
X441669998Y-69750000D02*
G75*
G02*
X441685586Y-65250054I2J2250000D01*
G01*
X443880000Y-125350000D02*
X443880000Y-234897473D01*
X240882498Y-249897500D02*
G75*
G02*
X237882529Y-246884283I2J3000000D01*
G01*
X417020000Y-249897500D02*
X412269998Y-249897500D01*
X417020000Y-245529973D02*
G75*
G02*
X421519994Y-245535169I2250000J-27D01*
G01*
X254882498Y-249897500D02*
X250132500Y-249897500D01*
X69382498Y-249897500D02*
G75*
G02*
X66382529Y-246910663I2J3000000D01*
G01*
X412269998Y-249897500D02*
G75*
G02*
X409270029Y-246884283I2J3000000D01*
G01*
X49609998Y-125220000D02*
X47400000Y-125220000D01*
X61700000Y-52799973D02*
G75*
G02*
X64712245Y-49800025I3000000J-27D01*
G01*
X257882500Y-246897473D02*
X257882500Y-237897500D01*
X82909998Y-49800000D02*
G75*
G02*
X85910000Y-52800000I2J-3000000D01*
G01*
X64712245Y-49800000D02*
X82909998Y-49800000D01*
X441669998Y-125350000D02*
G75*
G02*
X441685586Y-120850054I2J2250000D01*
G01*
X429270000Y-246897473D02*
G75*
G02*
X426269998Y-249897500I-3000000J-27D01*
G01*
X441685586Y-120850000D02*
X443880000Y-120850000D01*
X417020000Y-245529973D02*
X417020000Y-249897500D01*
X218872245Y-49800000D02*
X232859998Y-49800000D01*
X441669998Y-69750000D02*
X443880000Y-69750000D01*
X66382500Y-237897500D02*
X66382500Y-246910663D01*
X245632500Y-245529973D02*
G75*
G02*
X250132494Y-245535169I2250000J-27D01*
G01*
X61700000Y-58200000D02*
X61700000Y-52799973D01*
X235860000Y-52800000D02*
X235860000Y-58200000D01*
X440879998Y-237897500D02*
X429270000Y-237897500D01*
X86382500Y-237897500D02*
X237882500Y-237897500D01*
X426269998Y-249897500D02*
X421520000Y-249897500D01*
X74132500Y-245529973D02*
X74132500Y-249897500D01*
X235860000Y-58200000D02*
X440879998Y-58200000D01*
X429270000Y-246897473D02*
X429270000Y-237897500D01*
X85910000Y-58200000D02*
X215860000Y-58200000D01*
X245632500Y-245529973D02*
X245632500Y-249897500D01*
X443880000Y-61200000D02*
X443880000Y-65250000D01*
X250132500Y-245535169D02*
X250132500Y-249897500D01*
X78632500Y-245535169D02*
X78632500Y-249897500D01*
X409270000Y-246884283D02*
X409270000Y-237897500D01*
X47400000Y-120720000D02*
X47400000Y-61199973D01*
X215860000Y-52799973D02*
G75*
G02*
X218872245Y-49800025I3000000J-27D01*
G01*
X50412245Y-58200000D02*
X61700000Y-58200000D01*
X74132500Y-245529973D02*
G75*
G02*
X78632494Y-245535169I2250000J-27D01*
G01*
X421520000Y-245535169D02*
X421520000Y-249897500D01*
X232859998Y-49800000D02*
G75*
G02*
X235860000Y-52800000I2J-3000000D01*
G01*
X237882500Y-246884283D02*
X237882500Y-237897500D01*
X443880000Y-69750000D02*
X443880000Y-120850000D01*
X215860000Y-58200000D02*
X215860000Y-52799973D01*
X49609998Y-120720000D02*
G75*
G02*
X49609998Y-125219940I2J-2249970D01*
G01*
X257882500Y-246897473D02*
G75*
G02*
X254882498Y-249897500I-3000000J-27D01*
G01*
X49609998Y-120720000D02*
X47400000Y-120720000D01*
X66382500Y-237897500D02*
X50399998Y-237897500D01*
X85910000Y-52800000D02*
X85910000Y-58200000D01*
M02*
