%TF.GenerationSoftware,KiCad,Pcbnew,8.0.2*%
%TF.CreationDate,2024-06-15T15:47:28-07:00*%
%TF.ProjectId,dimension-PCB,64696d65-6e73-4696-9f6e-2d5043422e6b,rev?*%
%TF.SameCoordinates,Original*%
%TF.FileFunction,Other,Comment*%
%FSLAX46Y46*%
G04 Gerber Fmt 4.6, Leading zero omitted, Abs format (unit mm)*
G04 Created by KiCad (PCBNEW 8.0.2) date 2024-06-15 15:47:28*
%MOMM*%
%LPD*%
G01*
G04 APERTURE LIST*
%ADD10C,0.150000*%
G04 APERTURE END LIST*
D10*
X75570535Y-212412819D02*
X75570535Y-211412819D01*
X75570535Y-211412819D02*
X75903868Y-212127104D01*
X75903868Y-212127104D02*
X76237201Y-211412819D01*
X76237201Y-211412819D02*
X76237201Y-212412819D01*
X76618154Y-211412819D02*
X77284820Y-212412819D01*
X77284820Y-211412819D02*
X76618154Y-212412819D01*
X77427678Y-212508057D02*
X78189582Y-212508057D01*
X78380059Y-212365200D02*
X78475297Y-212412819D01*
X78475297Y-212412819D02*
X78665773Y-212412819D01*
X78665773Y-212412819D02*
X78761011Y-212365200D01*
X78761011Y-212365200D02*
X78808630Y-212269961D01*
X78808630Y-212269961D02*
X78808630Y-212222342D01*
X78808630Y-212222342D02*
X78761011Y-212127104D01*
X78761011Y-212127104D02*
X78665773Y-212079485D01*
X78665773Y-212079485D02*
X78522916Y-212079485D01*
X78522916Y-212079485D02*
X78427678Y-212031866D01*
X78427678Y-212031866D02*
X78380059Y-211936628D01*
X78380059Y-211936628D02*
X78380059Y-211889009D01*
X78380059Y-211889009D02*
X78427678Y-211793771D01*
X78427678Y-211793771D02*
X78522916Y-211746152D01*
X78522916Y-211746152D02*
X78665773Y-211746152D01*
X78665773Y-211746152D02*
X78761011Y-211793771D01*
X79094345Y-211746152D02*
X79475297Y-211746152D01*
X79237202Y-211412819D02*
X79237202Y-212269961D01*
X79237202Y-212269961D02*
X79284821Y-212365200D01*
X79284821Y-212365200D02*
X79380059Y-212412819D01*
X79380059Y-212412819D02*
X79475297Y-212412819D01*
X80237202Y-212412819D02*
X80237202Y-211889009D01*
X80237202Y-211889009D02*
X80189583Y-211793771D01*
X80189583Y-211793771D02*
X80094345Y-211746152D01*
X80094345Y-211746152D02*
X79903869Y-211746152D01*
X79903869Y-211746152D02*
X79808631Y-211793771D01*
X80237202Y-212365200D02*
X80141964Y-212412819D01*
X80141964Y-212412819D02*
X79903869Y-212412819D01*
X79903869Y-212412819D02*
X79808631Y-212365200D01*
X79808631Y-212365200D02*
X79761012Y-212269961D01*
X79761012Y-212269961D02*
X79761012Y-212174723D01*
X79761012Y-212174723D02*
X79808631Y-212079485D01*
X79808631Y-212079485D02*
X79903869Y-212031866D01*
X79903869Y-212031866D02*
X80141964Y-212031866D01*
X80141964Y-212031866D02*
X80237202Y-211984247D01*
X80713393Y-212412819D02*
X80713393Y-211412819D01*
X80713393Y-211793771D02*
X80808631Y-211746152D01*
X80808631Y-211746152D02*
X80999107Y-211746152D01*
X80999107Y-211746152D02*
X81094345Y-211793771D01*
X81094345Y-211793771D02*
X81141964Y-211841390D01*
X81141964Y-211841390D02*
X81189583Y-211936628D01*
X81189583Y-211936628D02*
X81189583Y-212222342D01*
X81189583Y-212222342D02*
X81141964Y-212317580D01*
X81141964Y-212317580D02*
X81094345Y-212365200D01*
X81094345Y-212365200D02*
X80999107Y-212412819D01*
X80999107Y-212412819D02*
X80808631Y-212412819D01*
X80808631Y-212412819D02*
X80713393Y-212365200D01*
X318458035Y-193362819D02*
X318458035Y-192362819D01*
X318458035Y-192362819D02*
X318791368Y-193077104D01*
X318791368Y-193077104D02*
X319124701Y-192362819D01*
X319124701Y-192362819D02*
X319124701Y-193362819D01*
X319505654Y-192362819D02*
X320172320Y-193362819D01*
X320172320Y-192362819D02*
X319505654Y-193362819D01*
X320315178Y-193458057D02*
X321077082Y-193458057D01*
X321267559Y-193315200D02*
X321362797Y-193362819D01*
X321362797Y-193362819D02*
X321553273Y-193362819D01*
X321553273Y-193362819D02*
X321648511Y-193315200D01*
X321648511Y-193315200D02*
X321696130Y-193219961D01*
X321696130Y-193219961D02*
X321696130Y-193172342D01*
X321696130Y-193172342D02*
X321648511Y-193077104D01*
X321648511Y-193077104D02*
X321553273Y-193029485D01*
X321553273Y-193029485D02*
X321410416Y-193029485D01*
X321410416Y-193029485D02*
X321315178Y-192981866D01*
X321315178Y-192981866D02*
X321267559Y-192886628D01*
X321267559Y-192886628D02*
X321267559Y-192839009D01*
X321267559Y-192839009D02*
X321315178Y-192743771D01*
X321315178Y-192743771D02*
X321410416Y-192696152D01*
X321410416Y-192696152D02*
X321553273Y-192696152D01*
X321553273Y-192696152D02*
X321648511Y-192743771D01*
X321981845Y-192696152D02*
X322362797Y-192696152D01*
X322124702Y-192362819D02*
X322124702Y-193219961D01*
X322124702Y-193219961D02*
X322172321Y-193315200D01*
X322172321Y-193315200D02*
X322267559Y-193362819D01*
X322267559Y-193362819D02*
X322362797Y-193362819D01*
X323124702Y-193362819D02*
X323124702Y-192839009D01*
X323124702Y-192839009D02*
X323077083Y-192743771D01*
X323077083Y-192743771D02*
X322981845Y-192696152D01*
X322981845Y-192696152D02*
X322791369Y-192696152D01*
X322791369Y-192696152D02*
X322696131Y-192743771D01*
X323124702Y-193315200D02*
X323029464Y-193362819D01*
X323029464Y-193362819D02*
X322791369Y-193362819D01*
X322791369Y-193362819D02*
X322696131Y-193315200D01*
X322696131Y-193315200D02*
X322648512Y-193219961D01*
X322648512Y-193219961D02*
X322648512Y-193124723D01*
X322648512Y-193124723D02*
X322696131Y-193029485D01*
X322696131Y-193029485D02*
X322791369Y-192981866D01*
X322791369Y-192981866D02*
X323029464Y-192981866D01*
X323029464Y-192981866D02*
X323124702Y-192934247D01*
X323600893Y-193362819D02*
X323600893Y-192362819D01*
X323600893Y-192743771D02*
X323696131Y-192696152D01*
X323696131Y-192696152D02*
X323886607Y-192696152D01*
X323886607Y-192696152D02*
X323981845Y-192743771D01*
X323981845Y-192743771D02*
X324029464Y-192791390D01*
X324029464Y-192791390D02*
X324077083Y-192886628D01*
X324077083Y-192886628D02*
X324077083Y-193172342D01*
X324077083Y-193172342D02*
X324029464Y-193267580D01*
X324029464Y-193267580D02*
X323981845Y-193315200D01*
X323981845Y-193315200D02*
X323886607Y-193362819D01*
X323886607Y-193362819D02*
X323696131Y-193362819D01*
X323696131Y-193362819D02*
X323600893Y-193315200D01*
X320839285Y-155262819D02*
X320839285Y-154262819D01*
X320839285Y-154262819D02*
X321172618Y-154977104D01*
X321172618Y-154977104D02*
X321505951Y-154262819D01*
X321505951Y-154262819D02*
X321505951Y-155262819D01*
X321886904Y-154262819D02*
X322553570Y-155262819D01*
X322553570Y-154262819D02*
X321886904Y-155262819D01*
X322696428Y-155358057D02*
X323458332Y-155358057D01*
X323648809Y-155215200D02*
X323744047Y-155262819D01*
X323744047Y-155262819D02*
X323934523Y-155262819D01*
X323934523Y-155262819D02*
X324029761Y-155215200D01*
X324029761Y-155215200D02*
X324077380Y-155119961D01*
X324077380Y-155119961D02*
X324077380Y-155072342D01*
X324077380Y-155072342D02*
X324029761Y-154977104D01*
X324029761Y-154977104D02*
X323934523Y-154929485D01*
X323934523Y-154929485D02*
X323791666Y-154929485D01*
X323791666Y-154929485D02*
X323696428Y-154881866D01*
X323696428Y-154881866D02*
X323648809Y-154786628D01*
X323648809Y-154786628D02*
X323648809Y-154739009D01*
X323648809Y-154739009D02*
X323696428Y-154643771D01*
X323696428Y-154643771D02*
X323791666Y-154596152D01*
X323791666Y-154596152D02*
X323934523Y-154596152D01*
X323934523Y-154596152D02*
X324029761Y-154643771D01*
X324363095Y-154596152D02*
X324744047Y-154596152D01*
X324505952Y-154262819D02*
X324505952Y-155119961D01*
X324505952Y-155119961D02*
X324553571Y-155215200D01*
X324553571Y-155215200D02*
X324648809Y-155262819D01*
X324648809Y-155262819D02*
X324744047Y-155262819D01*
X325505952Y-155262819D02*
X325505952Y-154739009D01*
X325505952Y-154739009D02*
X325458333Y-154643771D01*
X325458333Y-154643771D02*
X325363095Y-154596152D01*
X325363095Y-154596152D02*
X325172619Y-154596152D01*
X325172619Y-154596152D02*
X325077381Y-154643771D01*
X325505952Y-155215200D02*
X325410714Y-155262819D01*
X325410714Y-155262819D02*
X325172619Y-155262819D01*
X325172619Y-155262819D02*
X325077381Y-155215200D01*
X325077381Y-155215200D02*
X325029762Y-155119961D01*
X325029762Y-155119961D02*
X325029762Y-155024723D01*
X325029762Y-155024723D02*
X325077381Y-154929485D01*
X325077381Y-154929485D02*
X325172619Y-154881866D01*
X325172619Y-154881866D02*
X325410714Y-154881866D01*
X325410714Y-154881866D02*
X325505952Y-154834247D01*
X325982143Y-155262819D02*
X325982143Y-154262819D01*
X325982143Y-154643771D02*
X326077381Y-154596152D01*
X326077381Y-154596152D02*
X326267857Y-154596152D01*
X326267857Y-154596152D02*
X326363095Y-154643771D01*
X326363095Y-154643771D02*
X326410714Y-154691390D01*
X326410714Y-154691390D02*
X326458333Y-154786628D01*
X326458333Y-154786628D02*
X326458333Y-155072342D01*
X326458333Y-155072342D02*
X326410714Y-155167580D01*
X326410714Y-155167580D02*
X326363095Y-155215200D01*
X326363095Y-155215200D02*
X326267857Y-155262819D01*
X326267857Y-155262819D02*
X326077381Y-155262819D01*
X326077381Y-155262819D02*
X325982143Y-155215200D01*
X177964285Y-231462819D02*
X177964285Y-230462819D01*
X177964285Y-230462819D02*
X178297618Y-231177104D01*
X178297618Y-231177104D02*
X178630951Y-230462819D01*
X178630951Y-230462819D02*
X178630951Y-231462819D01*
X179011904Y-230462819D02*
X179678570Y-231462819D01*
X179678570Y-230462819D02*
X179011904Y-231462819D01*
X179821428Y-231558057D02*
X180583332Y-231558057D01*
X180773809Y-231415200D02*
X180869047Y-231462819D01*
X180869047Y-231462819D02*
X181059523Y-231462819D01*
X181059523Y-231462819D02*
X181154761Y-231415200D01*
X181154761Y-231415200D02*
X181202380Y-231319961D01*
X181202380Y-231319961D02*
X181202380Y-231272342D01*
X181202380Y-231272342D02*
X181154761Y-231177104D01*
X181154761Y-231177104D02*
X181059523Y-231129485D01*
X181059523Y-231129485D02*
X180916666Y-231129485D01*
X180916666Y-231129485D02*
X180821428Y-231081866D01*
X180821428Y-231081866D02*
X180773809Y-230986628D01*
X180773809Y-230986628D02*
X180773809Y-230939009D01*
X180773809Y-230939009D02*
X180821428Y-230843771D01*
X180821428Y-230843771D02*
X180916666Y-230796152D01*
X180916666Y-230796152D02*
X181059523Y-230796152D01*
X181059523Y-230796152D02*
X181154761Y-230843771D01*
X181488095Y-230796152D02*
X181869047Y-230796152D01*
X181630952Y-230462819D02*
X181630952Y-231319961D01*
X181630952Y-231319961D02*
X181678571Y-231415200D01*
X181678571Y-231415200D02*
X181773809Y-231462819D01*
X181773809Y-231462819D02*
X181869047Y-231462819D01*
X182630952Y-231462819D02*
X182630952Y-230939009D01*
X182630952Y-230939009D02*
X182583333Y-230843771D01*
X182583333Y-230843771D02*
X182488095Y-230796152D01*
X182488095Y-230796152D02*
X182297619Y-230796152D01*
X182297619Y-230796152D02*
X182202381Y-230843771D01*
X182630952Y-231415200D02*
X182535714Y-231462819D01*
X182535714Y-231462819D02*
X182297619Y-231462819D01*
X182297619Y-231462819D02*
X182202381Y-231415200D01*
X182202381Y-231415200D02*
X182154762Y-231319961D01*
X182154762Y-231319961D02*
X182154762Y-231224723D01*
X182154762Y-231224723D02*
X182202381Y-231129485D01*
X182202381Y-231129485D02*
X182297619Y-231081866D01*
X182297619Y-231081866D02*
X182535714Y-231081866D01*
X182535714Y-231081866D02*
X182630952Y-231034247D01*
X183107143Y-231462819D02*
X183107143Y-230462819D01*
X183107143Y-230843771D02*
X183202381Y-230796152D01*
X183202381Y-230796152D02*
X183392857Y-230796152D01*
X183392857Y-230796152D02*
X183488095Y-230843771D01*
X183488095Y-230843771D02*
X183535714Y-230891390D01*
X183535714Y-230891390D02*
X183583333Y-230986628D01*
X183583333Y-230986628D02*
X183583333Y-231272342D01*
X183583333Y-231272342D02*
X183535714Y-231367580D01*
X183535714Y-231367580D02*
X183488095Y-231415200D01*
X183488095Y-231415200D02*
X183392857Y-231462819D01*
X183392857Y-231462819D02*
X183202381Y-231462819D01*
X183202381Y-231462819D02*
X183107143Y-231415200D01*
X433412819Y-216140714D02*
X432412819Y-216140714D01*
X432412819Y-216140714D02*
X433127104Y-215807381D01*
X433127104Y-215807381D02*
X432412819Y-215474048D01*
X432412819Y-215474048D02*
X433412819Y-215474048D01*
X432412819Y-215093095D02*
X433412819Y-214426429D01*
X432412819Y-214426429D02*
X433412819Y-215093095D01*
X433508057Y-214283572D02*
X433508057Y-213521667D01*
X433365200Y-213331190D02*
X433412819Y-213235952D01*
X433412819Y-213235952D02*
X433412819Y-213045476D01*
X433412819Y-213045476D02*
X433365200Y-212950238D01*
X433365200Y-212950238D02*
X433269961Y-212902619D01*
X433269961Y-212902619D02*
X433222342Y-212902619D01*
X433222342Y-212902619D02*
X433127104Y-212950238D01*
X433127104Y-212950238D02*
X433079485Y-213045476D01*
X433079485Y-213045476D02*
X433079485Y-213188333D01*
X433079485Y-213188333D02*
X433031866Y-213283571D01*
X433031866Y-213283571D02*
X432936628Y-213331190D01*
X432936628Y-213331190D02*
X432889009Y-213331190D01*
X432889009Y-213331190D02*
X432793771Y-213283571D01*
X432793771Y-213283571D02*
X432746152Y-213188333D01*
X432746152Y-213188333D02*
X432746152Y-213045476D01*
X432746152Y-213045476D02*
X432793771Y-212950238D01*
X432746152Y-212616904D02*
X432746152Y-212235952D01*
X432412819Y-212474047D02*
X433269961Y-212474047D01*
X433269961Y-212474047D02*
X433365200Y-212426428D01*
X433365200Y-212426428D02*
X433412819Y-212331190D01*
X433412819Y-212331190D02*
X433412819Y-212235952D01*
X433412819Y-211474047D02*
X432889009Y-211474047D01*
X432889009Y-211474047D02*
X432793771Y-211521666D01*
X432793771Y-211521666D02*
X432746152Y-211616904D01*
X432746152Y-211616904D02*
X432746152Y-211807380D01*
X432746152Y-211807380D02*
X432793771Y-211902618D01*
X433365200Y-211474047D02*
X433412819Y-211569285D01*
X433412819Y-211569285D02*
X433412819Y-211807380D01*
X433412819Y-211807380D02*
X433365200Y-211902618D01*
X433365200Y-211902618D02*
X433269961Y-211950237D01*
X433269961Y-211950237D02*
X433174723Y-211950237D01*
X433174723Y-211950237D02*
X433079485Y-211902618D01*
X433079485Y-211902618D02*
X433031866Y-211807380D01*
X433031866Y-211807380D02*
X433031866Y-211569285D01*
X433031866Y-211569285D02*
X432984247Y-211474047D01*
X433412819Y-210997856D02*
X432412819Y-210997856D01*
X432793771Y-210997856D02*
X432746152Y-210902618D01*
X432746152Y-210902618D02*
X432746152Y-210712142D01*
X432746152Y-210712142D02*
X432793771Y-210616904D01*
X432793771Y-210616904D02*
X432841390Y-210569285D01*
X432841390Y-210569285D02*
X432936628Y-210521666D01*
X432936628Y-210521666D02*
X433222342Y-210521666D01*
X433222342Y-210521666D02*
X433317580Y-210569285D01*
X433317580Y-210569285D02*
X433365200Y-210616904D01*
X433365200Y-210616904D02*
X433412819Y-210712142D01*
X433412819Y-210712142D02*
X433412819Y-210902618D01*
X433412819Y-210902618D02*
X433365200Y-210997856D01*
X105359580Y-85500002D02*
X105407200Y-85547621D01*
X105407200Y-85547621D02*
X105454819Y-85690478D01*
X105454819Y-85690478D02*
X105454819Y-85785716D01*
X105454819Y-85785716D02*
X105407200Y-85928573D01*
X105407200Y-85928573D02*
X105311961Y-86023811D01*
X105311961Y-86023811D02*
X105216723Y-86071430D01*
X105216723Y-86071430D02*
X105026247Y-86119049D01*
X105026247Y-86119049D02*
X104883390Y-86119049D01*
X104883390Y-86119049D02*
X104692914Y-86071430D01*
X104692914Y-86071430D02*
X104597676Y-86023811D01*
X104597676Y-86023811D02*
X104502438Y-85928573D01*
X104502438Y-85928573D02*
X104454819Y-85785716D01*
X104454819Y-85785716D02*
X104454819Y-85690478D01*
X104454819Y-85690478D02*
X104502438Y-85547621D01*
X104502438Y-85547621D02*
X104550057Y-85500002D01*
X105454819Y-84928573D02*
X105407200Y-85023811D01*
X105407200Y-85023811D02*
X105359580Y-85071430D01*
X105359580Y-85071430D02*
X105264342Y-85119049D01*
X105264342Y-85119049D02*
X104978628Y-85119049D01*
X104978628Y-85119049D02*
X104883390Y-85071430D01*
X104883390Y-85071430D02*
X104835771Y-85023811D01*
X104835771Y-85023811D02*
X104788152Y-84928573D01*
X104788152Y-84928573D02*
X104788152Y-84785716D01*
X104788152Y-84785716D02*
X104835771Y-84690478D01*
X104835771Y-84690478D02*
X104883390Y-84642859D01*
X104883390Y-84642859D02*
X104978628Y-84595240D01*
X104978628Y-84595240D02*
X105264342Y-84595240D01*
X105264342Y-84595240D02*
X105359580Y-84642859D01*
X105359580Y-84642859D02*
X105407200Y-84690478D01*
X105407200Y-84690478D02*
X105454819Y-84785716D01*
X105454819Y-84785716D02*
X105454819Y-84928573D01*
X104788152Y-84166668D02*
X105788152Y-84166668D01*
X104835771Y-84166668D02*
X104788152Y-84071430D01*
X104788152Y-84071430D02*
X104788152Y-83880954D01*
X104788152Y-83880954D02*
X104835771Y-83785716D01*
X104835771Y-83785716D02*
X104883390Y-83738097D01*
X104883390Y-83738097D02*
X104978628Y-83690478D01*
X104978628Y-83690478D02*
X105264342Y-83690478D01*
X105264342Y-83690478D02*
X105359580Y-83738097D01*
X105359580Y-83738097D02*
X105407200Y-83785716D01*
X105407200Y-83785716D02*
X105454819Y-83880954D01*
X105454819Y-83880954D02*
X105454819Y-84071430D01*
X105454819Y-84071430D02*
X105407200Y-84166668D01*
X104788152Y-83261906D02*
X105788152Y-83261906D01*
X104835771Y-83261906D02*
X104788152Y-83166668D01*
X104788152Y-83166668D02*
X104788152Y-82976192D01*
X104788152Y-82976192D02*
X104835771Y-82880954D01*
X104835771Y-82880954D02*
X104883390Y-82833335D01*
X104883390Y-82833335D02*
X104978628Y-82785716D01*
X104978628Y-82785716D02*
X105264342Y-82785716D01*
X105264342Y-82785716D02*
X105359580Y-82833335D01*
X105359580Y-82833335D02*
X105407200Y-82880954D01*
X105407200Y-82880954D02*
X105454819Y-82976192D01*
X105454819Y-82976192D02*
X105454819Y-83166668D01*
X105454819Y-83166668D02*
X105407200Y-83261906D01*
X105407200Y-81976192D02*
X105454819Y-82071430D01*
X105454819Y-82071430D02*
X105454819Y-82261906D01*
X105454819Y-82261906D02*
X105407200Y-82357144D01*
X105407200Y-82357144D02*
X105311961Y-82404763D01*
X105311961Y-82404763D02*
X104931009Y-82404763D01*
X104931009Y-82404763D02*
X104835771Y-82357144D01*
X104835771Y-82357144D02*
X104788152Y-82261906D01*
X104788152Y-82261906D02*
X104788152Y-82071430D01*
X104788152Y-82071430D02*
X104835771Y-81976192D01*
X104835771Y-81976192D02*
X104931009Y-81928573D01*
X104931009Y-81928573D02*
X105026247Y-81928573D01*
X105026247Y-81928573D02*
X105121485Y-82404763D01*
X105454819Y-81500001D02*
X104788152Y-81500001D01*
X104978628Y-81500001D02*
X104883390Y-81452382D01*
X104883390Y-81452382D02*
X104835771Y-81404763D01*
X104835771Y-81404763D02*
X104788152Y-81309525D01*
X104788152Y-81309525D02*
X104788152Y-81214287D01*
X105454819Y-80119048D02*
X104454819Y-80119048D01*
X105454819Y-79547620D02*
X104883390Y-79976191D01*
X104454819Y-79547620D02*
X105026247Y-80119048D01*
X105407200Y-78738096D02*
X105454819Y-78833334D01*
X105454819Y-78833334D02*
X105454819Y-79023810D01*
X105454819Y-79023810D02*
X105407200Y-79119048D01*
X105407200Y-79119048D02*
X105311961Y-79166667D01*
X105311961Y-79166667D02*
X104931009Y-79166667D01*
X104931009Y-79166667D02*
X104835771Y-79119048D01*
X104835771Y-79119048D02*
X104788152Y-79023810D01*
X104788152Y-79023810D02*
X104788152Y-78833334D01*
X104788152Y-78833334D02*
X104835771Y-78738096D01*
X104835771Y-78738096D02*
X104931009Y-78690477D01*
X104931009Y-78690477D02*
X105026247Y-78690477D01*
X105026247Y-78690477D02*
X105121485Y-79166667D01*
X105407200Y-77880953D02*
X105454819Y-77976191D01*
X105454819Y-77976191D02*
X105454819Y-78166667D01*
X105454819Y-78166667D02*
X105407200Y-78261905D01*
X105407200Y-78261905D02*
X105311961Y-78309524D01*
X105311961Y-78309524D02*
X104931009Y-78309524D01*
X104931009Y-78309524D02*
X104835771Y-78261905D01*
X104835771Y-78261905D02*
X104788152Y-78166667D01*
X104788152Y-78166667D02*
X104788152Y-77976191D01*
X104788152Y-77976191D02*
X104835771Y-77880953D01*
X104835771Y-77880953D02*
X104931009Y-77833334D01*
X104931009Y-77833334D02*
X105026247Y-77833334D01*
X105026247Y-77833334D02*
X105121485Y-78309524D01*
X104788152Y-77404762D02*
X105788152Y-77404762D01*
X104835771Y-77404762D02*
X104788152Y-77309524D01*
X104788152Y-77309524D02*
X104788152Y-77119048D01*
X104788152Y-77119048D02*
X104835771Y-77023810D01*
X104835771Y-77023810D02*
X104883390Y-76976191D01*
X104883390Y-76976191D02*
X104978628Y-76928572D01*
X104978628Y-76928572D02*
X105264342Y-76928572D01*
X105264342Y-76928572D02*
X105359580Y-76976191D01*
X105359580Y-76976191D02*
X105407200Y-77023810D01*
X105407200Y-77023810D02*
X105454819Y-77119048D01*
X105454819Y-77119048D02*
X105454819Y-77309524D01*
X105454819Y-77309524D02*
X105407200Y-77404762D01*
X105454819Y-76357143D02*
X105407200Y-76452381D01*
X105407200Y-76452381D02*
X105359580Y-76500000D01*
X105359580Y-76500000D02*
X105264342Y-76547619D01*
X105264342Y-76547619D02*
X104978628Y-76547619D01*
X104978628Y-76547619D02*
X104883390Y-76500000D01*
X104883390Y-76500000D02*
X104835771Y-76452381D01*
X104835771Y-76452381D02*
X104788152Y-76357143D01*
X104788152Y-76357143D02*
X104788152Y-76214286D01*
X104788152Y-76214286D02*
X104835771Y-76119048D01*
X104835771Y-76119048D02*
X104883390Y-76071429D01*
X104883390Y-76071429D02*
X104978628Y-76023810D01*
X104978628Y-76023810D02*
X105264342Y-76023810D01*
X105264342Y-76023810D02*
X105359580Y-76071429D01*
X105359580Y-76071429D02*
X105407200Y-76119048D01*
X105407200Y-76119048D02*
X105454819Y-76214286D01*
X105454819Y-76214286D02*
X105454819Y-76357143D01*
X104788152Y-75166667D02*
X105454819Y-75166667D01*
X104788152Y-75595238D02*
X105311961Y-75595238D01*
X105311961Y-75595238D02*
X105407200Y-75547619D01*
X105407200Y-75547619D02*
X105454819Y-75452381D01*
X105454819Y-75452381D02*
X105454819Y-75309524D01*
X105454819Y-75309524D02*
X105407200Y-75214286D01*
X105407200Y-75214286D02*
X105359580Y-75166667D01*
X104788152Y-74833333D02*
X104788152Y-74452381D01*
X104454819Y-74690476D02*
X105311961Y-74690476D01*
X105311961Y-74690476D02*
X105407200Y-74642857D01*
X105407200Y-74642857D02*
X105454819Y-74547619D01*
X105454819Y-74547619D02*
X105454819Y-74452381D01*
X105407200Y-74166666D02*
X105454819Y-74071428D01*
X105454819Y-74071428D02*
X105454819Y-73880952D01*
X105454819Y-73880952D02*
X105407200Y-73785714D01*
X105407200Y-73785714D02*
X105311961Y-73738095D01*
X105311961Y-73738095D02*
X105264342Y-73738095D01*
X105264342Y-73738095D02*
X105169104Y-73785714D01*
X105169104Y-73785714D02*
X105121485Y-73880952D01*
X105121485Y-73880952D02*
X105121485Y-74023809D01*
X105121485Y-74023809D02*
X105073866Y-74119047D01*
X105073866Y-74119047D02*
X104978628Y-74166666D01*
X104978628Y-74166666D02*
X104931009Y-74166666D01*
X104931009Y-74166666D02*
X104835771Y-74119047D01*
X104835771Y-74119047D02*
X104788152Y-74023809D01*
X104788152Y-74023809D02*
X104788152Y-73880952D01*
X104788152Y-73880952D02*
X104835771Y-73785714D01*
X105407200Y-72595237D02*
X105454819Y-72499999D01*
X105454819Y-72499999D02*
X105454819Y-72309523D01*
X105454819Y-72309523D02*
X105407200Y-72214285D01*
X105407200Y-72214285D02*
X105311961Y-72166666D01*
X105311961Y-72166666D02*
X105264342Y-72166666D01*
X105264342Y-72166666D02*
X105169104Y-72214285D01*
X105169104Y-72214285D02*
X105121485Y-72309523D01*
X105121485Y-72309523D02*
X105121485Y-72452380D01*
X105121485Y-72452380D02*
X105073866Y-72547618D01*
X105073866Y-72547618D02*
X104978628Y-72595237D01*
X104978628Y-72595237D02*
X104931009Y-72595237D01*
X104931009Y-72595237D02*
X104835771Y-72547618D01*
X104835771Y-72547618D02*
X104788152Y-72452380D01*
X104788152Y-72452380D02*
X104788152Y-72309523D01*
X104788152Y-72309523D02*
X104835771Y-72214285D01*
X105454819Y-71738094D02*
X104454819Y-71738094D01*
X105454819Y-71309523D02*
X104931009Y-71309523D01*
X104931009Y-71309523D02*
X104835771Y-71357142D01*
X104835771Y-71357142D02*
X104788152Y-71452380D01*
X104788152Y-71452380D02*
X104788152Y-71595237D01*
X104788152Y-71595237D02*
X104835771Y-71690475D01*
X104835771Y-71690475D02*
X104883390Y-71738094D01*
X105454819Y-70690475D02*
X105407200Y-70785713D01*
X105407200Y-70785713D02*
X105359580Y-70833332D01*
X105359580Y-70833332D02*
X105264342Y-70880951D01*
X105264342Y-70880951D02*
X104978628Y-70880951D01*
X104978628Y-70880951D02*
X104883390Y-70833332D01*
X104883390Y-70833332D02*
X104835771Y-70785713D01*
X104835771Y-70785713D02*
X104788152Y-70690475D01*
X104788152Y-70690475D02*
X104788152Y-70547618D01*
X104788152Y-70547618D02*
X104835771Y-70452380D01*
X104835771Y-70452380D02*
X104883390Y-70404761D01*
X104883390Y-70404761D02*
X104978628Y-70357142D01*
X104978628Y-70357142D02*
X105264342Y-70357142D01*
X105264342Y-70357142D02*
X105359580Y-70404761D01*
X105359580Y-70404761D02*
X105407200Y-70452380D01*
X105407200Y-70452380D02*
X105454819Y-70547618D01*
X105454819Y-70547618D02*
X105454819Y-70690475D01*
X104788152Y-70023808D02*
X105454819Y-69833332D01*
X105454819Y-69833332D02*
X104978628Y-69642856D01*
X104978628Y-69642856D02*
X105454819Y-69452380D01*
X105454819Y-69452380D02*
X104788152Y-69261904D01*
X104788152Y-68880951D02*
X105454819Y-68880951D01*
X104883390Y-68880951D02*
X104835771Y-68833332D01*
X104835771Y-68833332D02*
X104788152Y-68738094D01*
X104788152Y-68738094D02*
X104788152Y-68595237D01*
X104788152Y-68595237D02*
X104835771Y-68499999D01*
X104835771Y-68499999D02*
X104931009Y-68452380D01*
X104931009Y-68452380D02*
X105454819Y-68452380D01*
X105454819Y-67071427D02*
X105407200Y-67166665D01*
X105407200Y-67166665D02*
X105359580Y-67214284D01*
X105359580Y-67214284D02*
X105264342Y-67261903D01*
X105264342Y-67261903D02*
X104978628Y-67261903D01*
X104978628Y-67261903D02*
X104883390Y-67214284D01*
X104883390Y-67214284D02*
X104835771Y-67166665D01*
X104835771Y-67166665D02*
X104788152Y-67071427D01*
X104788152Y-67071427D02*
X104788152Y-66928570D01*
X104788152Y-66928570D02*
X104835771Y-66833332D01*
X104835771Y-66833332D02*
X104883390Y-66785713D01*
X104883390Y-66785713D02*
X104978628Y-66738094D01*
X104978628Y-66738094D02*
X105264342Y-66738094D01*
X105264342Y-66738094D02*
X105359580Y-66785713D01*
X105359580Y-66785713D02*
X105407200Y-66833332D01*
X105407200Y-66833332D02*
X105454819Y-66928570D01*
X105454819Y-66928570D02*
X105454819Y-67071427D01*
X104788152Y-66309522D02*
X105454819Y-66309522D01*
X104883390Y-66309522D02*
X104835771Y-66261903D01*
X104835771Y-66261903D02*
X104788152Y-66166665D01*
X104788152Y-66166665D02*
X104788152Y-66023808D01*
X104788152Y-66023808D02*
X104835771Y-65928570D01*
X104835771Y-65928570D02*
X104931009Y-65880951D01*
X104931009Y-65880951D02*
X105454819Y-65880951D01*
X105454819Y-64642855D02*
X104454819Y-64642855D01*
X104454819Y-64642855D02*
X104454819Y-64404760D01*
X104454819Y-64404760D02*
X104502438Y-64261903D01*
X104502438Y-64261903D02*
X104597676Y-64166665D01*
X104597676Y-64166665D02*
X104692914Y-64119046D01*
X104692914Y-64119046D02*
X104883390Y-64071427D01*
X104883390Y-64071427D02*
X105026247Y-64071427D01*
X105026247Y-64071427D02*
X105216723Y-64119046D01*
X105216723Y-64119046D02*
X105311961Y-64166665D01*
X105311961Y-64166665D02*
X105407200Y-64261903D01*
X105407200Y-64261903D02*
X105454819Y-64404760D01*
X105454819Y-64404760D02*
X105454819Y-64642855D01*
X104788152Y-63738093D02*
X105454819Y-63547617D01*
X105454819Y-63547617D02*
X104978628Y-63357141D01*
X104978628Y-63357141D02*
X105454819Y-63166665D01*
X105454819Y-63166665D02*
X104788152Y-62976189D01*
X104788152Y-62166665D02*
X105597676Y-62166665D01*
X105597676Y-62166665D02*
X105692914Y-62214284D01*
X105692914Y-62214284D02*
X105740533Y-62261903D01*
X105740533Y-62261903D02*
X105788152Y-62357141D01*
X105788152Y-62357141D02*
X105788152Y-62499998D01*
X105788152Y-62499998D02*
X105740533Y-62595236D01*
X105407200Y-62166665D02*
X105454819Y-62261903D01*
X105454819Y-62261903D02*
X105454819Y-62452379D01*
X105454819Y-62452379D02*
X105407200Y-62547617D01*
X105407200Y-62547617D02*
X105359580Y-62595236D01*
X105359580Y-62595236D02*
X105264342Y-62642855D01*
X105264342Y-62642855D02*
X104978628Y-62642855D01*
X104978628Y-62642855D02*
X104883390Y-62595236D01*
X104883390Y-62595236D02*
X104835771Y-62547617D01*
X104835771Y-62547617D02*
X104788152Y-62452379D01*
X104788152Y-62452379D02*
X104788152Y-62261903D01*
X104788152Y-62261903D02*
X104835771Y-62166665D01*
X105407200Y-61738093D02*
X105454819Y-61642855D01*
X105454819Y-61642855D02*
X105454819Y-61452379D01*
X105454819Y-61452379D02*
X105407200Y-61357141D01*
X105407200Y-61357141D02*
X105311961Y-61309522D01*
X105311961Y-61309522D02*
X105264342Y-61309522D01*
X105264342Y-61309522D02*
X105169104Y-61357141D01*
X105169104Y-61357141D02*
X105121485Y-61452379D01*
X105121485Y-61452379D02*
X105121485Y-61595236D01*
X105121485Y-61595236D02*
X105073866Y-61690474D01*
X105073866Y-61690474D02*
X104978628Y-61738093D01*
X104978628Y-61738093D02*
X104931009Y-61738093D01*
X104931009Y-61738093D02*
X104835771Y-61690474D01*
X104835771Y-61690474D02*
X104788152Y-61595236D01*
X104788152Y-61595236D02*
X104788152Y-61452379D01*
X104788152Y-61452379D02*
X104835771Y-61357141D01*
X105454819Y-59976188D02*
X105407200Y-60071426D01*
X105407200Y-60071426D02*
X105311961Y-60119045D01*
X105311961Y-60119045D02*
X104454819Y-60119045D01*
X105454819Y-59166664D02*
X104931009Y-59166664D01*
X104931009Y-59166664D02*
X104835771Y-59214283D01*
X104835771Y-59214283D02*
X104788152Y-59309521D01*
X104788152Y-59309521D02*
X104788152Y-59499997D01*
X104788152Y-59499997D02*
X104835771Y-59595235D01*
X105407200Y-59166664D02*
X105454819Y-59261902D01*
X105454819Y-59261902D02*
X105454819Y-59499997D01*
X105454819Y-59499997D02*
X105407200Y-59595235D01*
X105407200Y-59595235D02*
X105311961Y-59642854D01*
X105311961Y-59642854D02*
X105216723Y-59642854D01*
X105216723Y-59642854D02*
X105121485Y-59595235D01*
X105121485Y-59595235D02*
X105073866Y-59499997D01*
X105073866Y-59499997D02*
X105073866Y-59261902D01*
X105073866Y-59261902D02*
X105026247Y-59166664D01*
X104788152Y-58785711D02*
X105454819Y-58547616D01*
X104788152Y-58309521D02*
X105454819Y-58547616D01*
X105454819Y-58547616D02*
X105692914Y-58642854D01*
X105692914Y-58642854D02*
X105740533Y-58690473D01*
X105740533Y-58690473D02*
X105788152Y-58785711D01*
X105407200Y-57547616D02*
X105454819Y-57642854D01*
X105454819Y-57642854D02*
X105454819Y-57833330D01*
X105454819Y-57833330D02*
X105407200Y-57928568D01*
X105407200Y-57928568D02*
X105311961Y-57976187D01*
X105311961Y-57976187D02*
X104931009Y-57976187D01*
X104931009Y-57976187D02*
X104835771Y-57928568D01*
X104835771Y-57928568D02*
X104788152Y-57833330D01*
X104788152Y-57833330D02*
X104788152Y-57642854D01*
X104788152Y-57642854D02*
X104835771Y-57547616D01*
X104835771Y-57547616D02*
X104931009Y-57499997D01*
X104931009Y-57499997D02*
X105026247Y-57499997D01*
X105026247Y-57499997D02*
X105121485Y-57976187D01*
X105454819Y-57071425D02*
X104788152Y-57071425D01*
X104978628Y-57071425D02*
X104883390Y-57023806D01*
X104883390Y-57023806D02*
X104835771Y-56976187D01*
X104835771Y-56976187D02*
X104788152Y-56880949D01*
X104788152Y-56880949D02*
X104788152Y-56785711D01*
%TO.C,H3*%
X352850000Y-99317500D02*
G75*
G02*
X348250000Y-99317500I-2300000J0D01*
G01*
X348250000Y-99317500D02*
G75*
G02*
X352850000Y-99317500I2300000J0D01*
G01*
%TO.C,H4*%
X352850000Y-175317500D02*
G75*
G02*
X348250000Y-175317500I-2300000J0D01*
G01*
X348250000Y-175317500D02*
G75*
G02*
X352850000Y-175317500I2300000J0D01*
G01*
%TO.C,H6*%
X87300000Y-67440000D02*
G75*
G02*
X82700000Y-67440000I-2300000J0D01*
G01*
X82700000Y-67440000D02*
G75*
G02*
X87300000Y-67440000I2300000J0D01*
G01*
%TO.C,H1*%
X64420000Y-132510000D02*
G75*
G02*
X55820000Y-132510000I-4300000J0D01*
G01*
X55820000Y-132510000D02*
G75*
G02*
X64420000Y-132510000I4300000J0D01*
G01*
%TO.C,H5*%
X173650000Y-133105000D02*
G75*
G02*
X169050000Y-133105000I-2300000J0D01*
G01*
X169050000Y-133105000D02*
G75*
G02*
X173650000Y-133105000I2300000J0D01*
G01*
%TO.C,H2*%
X228160000Y-53480000D02*
G75*
G02*
X223560000Y-53480000I-2300000J0D01*
G01*
X223560000Y-53480000D02*
G75*
G02*
X228160000Y-53480000I2300000J0D01*
G01*
%TD*%
M02*
