M48
; DRILL file {KiCad 8.0.2} date 2024-06-15T15:47:28-0700
; FORMAT={-:-/ absolute / inch / decimal}
; #@! TF.CreationDate,2024-06-15T15:47:28-07:00
; #@! TF.GenerationSoftware,Kicad,Pcbnew,8.0.2
; #@! TF.FileFunction,Plated,1,2,PTH
FMAT,2
INCH
; #@! TA.AperFunction,Plated,PTH,ViaDrill
T1C0.0157
; #@! TA.AperFunction,Plated,PTH,ComponentDrill
T2C0.0315
; #@! TA.AperFunction,Plated,PTH,ComponentDrill
T3C0.0354
; #@! TA.AperFunction,Plated,PTH,ComponentDrill
T4C0.0394
; #@! TA.AperFunction,Plated,PTH,ComponentDrill
T5C0.0402
; #@! TA.AperFunction,Plated,PTH,ComponentDrill
T6C0.0430
; #@! TA.AperFunction,Plated,PTH,ComponentDrill
T7C0.0600
%
G90
G05
T1
X1.9685Y-2.3937
X1.9764Y-9.2559
X2.063Y-6.1772
X2.1663Y-6.2869
X2.185Y-7.0906
X2.2087Y-6.4134
X2.311Y-4.8031
X2.4291Y-2.9055
X2.4291Y-3.0118
X2.4291Y-3.1102
X2.4291Y-3.2047
X2.4291Y-3.3071
X2.4764Y-3.3583
X2.4843Y-2.1535
X2.4921Y-2.5433
X2.4921Y-2.6378
X2.4961Y-2.7323
X2.5354Y-3.4173
X2.7638Y-3.0866
X2.815Y-2.748
X2.8228Y-2.5315
X2.8465Y-2.4016
X2.8858Y-2.0394
X3.0315Y-4.2043
X3.0315Y-4.8972
X3.0315Y-4.972
X3.042Y-4.1204
X3.1063Y-6.0222
X3.1496Y-4.9961
X3.1811Y-6.097
X3.189Y-7.0197
X3.2756Y-2.3701
X3.2913Y-2.8425
X3.315Y-2.1299
X3.4173Y-2.5512
X3.4449Y-6.4533
X3.4449Y-6.8648
X3.4764Y-2.626
X3.5827Y-2.3543
X3.6969Y-4.2043
X3.6969Y-4.9543
X4.0709Y-6.847
X4.1644Y-2.9596
X4.2244Y-2.3583
X4.248Y-7.5984
X4.2717Y-3.0699
X4.437Y-2.811
X4.4449Y-4.2043
X4.4449Y-4.9543
X4.7205Y-6.8661
X4.937Y-4.126
X4.937Y-4.2362
X5.0787Y-3.4724
X5.1929Y-6.0793
X5.378Y-8.3293
X5.4409Y-2.8268
X5.5591Y-2.8268
X5.5984Y-3.2874
X5.6417Y-2.5472
X5.689Y-3.2992
X5.6969Y-2.8268
X5.7559Y-7.5793
X5.7756Y-3.311
X5.8504Y-2.8268
X5.9252Y-3.315
X6.0433Y-5.0
X6.0512Y-3.3346
X6.063Y-6.0039
X6.0709Y-3.0512
X6.1063Y-2.7402
X6.2992Y-6.3898
X6.3307Y-5.0512
X6.4528Y-2.374
X6.4685Y-2.811
X6.4921Y-6.9409
X6.5157Y-6.2008
X6.6339Y-5.5866
X6.6929Y-4.2047
X6.6929Y-4.9543
X6.8661Y-4.915
X6.8661Y-4.972
X7.126Y-5.0512
X7.4488Y-4.2043
X7.563Y-4.315
X7.6102Y-6.04
X7.6102Y-6.097
X7.8937Y-6.2008
X8.1929Y-4.9543
X8.1969Y-6.0793
X8.311Y-6.9488
X8.3819Y-8.3293
X8.5748Y-6.8293
X8.7573Y-7.5793
X8.9449Y-4.2043
X9.437Y-7.7047
X9.5079Y-7.5793
X9.6969Y-4.9543
X9.6969Y-6.0793
X9.8819Y-8.3293
X9.9724Y-6.9094
X10.4449Y-4.2043
X10.9567Y-5.0945
X10.9882Y-8.5433
X11.0079Y-6.1969
X11.1969Y-4.2043
X11.3543Y-4.311
X11.3583Y-6.04
X11.3583Y-6.097
X11.3661Y-4.915
X11.3661Y-4.972
X11.6811Y-5.0984
X11.7165Y-6.1969
X11.9409Y-4.9543
X12.6969Y-4.2043
X13.4449Y-4.2043
X13.4449Y-4.972
X13.4456Y-6.0151
X14.8031Y-4.9543
X14.8071Y-6.0793
X17.3661Y-2.4094
X17.3661Y-9.248
T2
X3.5669Y-7.1024
X3.5669Y-7.4024
T3
X3.274Y-7.2748
X3.374Y-7.2748
T4
X2.9453Y-3.9291
X2.9453Y-4.1276
X2.9453Y-4.6791
X2.9453Y-4.8776
X2.9453Y-5.8041
X2.9453Y-6.0026
X3.039Y-7.3041
X3.039Y-7.5026
X3.1328Y-6.5541
X3.1328Y-6.7526
X3.1328Y-8.8041
X3.1328Y-9.0026
X3.6953Y-3.9291
X3.6953Y-4.1276
X3.6953Y-4.6791
X3.6953Y-4.8776
X3.6953Y-5.8041
X3.6953Y-6.0026
X3.7692Y-7.9677
X3.7692Y-8.1661
X4.0703Y-6.5541
X4.0703Y-6.7526
X4.2578Y-7.3041
X4.2578Y-7.5026
X4.2578Y-8.8041
X4.2578Y-9.0026
X4.4453Y-3.9291
X4.4453Y-4.1276
X4.4453Y-4.6791
X4.4453Y-4.8776
X4.4453Y-5.8041
X4.4453Y-6.0026
X4.6328Y-8.0541
X4.6328Y-8.2526
X4.8203Y-6.5541
X4.8203Y-6.7526
X5.0078Y-7.3041
X5.0078Y-7.5026
X5.1953Y-3.9291
X5.1953Y-4.1276
X5.1953Y-4.6791
X5.1953Y-4.8776
X5.1953Y-5.8041
X5.1953Y-6.0026
X5.3828Y-8.0541
X5.3828Y-8.2526
X5.5703Y-6.5541
X5.5703Y-6.7526
X5.7578Y-7.3041
X5.7578Y-7.5026
X5.9453Y-3.9291
X5.9453Y-4.1276
X5.9453Y-4.6791
X5.9453Y-4.8776
X5.9453Y-5.8041
X5.9453Y-6.0026
X6.1328Y-8.0541
X6.1328Y-8.2526
X6.3203Y-6.5541
X6.3203Y-6.7526
X6.5078Y-7.3041
X6.5078Y-7.5026
X6.6953Y-3.9291
X6.6953Y-4.1276
X6.6953Y-4.6791
X6.6953Y-4.8776
X6.6953Y-5.8041
X6.6953Y-6.0026
X6.8828Y-8.0541
X6.8828Y-8.2526
X7.0703Y-6.5541
X7.0703Y-6.7526
X7.2578Y-7.3041
X7.2578Y-7.5026
X7.4453Y-3.9291
X7.4453Y-4.1276
X7.4453Y-4.6791
X7.4453Y-4.8776
X7.4453Y-5.8041
X7.4453Y-6.0026
X7.4453Y-8.8041
X7.4453Y-9.0026
X7.6328Y-8.0541
X7.6328Y-8.2526
X7.8203Y-6.5541
X7.8203Y-6.7526
X8.0078Y-7.3041
X8.0078Y-7.5026
X8.1953Y-3.9291
X8.1953Y-4.1276
X8.1953Y-4.6791
X8.1953Y-4.8776
X8.1953Y-5.8041
X8.1953Y-6.0026
X8.3828Y-8.0541
X8.3828Y-8.2526
X8.5703Y-6.5541
X8.5703Y-6.7526
X8.7578Y-7.3041
X8.7578Y-7.5026
X8.9453Y-3.9291
X8.9453Y-4.1276
X8.9453Y-4.6791
X8.9453Y-4.8776
X8.9453Y-5.8041
X8.9453Y-6.0026
X9.1328Y-8.0541
X9.1328Y-8.2526
X9.3203Y-6.5541
X9.3203Y-6.7526
X9.5078Y-7.3041
X9.5078Y-7.5026
X9.6953Y-3.9291
X9.6953Y-4.1276
X9.6953Y-4.6791
X9.6953Y-4.8776
X9.6953Y-5.8041
X9.6953Y-6.0026
X9.8828Y-8.0541
X9.8828Y-8.2526
X10.0703Y-6.5541
X10.0703Y-6.7526
X10.2578Y-7.3041
X10.2578Y-7.5026
X10.4453Y-3.9291
X10.4453Y-4.1276
X10.4453Y-4.6791
X10.4453Y-4.8776
X10.4453Y-5.8041
X10.4453Y-6.0026
X10.6328Y-8.0541
X10.6328Y-8.2526
X10.6328Y-8.8041
X10.6328Y-9.0026
X10.8203Y-6.5541
X10.8203Y-6.7526
X11.0078Y-7.3041
X11.0078Y-7.5026
X11.1953Y-3.9291
X11.1953Y-4.1276
X11.1953Y-4.6791
X11.1953Y-4.8776
X11.1953Y-5.8041
X11.1953Y-6.0026
X11.3828Y-8.0541
X11.3828Y-8.2526
X11.5703Y-6.5541
X11.5703Y-6.7526
X11.7578Y-7.3041
X11.7578Y-7.5026
X11.7578Y-8.8041
X11.7578Y-9.0026
X11.9453Y-3.9291
X11.9453Y-4.1276
X11.9453Y-4.6791
X11.9453Y-4.8776
X11.9453Y-5.8041
X11.9453Y-6.0026
X12.3203Y-6.5541
X12.3203Y-6.7526
X12.414Y-8.0541
X12.414Y-8.2526
X12.6953Y-3.9291
X12.6953Y-4.1276
X12.6953Y-4.6791
X12.6953Y-4.8776
X13.0453Y-8.9776
X13.0453Y-9.176
X13.2578Y-6.5541
X13.2578Y-6.7526
X13.3606Y-7.2244
X13.3606Y-7.4228
X13.4453Y-3.9291
X13.4453Y-4.1276
X13.4453Y-4.6791
X13.4453Y-4.8776
X13.4591Y-5.7185
X13.4591Y-5.9169
X13.7627Y-8.3639
X13.7627Y-8.5623
X13.7953Y-8.9776
X13.7953Y-9.176
X14.5453Y-8.9776
X14.5453Y-9.176
X14.8047Y-2.8041
X14.8047Y-3.0026
X14.8047Y-3.9291
X14.8047Y-4.1276
X14.8047Y-4.6791
X14.8047Y-4.8776
X14.8047Y-5.8041
X14.8047Y-6.0026
X14.8047Y-6.5541
X14.8047Y-6.7526
X14.8047Y-7.3041
X14.8047Y-7.5026
X14.8047Y-8.0541
X14.8047Y-8.2526
X15.5547Y-2.8041
X15.5547Y-3.0026
X15.5547Y-3.9291
X15.5547Y-4.1276
X15.5547Y-4.6791
X15.5547Y-4.8776
X15.5547Y-5.8041
X15.5547Y-6.0026
X15.5547Y-6.5541
X15.5547Y-6.7526
X15.5547Y-7.3041
X15.5547Y-7.5026
X15.5547Y-8.0541
X15.5547Y-8.2526
X15.5547Y-8.8041
X15.5547Y-9.0026
X16.3047Y-2.8041
X16.3047Y-3.0026
X16.3047Y-3.9291
X16.3047Y-4.1276
X16.3047Y-4.6791
X16.3047Y-4.8776
X16.3047Y-5.8041
X16.3047Y-6.0026
X16.3047Y-6.5541
X16.3047Y-6.7526
X16.3047Y-7.3041
X16.3047Y-7.5026
X16.3047Y-8.0541
X16.3047Y-8.2526
X16.3047Y-8.8041
X16.3047Y-9.0026
X16.702Y-7.7323
X16.9004Y-7.7323
X17.0547Y-2.8041
X17.0547Y-3.0026
X17.0547Y-3.9291
X17.0547Y-4.1276
X17.0547Y-4.6791
X17.0547Y-4.8776
X17.0547Y-5.8041
X17.0547Y-6.0026
X17.0547Y-6.5541
X17.0547Y-6.7526
X17.0547Y-7.3041
X17.0547Y-7.5026
T5
X4.3728Y-2.461
X4.3728Y-3.161
X4.4728Y-2.461
X4.4728Y-3.161
X4.5728Y-2.461
X4.5728Y-3.161
X4.6728Y-2.461
X4.6728Y-3.161
X4.7728Y-2.461
X4.7728Y-3.161
X4.8728Y-2.461
X4.8728Y-3.161
X4.9728Y-2.461
X4.9728Y-3.161
X5.0728Y-2.461
X5.0728Y-3.161
X5.1728Y-2.461
X5.1728Y-3.161
X5.2728Y-2.461
X5.2728Y-3.161
X5.3728Y-2.461
X5.3728Y-3.161
X5.4728Y-2.461
X5.4728Y-3.161
X5.5728Y-2.461
X5.5728Y-3.161
X5.6728Y-2.461
X5.6728Y-3.161
X5.7728Y-2.461
X5.7728Y-3.161
X5.8728Y-2.461
X5.8728Y-3.161
X5.9728Y-2.461
X5.9728Y-3.161
X6.0728Y-2.461
X6.0728Y-3.161
X6.1728Y-2.461
X6.1728Y-3.161
X6.2638Y-2.711
X6.2638Y-2.811
X6.2638Y-2.911
X6.2728Y-2.461
X6.2728Y-3.161
T6
X2.5819Y-2.1024
X2.5819Y-2.2024
X2.5819Y-2.3024
X2.5819Y-2.4024
X2.5819Y-2.5024
X2.5819Y-2.6024
X2.5819Y-2.7024
X2.5819Y-2.8024
X2.5819Y-2.9024
X2.5819Y-3.0024
X2.5819Y-3.1024
X2.5819Y-3.2024
X2.6819Y-3.2024
X2.7819Y-3.2024
X2.8819Y-3.2024
X2.9819Y-3.2024
X3.0819Y-3.2024
X3.1729Y-3.2024
X3.1819Y-2.1024
X3.1819Y-2.2024
X3.1819Y-2.3024
X3.1819Y-2.4024
X3.1819Y-2.5024
X3.1819Y-2.6024
X3.1819Y-2.7024
X3.1819Y-2.8024
X3.1819Y-2.9024
X3.1819Y-3.0024
X3.1819Y-3.1024
T7
X2.4661Y-3.7998
X2.4661Y-4.5498
X2.4661Y-5.6748
X2.5599Y-7.1748
X2.6536Y-6.4248
X2.6536Y-8.6748
X2.7161Y-3.6998
X2.7161Y-4.4498
X2.7161Y-5.5748
X2.8099Y-7.0748
X2.9036Y-6.3248
X2.9036Y-8.5748
X2.9349Y-7.9248
X3.1849Y-7.8248
X3.2161Y-3.7998
X3.2161Y-4.5498
X3.2161Y-5.6748
X3.4661Y-3.6998
X3.4661Y-4.4498
X3.4661Y-5.5748
X3.5911Y-6.4248
X3.7786Y-7.1748
X3.7786Y-8.6748
X3.8411Y-6.3248
X3.9661Y-3.7998
X3.9661Y-4.5498
X3.9661Y-5.6748
X4.0286Y-7.0748
X4.0286Y-8.5748
X4.1536Y-7.9248
X4.2161Y-3.6998
X4.2161Y-4.4498
X4.2161Y-5.5748
X4.3411Y-6.4248
X4.4036Y-7.8248
X4.5286Y-7.1748
X4.5911Y-6.3248
X4.7161Y-3.7998
X4.7161Y-4.5498
X4.7161Y-5.6748
X4.7786Y-7.0748
X4.9036Y-7.9248
X4.9661Y-3.6998
X4.9661Y-4.4498
X4.9661Y-5.5748
X5.0911Y-6.4248
X5.1536Y-7.8248
X5.2786Y-7.1748
X5.3411Y-6.3248
X5.4661Y-3.7998
X5.4661Y-4.5498
X5.4661Y-5.6748
X5.5286Y-7.0748
X5.6536Y-7.9248
X5.7161Y-3.6998
X5.7161Y-4.4498
X5.7161Y-5.5748
X5.8411Y-6.4248
X5.9036Y-7.8248
X6.0286Y-7.1748
X6.0911Y-6.3248
X6.2161Y-3.7998
X6.2161Y-4.5498
X6.2161Y-5.6748
X6.2786Y-7.0748
X6.4036Y-7.9248
X6.4661Y-3.6998
X6.4661Y-4.4498
X6.4661Y-5.5748
X6.5911Y-6.4248
X6.6536Y-7.8248
X6.7786Y-7.1748
X6.8411Y-6.3248
X6.9661Y-3.7998
X6.9661Y-4.5498
X6.9661Y-5.6748
X6.9661Y-8.6748
X7.0286Y-7.0748
X7.1536Y-7.9248
X7.2161Y-3.6998
X7.2161Y-4.4498
X7.2161Y-5.5748
X7.2161Y-8.5748
X7.3411Y-6.4248
X7.4036Y-7.8248
X7.5286Y-7.1748
X7.5911Y-6.3248
X7.7161Y-3.7998
X7.7161Y-4.5498
X7.7161Y-5.6748
X7.7786Y-7.0748
X7.9036Y-7.9248
X7.9661Y-3.6998
X7.9661Y-4.4498
X7.9661Y-5.5748
X8.0911Y-6.4248
X8.1536Y-7.8248
X8.2786Y-7.1748
X8.3411Y-6.3248
X8.4661Y-3.7998
X8.4661Y-4.5498
X8.4661Y-5.6748
X8.5286Y-7.0748
X8.6536Y-7.9248
X8.7161Y-3.6998
X8.7161Y-4.4498
X8.7161Y-5.5748
X8.8411Y-6.4248
X8.9036Y-7.8248
X9.0286Y-7.1748
X9.0911Y-6.3248
X9.2161Y-3.7998
X9.2161Y-4.5498
X9.2161Y-5.6748
X9.2786Y-7.0748
X9.4036Y-7.9248
X9.4661Y-3.6998
X9.4661Y-4.4498
X9.4661Y-5.5748
X9.5911Y-6.4248
X9.6536Y-7.8248
X9.7786Y-7.1748
X9.8411Y-6.3248
X9.9661Y-3.7998
X9.9661Y-4.5498
X9.9661Y-5.6748
X10.0286Y-7.0748
X10.1536Y-7.9248
X10.1536Y-8.6748
X10.2161Y-3.6998
X10.2161Y-4.4498
X10.2161Y-5.5748
X10.3411Y-6.4248
X10.4036Y-7.8248
X10.4036Y-8.5748
X10.5286Y-7.1748
X10.5911Y-6.3248
X10.7161Y-3.7998
X10.7161Y-4.5498
X10.7161Y-5.6748
X10.7786Y-7.0748
X10.9036Y-7.9248
X10.9661Y-3.6998
X10.9661Y-4.4498
X10.9661Y-5.5748
X11.0911Y-6.4248
X11.1536Y-7.8248
X11.2786Y-7.1748
X11.2786Y-8.6748
X11.3411Y-6.3248
X11.4661Y-3.7998
X11.4661Y-4.5498
X11.4661Y-5.6748
X11.5286Y-7.0748
X11.5286Y-8.5748
X11.7161Y-3.6998
X11.7161Y-4.4498
X11.7161Y-5.5748
X11.8411Y-6.4248
X11.9349Y-7.9248
X12.0911Y-6.3248
X12.1849Y-7.8248
X12.2161Y-3.7998
X12.2161Y-4.5498
X12.4661Y-3.6998
X12.4661Y-4.4498
X12.4974Y-7.1748
X12.5336Y-8.9845
X12.5911Y-5.6748
X12.7474Y-7.0748
X12.7786Y-6.4248
X12.7836Y-8.8845
X12.8411Y-5.5748
X12.9661Y-3.7998
X12.9661Y-4.5498
X13.0286Y-6.3248
X13.2161Y-3.6998
X13.2161Y-4.4498
X13.2836Y-8.2345
X13.2836Y-8.9845
X13.5336Y-8.1345
X13.5336Y-8.8845
X14.0336Y-8.9845
X14.2836Y-8.8845
X14.3256Y-2.6748
X14.3256Y-3.7998
X14.3256Y-4.5498
X14.3256Y-5.6748
X14.3256Y-6.4248
X14.3256Y-7.1748
X14.3256Y-7.9248
X14.5756Y-2.5748
X14.5756Y-3.6998
X14.5756Y-4.4498
X14.5756Y-5.5748
X14.5756Y-6.3248
X14.5756Y-7.0748
X14.5756Y-7.8248
X15.0756Y-2.6748
X15.0756Y-3.7998
X15.0756Y-4.5498
X15.0756Y-5.6748
X15.0756Y-6.4248
X15.0756Y-7.1748
X15.0756Y-7.9248
X15.0756Y-8.6748
X15.3256Y-2.5748
X15.3256Y-3.6998
X15.3256Y-4.4498
X15.3256Y-5.5748
X15.3256Y-6.3248
X15.3256Y-7.0748
X15.3256Y-7.8248
X15.3256Y-8.5748
X15.8256Y-2.6748
X15.8256Y-3.7998
X15.8256Y-4.5498
X15.8256Y-5.6748
X15.8256Y-6.4248
X15.8256Y-7.1748
X15.8256Y-7.9248
X15.8256Y-8.6748
X16.0756Y-2.5748
X16.0756Y-3.6998
X16.0756Y-4.4498
X16.0756Y-5.5748
X16.0756Y-6.3248
X16.0756Y-7.0748
X16.0756Y-7.8248
X16.0756Y-8.5748
X16.5756Y-2.6748
X16.5756Y-3.7998
X16.5756Y-4.5498
X16.5756Y-5.6748
X16.5756Y-6.4248
X16.5756Y-7.1748
X16.5756Y-8.2998
X16.8256Y-2.5748
X16.8256Y-3.6998
X16.8256Y-4.4498
X16.8256Y-5.5748
X16.8256Y-6.3248
X16.8256Y-7.0748
X16.8256Y-8.1998
M30
