M48
; DRILL file {KiCad 8.0.2} date 2024-06-15T15:47:28-0700
; FORMAT={-:-/ absolute / inch / decimal}
; #@! TF.CreationDate,2024-06-15T15:47:28-07:00
; #@! TF.GenerationSoftware,Kicad,Pcbnew,8.0.2
; #@! TF.FileFunction,NonPlated,1,2,NPTH
FMAT,2
INCH
; #@! TA.AperFunction,NonPlated,NPTH,ComponentDrill
T1C0.0591
; #@! TA.AperFunction,NonPlated,NPTH,ComponentDrill
T2C0.0689
; #@! TA.AperFunction,NonPlated,NPTH,ComponentDrill
T3C0.0709
; #@! TA.AperFunction,NonPlated,NPTH,ComponentDrill
T4C0.1200
; #@! TA.AperFunction,NonPlated,NPTH,ComponentDrill
T5C0.1570
; #@! TA.AperFunction,NonPlated,NPTH,ComponentDrill
T6C0.1693
; #@! TA.AperFunction,NonPlated,NPTH,ComponentDrill
T7C0.3307
%
G90
G05
T1
X4.4972Y-2.7156
X4.4972Y-2.9065
T2
X2.4161Y-3.8998
X2.4161Y-4.6498
X2.4161Y-5.7748
X2.5099Y-7.2748
X2.6036Y-6.5248
X2.6036Y-8.7748
X2.8161Y-3.8998
X2.8161Y-4.6498
X2.8161Y-5.7748
X2.8849Y-8.0248
X2.9099Y-7.2748
X3.0036Y-6.5248
X3.0036Y-8.7748
X3.1661Y-3.8998
X3.1661Y-4.6498
X3.1661Y-5.7748
X3.2849Y-8.0248
X3.5411Y-6.5248
X3.5661Y-3.8998
X3.5661Y-4.6498
X3.5661Y-5.7748
X3.7286Y-7.2748
X3.7286Y-8.7748
X3.9161Y-3.8998
X3.9161Y-4.6498
X3.9161Y-5.7748
X3.9411Y-6.5248
X4.1036Y-8.0248
X4.1286Y-7.2748
X4.1286Y-8.7748
X4.2911Y-6.5248
X4.3161Y-3.8998
X4.3161Y-4.6498
X4.3161Y-5.7748
X4.4786Y-7.2748
X4.5036Y-8.0248
X4.6661Y-3.8998
X4.6661Y-4.6498
X4.6661Y-5.7748
X4.6911Y-6.5248
X4.8536Y-8.0248
X4.8786Y-7.2748
X5.0411Y-6.5248
X5.0661Y-3.8998
X5.0661Y-4.6498
X5.0661Y-5.7748
X5.2286Y-7.2748
X5.2536Y-8.0248
X5.4161Y-3.8998
X5.4161Y-4.6498
X5.4161Y-5.7748
X5.4411Y-6.5248
X5.6036Y-8.0248
X5.6286Y-7.2748
X5.7911Y-6.5248
X5.8161Y-3.8998
X5.8161Y-4.6498
X5.8161Y-5.7748
X5.9786Y-7.2748
X6.0036Y-8.0248
X6.1661Y-3.8998
X6.1661Y-4.6498
X6.1661Y-5.7748
X6.1911Y-6.5248
X6.3536Y-8.0248
X6.3786Y-7.2748
X6.5411Y-6.5248
X6.5661Y-3.8998
X6.5661Y-4.6498
X6.5661Y-5.7748
X6.7286Y-7.2748
X6.7536Y-8.0248
X6.9161Y-3.8998
X6.9161Y-4.6498
X6.9161Y-5.7748
X6.9161Y-8.7748
X6.9411Y-6.5248
X7.1036Y-8.0248
X7.1286Y-7.2748
X7.2911Y-6.5248
X7.3161Y-3.8998
X7.3161Y-4.6498
X7.3161Y-5.7748
X7.3161Y-8.7748
X7.4786Y-7.2748
X7.5036Y-8.0248
X7.6661Y-3.8998
X7.6661Y-4.6498
X7.6661Y-5.7748
X7.6911Y-6.5248
X7.8536Y-8.0248
X7.8786Y-7.2748
X8.0411Y-6.5248
X8.0661Y-3.8998
X8.0661Y-4.6498
X8.0661Y-5.7748
X8.2286Y-7.2748
X8.2536Y-8.0248
X8.4161Y-3.8998
X8.4161Y-4.6498
X8.4161Y-5.7748
X8.4411Y-6.5248
X8.6036Y-8.0248
X8.6286Y-7.2748
X8.7911Y-6.5248
X8.8161Y-3.8998
X8.8161Y-4.6498
X8.8161Y-5.7748
X8.9786Y-7.2748
X9.0036Y-8.0248
X9.1661Y-3.8998
X9.1661Y-4.6498
X9.1661Y-5.7748
X9.1911Y-6.5248
X9.3536Y-8.0248
X9.3786Y-7.2748
X9.5411Y-6.5248
X9.5661Y-3.8998
X9.5661Y-4.6498
X9.5661Y-5.7748
X9.7286Y-7.2748
X9.7536Y-8.0248
X9.9161Y-3.8998
X9.9161Y-4.6498
X9.9161Y-5.7748
X9.9411Y-6.5248
X10.1036Y-8.0248
X10.1036Y-8.7748
X10.1286Y-7.2748
X10.2911Y-6.5248
X10.3161Y-3.8998
X10.3161Y-4.6498
X10.3161Y-5.7748
X10.4786Y-7.2748
X10.5036Y-8.0248
X10.5036Y-8.7748
X10.6661Y-3.8998
X10.6661Y-4.6498
X10.6661Y-5.7748
X10.6911Y-6.5248
X10.8536Y-8.0248
X10.8786Y-7.2748
X11.0411Y-6.5248
X11.0661Y-3.8998
X11.0661Y-4.6498
X11.0661Y-5.7748
X11.2286Y-7.2748
X11.2286Y-8.7748
X11.2536Y-8.0248
X11.4161Y-3.8998
X11.4161Y-4.6498
X11.4161Y-5.7748
X11.4411Y-6.5248
X11.6286Y-7.2748
X11.6286Y-8.7748
X11.7911Y-6.5248
X11.8161Y-3.8998
X11.8161Y-4.6498
X11.8161Y-5.7748
X11.8849Y-8.0248
X12.1661Y-3.8998
X12.1661Y-4.6498
X12.1911Y-6.5248
X12.2849Y-8.0248
X12.4474Y-7.2748
X12.4836Y-9.0845
X12.5411Y-5.7748
X12.5661Y-3.8998
X12.5661Y-4.6498
X12.7286Y-6.5248
X12.8474Y-7.2748
X12.8836Y-9.0845
X12.9161Y-3.8998
X12.9161Y-4.6498
X12.9411Y-5.7748
X13.1286Y-6.5248
X13.2336Y-8.3345
X13.2336Y-9.0845
X13.3161Y-3.8998
X13.3161Y-4.6498
X13.6336Y-8.3345
X13.6336Y-9.0845
X13.9836Y-9.0845
X14.2756Y-2.7748
X14.2756Y-3.8998
X14.2756Y-4.6498
X14.2756Y-5.7748
X14.2756Y-6.5248
X14.2756Y-7.2748
X14.2756Y-8.0248
X14.3836Y-9.0845
X14.6756Y-2.7748
X14.6756Y-3.8998
X14.6756Y-4.6498
X14.6756Y-5.7748
X14.6756Y-6.5248
X14.6756Y-7.2748
X14.6756Y-8.0248
X15.0256Y-2.7748
X15.0256Y-3.8998
X15.0256Y-4.6498
X15.0256Y-5.7748
X15.0256Y-6.5248
X15.0256Y-7.2748
X15.0256Y-8.0248
X15.0256Y-8.7748
X15.4256Y-2.7748
X15.4256Y-3.8998
X15.4256Y-4.6498
X15.4256Y-5.7748
X15.4256Y-6.5248
X15.4256Y-7.2748
X15.4256Y-8.0248
X15.4256Y-8.7748
X15.7756Y-2.7748
X15.7756Y-3.8998
X15.7756Y-4.6498
X15.7756Y-5.7748
X15.7756Y-6.5248
X15.7756Y-7.2748
X15.7756Y-8.0248
X15.7756Y-8.7748
X16.1756Y-2.7748
X16.1756Y-3.8998
X16.1756Y-4.6498
X16.1756Y-5.7748
X16.1756Y-6.5248
X16.1756Y-7.2748
X16.1756Y-8.0248
X16.1756Y-8.7748
X16.5256Y-2.7748
X16.5256Y-3.8998
X16.5256Y-4.6498
X16.5256Y-5.7748
X16.5256Y-6.5248
X16.5256Y-7.2748
X16.5256Y-8.3998
X16.9256Y-2.7748
X16.9256Y-3.8998
X16.9256Y-4.6498
X16.9256Y-5.7748
X16.9256Y-6.5248
X16.9256Y-7.2748
X16.9256Y-8.3998
T3
X4.378Y-2.7037
X4.378Y-2.9183
T4
X2.6161Y-7.7498
X3.5536Y-7.7498
X4.8661Y-8.4998
X4.9472Y-8.4998
X9.285Y-8.4998
X9.3661Y-8.4998
X12.1786Y-6.9998
X12.2724Y-5.4998
X13.1161Y-6.9998
X13.2099Y-5.4998
X16.4506Y-7.9311
X16.4506Y-8.8686
T5
X2.6161Y-3.8998
X2.6161Y-4.6498
X2.6161Y-5.7748
X2.6161Y-8.3498
X2.7099Y-7.2748
X2.8036Y-6.5248
X2.8036Y-8.7748
X3.0849Y-8.0248
X3.3661Y-3.8998
X3.3661Y-4.6498
X3.3661Y-5.7748
X3.5536Y-8.3498
X3.7411Y-6.5248
X3.9286Y-7.2748
X3.9286Y-8.7748
X4.1161Y-3.8998
X4.1161Y-4.6498
X4.1161Y-5.7748
X4.3036Y-8.0248
X4.4911Y-6.5248
X4.6786Y-7.2748
X4.8661Y-3.8998
X4.8661Y-4.6498
X4.8661Y-5.7748
X4.8661Y-9.0998
X4.9472Y-9.0998
X5.0536Y-8.0248
X5.2411Y-6.5248
X5.4286Y-7.2748
X5.6161Y-3.8998
X5.6161Y-4.6498
X5.6161Y-5.7748
X5.8036Y-8.0248
X5.9911Y-6.5248
X6.1786Y-7.2748
X6.3661Y-3.8998
X6.3661Y-4.6498
X6.3661Y-5.7748
X6.5536Y-8.0248
X6.7411Y-6.5248
X6.9286Y-7.2748
X7.1161Y-3.8998
X7.1161Y-4.6498
X7.1161Y-5.7748
X7.1161Y-8.7748
X7.3036Y-8.0248
X7.4911Y-6.5248
X7.6786Y-7.2748
X7.8661Y-3.8998
X7.8661Y-4.6498
X7.8661Y-5.7748
X8.0536Y-8.0248
X8.2411Y-6.5248
X8.4286Y-7.2748
X8.6161Y-3.8998
X8.6161Y-4.6498
X8.6161Y-5.7748
X8.8036Y-8.0248
X8.9911Y-6.5248
X9.1786Y-7.2748
X9.285Y-9.0998
X9.3661Y-3.8998
X9.3661Y-4.6498
X9.3661Y-5.7748
X9.3661Y-9.0998
X9.5536Y-8.0248
X9.7411Y-6.5248
X9.9286Y-7.2748
X10.1161Y-3.8998
X10.1161Y-4.6498
X10.1161Y-5.7748
X10.3036Y-8.0248
X10.3036Y-8.7748
X10.4911Y-6.5248
X10.6786Y-7.2748
X10.8661Y-3.8998
X10.8661Y-4.6498
X10.8661Y-5.7748
X11.0536Y-8.0248
X11.2411Y-6.5248
X11.4286Y-7.2748
X11.4286Y-8.7748
X11.6161Y-3.8998
X11.6161Y-4.6498
X11.6161Y-5.7748
X11.9911Y-6.5248
X12.0849Y-8.0248
X12.1786Y-7.5998
X12.2724Y-6.0998
X12.3661Y-3.8998
X12.3661Y-4.6498
X12.6474Y-7.2748
X12.6836Y-9.0845
X12.7411Y-5.7748
X12.9286Y-6.5248
X13.1161Y-3.8998
X13.1161Y-4.6498
X13.1161Y-7.5998
X13.2099Y-6.0998
X13.4336Y-8.3345
X13.4336Y-9.0845
X14.1836Y-9.0845
X14.4756Y-2.7748
X14.4756Y-3.8998
X14.4756Y-4.6498
X14.4756Y-5.7748
X14.4756Y-6.5248
X14.4756Y-7.2748
X14.4756Y-8.0248
X15.2256Y-2.7748
X15.2256Y-3.8998
X15.2256Y-4.6498
X15.2256Y-5.7748
X15.2256Y-6.5248
X15.2256Y-7.2748
X15.2256Y-8.0248
X15.2256Y-8.7748
X15.9756Y-2.7748
X15.9756Y-3.8998
X15.9756Y-4.6498
X15.9756Y-5.7748
X15.9756Y-6.5248
X15.9756Y-7.2748
X15.9756Y-8.0248
X15.9756Y-8.7748
X16.7256Y-2.7748
X16.7256Y-3.8998
X16.7256Y-4.6498
X16.7256Y-5.7748
X16.7256Y-6.5248
X16.7256Y-7.2748
X16.7256Y-8.3998
X17.0506Y-7.9311
X17.0506Y-8.8686
T6
X3.3465Y-2.6551
X6.7461Y-5.2404
X8.8921Y-2.1055
X13.8012Y-3.9101
X13.8012Y-6.9023
T7
X2.3669Y-5.2169
M30
