%TF.GenerationSoftware,KiCad,Pcbnew,8.0.2*%
%TF.CreationDate,2024-06-15T15:47:28-07:00*%
%TF.ProjectId,dimension-PCB,64696d65-6e73-4696-9f6e-2d5043422e6b,rev?*%
%TF.SameCoordinates,Original*%
%TF.FileFunction,Soldermask,Bot*%
%TF.FilePolarity,Negative*%
%FSLAX46Y46*%
G04 Gerber Fmt 4.6, Leading zero omitted, Abs format (unit mm)*
G04 Created by KiCad (PCBNEW 8.0.2) date 2024-06-15 15:47:28*
%MOMM*%
%LPD*%
G01*
G04 APERTURE LIST*
G04 Aperture macros list*
%AMRoundRect*
0 Rectangle with rounded corners*
0 $1 Rounding radius*
0 $2 $3 $4 $5 $6 $7 $8 $9 X,Y pos of 4 corners*
0 Add a 4 corners polygon primitive as box body*
4,1,4,$2,$3,$4,$5,$6,$7,$8,$9,$2,$3,0*
0 Add four circle primitives for the rounded corners*
1,1,$1+$1,$2,$3*
1,1,$1+$1,$4,$5*
1,1,$1+$1,$6,$7*
1,1,$1+$1,$8,$9*
0 Add four rect primitives between the rounded corners*
20,1,$1+$1,$2,$3,$4,$5,0*
20,1,$1+$1,$4,$5,$6,$7,0*
20,1,$1+$1,$6,$7,$8,$9,0*
20,1,$1+$1,$8,$9,$2,$3,0*%
G04 Aperture macros list end*
%ADD10C,1.750000*%
%ADD11C,3.987800*%
%ADD12C,2.300000*%
%ADD13R,1.800000X1.800000*%
%ADD14C,1.800000*%
%ADD15C,4.300000*%
%ADD16C,1.600000*%
%ADD17O,1.600000X1.600000*%
%ADD18C,3.048000*%
%ADD19C,8.400000*%
%ADD20RoundRect,0.225000X0.375000X-0.225000X0.375000X0.225000X-0.375000X0.225000X-0.375000X-0.225000X0*%
%ADD21RoundRect,0.200000X0.275000X-0.200000X0.275000X0.200000X-0.275000X0.200000X-0.275000X-0.200000X0*%
%ADD22R,1.752600X1.752600*%
%ADD23C,1.752600*%
%ADD24O,1.800000X1.800000*%
%ADD25O,1.500000X1.500000*%
%ADD26O,1.700000X1.700000*%
%ADD27R,1.700000X3.500000*%
%ADD28R,1.700000X1.700000*%
%ADD29R,3.500000X1.700000*%
%ADD30RoundRect,0.225000X-0.225000X-0.375000X0.225000X-0.375000X0.225000X0.375000X-0.225000X0.375000X0*%
G04 APERTURE END LIST*
D10*
%TO.C,MX127*%
X419750000Y-184780000D03*
D11*
X424830000Y-184780000D03*
D10*
X429910000Y-184780000D03*
D12*
X421020000Y-182240000D03*
X427370000Y-179700000D03*
%TD*%
D10*
%TO.C,MX4*%
X80420000Y-118105000D03*
D11*
X85500000Y-118105000D03*
D10*
X90580000Y-118105000D03*
D12*
X81690000Y-115565000D03*
X88040000Y-113025000D03*
%TD*%
D10*
%TO.C,MX103*%
X381650000Y-146680000D03*
D11*
X386730000Y-146680000D03*
D10*
X391810000Y-146680000D03*
D12*
X382920000Y-144140000D03*
X389270000Y-141600000D03*
%TD*%
D10*
%TO.C,MX62*%
X242345000Y-165730000D03*
D11*
X247425000Y-165730000D03*
D10*
X252505000Y-165730000D03*
D12*
X243615000Y-163190000D03*
X249965000Y-160650000D03*
%TD*%
D10*
%TO.C,MX82*%
X318545000Y-146680000D03*
D11*
X323625000Y-146680000D03*
D10*
X328705000Y-146680000D03*
D12*
X319815000Y-144140000D03*
X326165000Y-141600000D03*
%TD*%
D10*
%TO.C,MX78*%
X309020000Y-99055000D03*
D11*
X314100000Y-99055000D03*
D10*
X319180000Y-99055000D03*
D12*
X310290000Y-96515000D03*
X316640000Y-93975000D03*
%TD*%
D10*
%TO.C,MX43*%
X161382500Y-203830000D03*
D11*
X166462500Y-203830000D03*
D10*
X171542500Y-203830000D03*
D12*
X162652500Y-201290000D03*
X169002500Y-198750000D03*
%TD*%
D10*
%TO.C,MX104*%
X381650000Y-165730000D03*
D11*
X386730000Y-165730000D03*
D10*
X391810000Y-165730000D03*
D12*
X382920000Y-163190000D03*
X389270000Y-160650000D03*
%TD*%
D10*
%TO.C,MX106*%
X381650000Y-203830000D03*
D11*
X386730000Y-203830000D03*
D10*
X391810000Y-203830000D03*
D12*
X382920000Y-201290000D03*
X389270000Y-198750000D03*
%TD*%
%TO.C,MX87*%
X324702500Y-225667500D03*
X318352500Y-228207500D03*
D10*
X327242500Y-230747500D03*
D11*
X322162500Y-230747500D03*
D10*
X317082500Y-230747500D03*
%TD*%
%TO.C,MX7*%
X89945000Y-165730000D03*
D11*
X95025000Y-165730000D03*
D10*
X100105000Y-165730000D03*
D12*
X91215000Y-163190000D03*
X97565000Y-160650000D03*
%TD*%
D10*
%TO.C,MX28*%
X147095000Y-165730000D03*
D11*
X152175000Y-165730000D03*
D10*
X157255000Y-165730000D03*
D12*
X148365000Y-163190000D03*
X154715000Y-160650000D03*
%TD*%
D10*
%TO.C,MX118*%
X400700000Y-222880000D03*
D11*
X405780000Y-222880000D03*
D10*
X410860000Y-222880000D03*
D12*
X401970000Y-220340000D03*
X408320000Y-217800000D03*
%TD*%
D10*
%TO.C,MX3*%
X61370000Y-118105000D03*
D11*
X66450000Y-118105000D03*
D10*
X71530000Y-118105000D03*
D12*
X62640000Y-115565000D03*
X68990000Y-113025000D03*
%TD*%
D10*
%TO.C,MX24*%
X137570000Y-99055000D03*
D11*
X142650000Y-99055000D03*
D10*
X147730000Y-99055000D03*
D12*
X138840000Y-96515000D03*
X145190000Y-93975000D03*
%TD*%
D10*
%TO.C,MX92*%
X362600000Y-118105000D03*
D11*
X367680000Y-118105000D03*
D10*
X372760000Y-118105000D03*
D12*
X363870000Y-115565000D03*
X370220000Y-113025000D03*
%TD*%
D10*
%TO.C,MX66*%
X237582500Y-203830000D03*
D11*
X242662500Y-203830000D03*
D10*
X247742500Y-203830000D03*
D12*
X238852500Y-201290000D03*
X245202500Y-198750000D03*
%TD*%
D10*
%TO.C,MX86*%
X301876250Y-203830000D03*
D11*
X306956250Y-203830000D03*
D10*
X312036250Y-203830000D03*
D12*
X303146250Y-201290000D03*
X309496250Y-198750000D03*
%TD*%
D10*
%TO.C,MX72*%
X261395000Y-165730000D03*
D11*
X266475000Y-165730000D03*
D10*
X271555000Y-165730000D03*
D12*
X262665000Y-163190000D03*
X269015000Y-160650000D03*
%TD*%
D10*
%TO.C,MX102*%
X381650000Y-118105000D03*
D11*
X386730000Y-118105000D03*
D10*
X391810000Y-118105000D03*
D12*
X382920000Y-115565000D03*
X389270000Y-113025000D03*
%TD*%
D10*
%TO.C,MX6*%
X61370000Y-146680000D03*
D11*
X66450000Y-146680000D03*
D10*
X71530000Y-146680000D03*
D12*
X62640000Y-144140000D03*
X68990000Y-141600000D03*
%TD*%
D10*
%TO.C,MX94*%
X362600000Y-146680000D03*
D11*
X367680000Y-146680000D03*
D10*
X372760000Y-146680000D03*
D12*
X363870000Y-144140000D03*
X370220000Y-141600000D03*
%TD*%
D10*
%TO.C,MX53*%
X209007500Y-184780000D03*
D11*
X214087500Y-184780000D03*
D10*
X219167500Y-184780000D03*
D12*
X210277500Y-182240000D03*
X216627500Y-179700000D03*
%TD*%
D10*
%TO.C,MX51*%
X223295000Y-165730000D03*
D11*
X228375000Y-165730000D03*
D10*
X233455000Y-165730000D03*
D12*
X224565000Y-163190000D03*
X230915000Y-160650000D03*
%TD*%
D10*
%TO.C,MX95*%
X362600000Y-165730000D03*
D11*
X367680000Y-165730000D03*
D10*
X372760000Y-165730000D03*
D12*
X363870000Y-163190000D03*
X370220000Y-160650000D03*
%TD*%
D10*
%TO.C,MX80*%
X309020000Y-118105000D03*
D11*
X314100000Y-118105000D03*
D10*
X319180000Y-118105000D03*
D12*
X310290000Y-115565000D03*
X316640000Y-113025000D03*
%TD*%
D10*
%TO.C,MX56*%
X251870000Y-99055000D03*
D11*
X256950000Y-99055000D03*
D10*
X262030000Y-99055000D03*
D12*
X253140000Y-96515000D03*
X259490000Y-93975000D03*
%TD*%
D10*
%TO.C,MX126*%
X419750000Y-165730000D03*
D11*
X424830000Y-165730000D03*
D10*
X429910000Y-165730000D03*
D12*
X421020000Y-163190000D03*
X427370000Y-160650000D03*
%TD*%
D10*
%TO.C,MX123*%
X419750000Y-99055000D03*
D11*
X424830000Y-99055000D03*
D10*
X429910000Y-99055000D03*
D12*
X421020000Y-96515000D03*
X427370000Y-93975000D03*
%TD*%
D10*
%TO.C,MX100*%
X381650000Y-70480000D03*
D11*
X386730000Y-70480000D03*
D10*
X391810000Y-70480000D03*
D12*
X382920000Y-67940000D03*
X389270000Y-65400000D03*
%TD*%
D10*
%TO.C,MX8*%
X66132500Y-165730000D03*
D11*
X71212500Y-165730000D03*
D10*
X76292500Y-165730000D03*
D12*
X67402500Y-163190000D03*
X73752500Y-160650000D03*
%TD*%
D10*
%TO.C,MX40*%
X189957500Y-184780000D03*
D11*
X195037500Y-184780000D03*
D10*
X200117500Y-184780000D03*
D12*
X191227500Y-182240000D03*
X197577500Y-179700000D03*
%TD*%
D10*
%TO.C,MX114*%
X400700000Y-146680000D03*
D11*
X405780000Y-146680000D03*
D10*
X410860000Y-146680000D03*
D12*
X401970000Y-144140000D03*
X408320000Y-141600000D03*
%TD*%
D10*
%TO.C,MX111*%
X400700000Y-70480000D03*
D11*
X405780000Y-70480000D03*
D10*
X410860000Y-70480000D03*
D12*
X401970000Y-67940000D03*
X408320000Y-65400000D03*
%TD*%
D10*
%TO.C,MX41*%
X170907500Y-184780000D03*
D11*
X175987500Y-184780000D03*
D10*
X181067500Y-184780000D03*
D12*
X172177500Y-182240000D03*
X178527500Y-179700000D03*
%TD*%
D10*
%TO.C,MX63*%
X247107500Y-184780000D03*
D11*
X252187500Y-184780000D03*
D10*
X257267500Y-184780000D03*
D12*
X248377500Y-182240000D03*
X254727500Y-179700000D03*
%TD*%
D10*
%TO.C,MX15*%
X99470000Y-118105000D03*
D11*
X104550000Y-118105000D03*
D10*
X109630000Y-118105000D03*
D12*
X100740000Y-115565000D03*
X107090000Y-113025000D03*
%TD*%
D10*
%TO.C,MX48*%
X194720000Y-118105000D03*
D11*
X199800000Y-118105000D03*
D10*
X204880000Y-118105000D03*
D12*
X195990000Y-115565000D03*
X202340000Y-113025000D03*
%TD*%
D10*
%TO.C,MX125*%
X419750000Y-146680000D03*
D11*
X424830000Y-146680000D03*
D10*
X429910000Y-146680000D03*
D12*
X421020000Y-144140000D03*
X427370000Y-141600000D03*
%TD*%
D10*
%TO.C,MX55*%
X199482500Y-203830000D03*
D11*
X204562500Y-203830000D03*
D10*
X209642500Y-203830000D03*
D12*
X200752500Y-201290000D03*
X207102500Y-198750000D03*
%TD*%
D13*
%TO.C,LED1*%
X85700000Y-184780000D03*
D14*
X83160000Y-184780000D03*
%TD*%
D10*
%TO.C,MX73*%
X285207500Y-184780000D03*
D11*
X290287500Y-184780000D03*
D10*
X295367500Y-184780000D03*
D12*
X286477500Y-182240000D03*
X292827500Y-179700000D03*
%TD*%
D15*
%TO.C,H3*%
X350550000Y-99317500D03*
%TD*%
D10*
%TO.C,MX89*%
X362600000Y-70480000D03*
D11*
X367680000Y-70480000D03*
D10*
X372760000Y-70480000D03*
D12*
X363870000Y-67940000D03*
X370220000Y-65400000D03*
%TD*%
D10*
%TO.C,MX27*%
X137570000Y-146680000D03*
D11*
X142650000Y-146680000D03*
D10*
X147730000Y-146680000D03*
D12*
X138840000Y-144140000D03*
X145190000Y-141600000D03*
%TD*%
D10*
%TO.C,MX50*%
X194720000Y-146680000D03*
D11*
X199800000Y-146680000D03*
D10*
X204880000Y-146680000D03*
D12*
X195990000Y-144140000D03*
X202340000Y-141600000D03*
%TD*%
D10*
%TO.C,MX17*%
X118520000Y-146680000D03*
D11*
X123600000Y-146680000D03*
D10*
X128680000Y-146680000D03*
D12*
X119790000Y-144140000D03*
X126140000Y-141600000D03*
%TD*%
D10*
%TO.C,MX42*%
X180432500Y-203830000D03*
D11*
X185512500Y-203830000D03*
D10*
X190592500Y-203830000D03*
D12*
X181702500Y-201290000D03*
X188052500Y-198750000D03*
%TD*%
%TO.C,MX88*%
X343752500Y-225667500D03*
X337402500Y-228207500D03*
D10*
X346292500Y-230747500D03*
D11*
X341212500Y-230747500D03*
D10*
X336132500Y-230747500D03*
%TD*%
%TO.C,MX83*%
X323307500Y-165730000D03*
D11*
X328387500Y-165730000D03*
D10*
X333467500Y-165730000D03*
D12*
X324577500Y-163190000D03*
X330927500Y-160650000D03*
%TD*%
D10*
%TO.C,MX31*%
X132807500Y-184780000D03*
D11*
X137887500Y-184780000D03*
D10*
X142967500Y-184780000D03*
D12*
X134077500Y-182240000D03*
X140427500Y-179700000D03*
%TD*%
D10*
%TO.C,MX60*%
X251870000Y-146680000D03*
D11*
X256950000Y-146680000D03*
D10*
X262030000Y-146680000D03*
D12*
X253140000Y-144140000D03*
X259490000Y-141600000D03*
%TD*%
D10*
%TO.C,MX128*%
X419750000Y-213355000D03*
D11*
X424830000Y-213355000D03*
D10*
X429910000Y-213355000D03*
D12*
X421020000Y-210815000D03*
X427370000Y-208275000D03*
%TD*%
D10*
%TO.C,MX1*%
X80420000Y-99055000D03*
D11*
X85500000Y-99055000D03*
D10*
X90580000Y-99055000D03*
D12*
X81690000Y-96515000D03*
X88040000Y-93975000D03*
%TD*%
D10*
%TO.C,MX30*%
X151857500Y-184780000D03*
D11*
X156937500Y-184780000D03*
D10*
X162017500Y-184780000D03*
D12*
X153127500Y-182240000D03*
X159477500Y-179700000D03*
%TD*%
D16*
%TO.C,R2*%
X90600000Y-188020000D03*
D17*
X90600000Y-180400000D03*
%TD*%
D10*
%TO.C,MX23*%
X156620000Y-99055000D03*
D11*
X161700000Y-99055000D03*
D10*
X166780000Y-99055000D03*
D12*
X157890000Y-96515000D03*
X164240000Y-93975000D03*
%TD*%
D10*
%TO.C,MX57*%
X232820000Y-99055000D03*
D11*
X237900000Y-99055000D03*
D10*
X242980000Y-99055000D03*
D12*
X234090000Y-96515000D03*
X240440000Y-93975000D03*
%TD*%
D18*
%TO.C,LSHFTSTAB1*%
X66450000Y-196845000D03*
D11*
X66450000Y-212085000D03*
D18*
X90262500Y-196845000D03*
D11*
X90262500Y-212085000D03*
%TD*%
D10*
%TO.C,MX74*%
X266157500Y-184780000D03*
D11*
X271237500Y-184780000D03*
D10*
X276317500Y-184780000D03*
D12*
X267427500Y-182240000D03*
X273777500Y-179700000D03*
%TD*%
D10*
%TO.C,MX58*%
X251870000Y-118105000D03*
D11*
X256950000Y-118105000D03*
D10*
X262030000Y-118105000D03*
D12*
X253140000Y-115565000D03*
X259490000Y-113025000D03*
%TD*%
D10*
%TO.C,MX97*%
X362600000Y-203830000D03*
D11*
X367680000Y-203830000D03*
D10*
X372760000Y-203830000D03*
D12*
X363870000Y-201290000D03*
X370220000Y-198750000D03*
%TD*%
D10*
%TO.C,MX29*%
X128045000Y-165730000D03*
D11*
X133125000Y-165730000D03*
D10*
X138205000Y-165730000D03*
D12*
X129315000Y-163190000D03*
X135665000Y-160650000D03*
%TD*%
D10*
%TO.C,MX49*%
X213770000Y-146680000D03*
D11*
X218850000Y-146680000D03*
D10*
X223930000Y-146680000D03*
D12*
X215040000Y-144140000D03*
X221390000Y-141600000D03*
%TD*%
D10*
%TO.C,MX84*%
X299495000Y-165730000D03*
D11*
X304575000Y-165730000D03*
D10*
X309655000Y-165730000D03*
D12*
X300765000Y-163190000D03*
X307115000Y-160650000D03*
%TD*%
D10*
%TO.C,MX26*%
X156620000Y-118105000D03*
D11*
X161700000Y-118105000D03*
D10*
X166780000Y-118105000D03*
D12*
X157890000Y-115565000D03*
X164240000Y-113025000D03*
%TD*%
D10*
%TO.C,MX113*%
X400700000Y-118105000D03*
D11*
X405780000Y-118105000D03*
D10*
X410860000Y-118105000D03*
D12*
X401970000Y-115565000D03*
X408320000Y-113025000D03*
%TD*%
D15*
%TO.C,H4*%
X350550000Y-175317500D03*
%TD*%
D10*
%TO.C,MX107*%
X381650000Y-222880000D03*
D11*
X386730000Y-222880000D03*
D10*
X391810000Y-222880000D03*
D12*
X382920000Y-220340000D03*
X389270000Y-217800000D03*
%TD*%
D10*
%TO.C,MX67*%
X270920000Y-99055000D03*
D11*
X276000000Y-99055000D03*
D10*
X281080000Y-99055000D03*
D12*
X272190000Y-96515000D03*
X278540000Y-93975000D03*
%TD*%
D10*
%TO.C,MX65*%
X256632500Y-203830000D03*
D11*
X261712500Y-203830000D03*
D10*
X266792500Y-203830000D03*
D12*
X257902500Y-201290000D03*
X264252500Y-198750000D03*
%TD*%
D10*
%TO.C,MX37*%
X156620000Y-146680000D03*
D11*
X161700000Y-146680000D03*
D10*
X166780000Y-146680000D03*
D12*
X157890000Y-144140000D03*
X164240000Y-141600000D03*
%TD*%
D10*
%TO.C,MX91*%
X328070000Y-99055000D03*
D11*
X333150000Y-99055000D03*
D10*
X338230000Y-99055000D03*
D12*
X329340000Y-96515000D03*
X335690000Y-93975000D03*
%TD*%
D10*
%TO.C,MX112*%
X400700000Y-99055000D03*
D11*
X405780000Y-99055000D03*
D10*
X410860000Y-99055000D03*
D12*
X401970000Y-96515000D03*
X408320000Y-93975000D03*
%TD*%
D10*
%TO.C,MX34*%
X175670000Y-99055000D03*
D11*
X180750000Y-99055000D03*
D10*
X185830000Y-99055000D03*
D12*
X176940000Y-96515000D03*
X183290000Y-93975000D03*
%TD*%
D10*
%TO.C,MX52*%
X204245000Y-165730000D03*
D11*
X209325000Y-165730000D03*
D10*
X214405000Y-165730000D03*
D12*
X205515000Y-163190000D03*
X211865000Y-160650000D03*
%TD*%
D18*
%TO.C,ENTSTAB1*%
X309337500Y-177795000D03*
D11*
X309337500Y-193035000D03*
D18*
X333150000Y-177795000D03*
D11*
X333150000Y-193035000D03*
%TD*%
D10*
%TO.C,MX69*%
X289970000Y-146680000D03*
D11*
X295050000Y-146680000D03*
D10*
X300130000Y-146680000D03*
D12*
X291240000Y-144140000D03*
X297590000Y-141600000D03*
%TD*%
D10*
%TO.C,MX96*%
X362600000Y-184780000D03*
D11*
X367680000Y-184780000D03*
D10*
X372760000Y-184780000D03*
D12*
X363870000Y-182240000D03*
X370220000Y-179700000D03*
%TD*%
D10*
%TO.C,MX18*%
X108995000Y-165730000D03*
D11*
X114075000Y-165730000D03*
D10*
X119155000Y-165730000D03*
D12*
X110265000Y-163190000D03*
X116615000Y-160650000D03*
%TD*%
D10*
%TO.C,MX22*%
X94707500Y-222880000D03*
D11*
X99787500Y-222880000D03*
D10*
X104867500Y-222880000D03*
D12*
X95977500Y-220340000D03*
X102327500Y-217800000D03*
%TD*%
D10*
%TO.C,MX85*%
X316163750Y-184780000D03*
D11*
X321243750Y-184780000D03*
D10*
X326323750Y-184780000D03*
D12*
X317433750Y-182240000D03*
X323783750Y-179700000D03*
%TD*%
D15*
%TO.C,H6*%
X85000000Y-67440000D03*
%TD*%
D10*
%TO.C,MX12*%
X99470000Y-99055000D03*
D11*
X104550000Y-99055000D03*
D10*
X109630000Y-99055000D03*
D12*
X100740000Y-96515000D03*
X107090000Y-93975000D03*
%TD*%
D10*
%TO.C,MX81*%
X289970000Y-118105000D03*
D11*
X295050000Y-118105000D03*
D10*
X300130000Y-118105000D03*
D12*
X291240000Y-115565000D03*
X297590000Y-113025000D03*
%TD*%
%TO.C,MX99*%
X362802500Y-225667500D03*
X356452500Y-228207500D03*
D10*
X365342500Y-230747500D03*
D11*
X360262500Y-230747500D03*
D10*
X355182500Y-230747500D03*
%TD*%
%TO.C,MX2*%
X61370000Y-99055000D03*
D11*
X66450000Y-99055000D03*
D10*
X71530000Y-99055000D03*
D12*
X62640000Y-96515000D03*
X68990000Y-93975000D03*
%TD*%
D10*
%TO.C,MX32*%
X142332500Y-203830000D03*
D11*
X147412500Y-203830000D03*
D10*
X152492500Y-203830000D03*
D12*
X143602500Y-201290000D03*
X149952500Y-198750000D03*
%TD*%
D10*
%TO.C,MX124*%
X419750000Y-118105000D03*
D11*
X424830000Y-118105000D03*
D10*
X429910000Y-118105000D03*
D12*
X421020000Y-115565000D03*
X427370000Y-113025000D03*
%TD*%
D10*
%TO.C,MX46*%
X194720000Y-99055000D03*
D11*
X199800000Y-99055000D03*
D10*
X204880000Y-99055000D03*
D12*
X195990000Y-96515000D03*
X202340000Y-93975000D03*
%TD*%
D10*
%TO.C,MX77*%
X256632500Y-222880000D03*
D11*
X261712500Y-222880000D03*
D10*
X266792500Y-222880000D03*
D12*
X257902500Y-220340000D03*
X264252500Y-217800000D03*
%TD*%
D10*
%TO.C,MX117*%
X400700000Y-203830000D03*
D11*
X405780000Y-203830000D03*
D10*
X410860000Y-203830000D03*
D12*
X401970000Y-201290000D03*
X408320000Y-198750000D03*
%TD*%
D10*
%TO.C,MX10*%
X73276250Y-203830000D03*
D11*
X78356250Y-203830000D03*
D10*
X83436250Y-203830000D03*
D12*
X74546250Y-201290000D03*
X80896250Y-198750000D03*
%TD*%
D10*
%TO.C,MX68*%
X270920000Y-118105000D03*
D11*
X276000000Y-118105000D03*
D10*
X281080000Y-118105000D03*
D12*
X272190000Y-115565000D03*
X278540000Y-113025000D03*
%TD*%
D10*
%TO.C,MX59*%
X232820000Y-118105000D03*
D11*
X237900000Y-118105000D03*
D10*
X242980000Y-118105000D03*
D12*
X234090000Y-115565000D03*
X240440000Y-113025000D03*
%TD*%
D10*
%TO.C,MX20*%
X94707500Y-184780000D03*
D11*
X99787500Y-184780000D03*
D10*
X104867500Y-184780000D03*
D12*
X95977500Y-182240000D03*
X102327500Y-179700000D03*
%TD*%
D10*
%TO.C,MX79*%
X289970000Y-99055000D03*
D11*
X295050000Y-99055000D03*
D10*
X300130000Y-99055000D03*
D12*
X291240000Y-96515000D03*
X297590000Y-93975000D03*
%TD*%
D18*
%TO.C,BSPCSTAB1*%
X311718750Y-139695000D03*
D11*
X311718750Y-154935000D03*
D18*
X335531250Y-139695000D03*
D11*
X335531250Y-154935000D03*
%TD*%
D10*
%TO.C,MX70*%
X270920000Y-146680000D03*
D11*
X276000000Y-146680000D03*
D10*
X281080000Y-146680000D03*
D12*
X272190000Y-144140000D03*
X278540000Y-141600000D03*
%TD*%
D10*
%TO.C,MX101*%
X381650000Y-99055000D03*
D11*
X386730000Y-99055000D03*
D10*
X391810000Y-99055000D03*
D12*
X382920000Y-96515000D03*
X389270000Y-93975000D03*
%TD*%
D10*
%TO.C,MX122*%
X419750000Y-70480000D03*
D11*
X424830000Y-70480000D03*
D10*
X429910000Y-70480000D03*
D12*
X421020000Y-67940000D03*
X427370000Y-65400000D03*
%TD*%
D10*
%TO.C,MX45*%
X213770000Y-99055000D03*
D11*
X218850000Y-99055000D03*
D10*
X223930000Y-99055000D03*
D12*
X215040000Y-96515000D03*
X221390000Y-93975000D03*
%TD*%
D10*
%TO.C,MX44*%
X175670000Y-222880000D03*
D11*
X180750000Y-222880000D03*
D10*
X185830000Y-222880000D03*
D12*
X176940000Y-220340000D03*
X183290000Y-217800000D03*
%TD*%
D10*
%TO.C,MX38*%
X185195000Y-165730000D03*
D11*
X190275000Y-165730000D03*
D10*
X195355000Y-165730000D03*
D12*
X186465000Y-163190000D03*
X192815000Y-160650000D03*
%TD*%
D10*
%TO.C,MX11*%
X66132500Y-222880000D03*
D11*
X71212500Y-222880000D03*
D10*
X76292500Y-222880000D03*
D12*
X67402500Y-220340000D03*
X73752500Y-217800000D03*
%TD*%
D10*
%TO.C,MX19*%
X113757500Y-184780000D03*
D11*
X118837500Y-184780000D03*
D10*
X123917500Y-184780000D03*
D12*
X115027500Y-182240000D03*
X121377500Y-179700000D03*
%TD*%
D10*
%TO.C,MX36*%
X175670000Y-146680000D03*
D11*
X180750000Y-146680000D03*
D10*
X185830000Y-146680000D03*
D12*
X176940000Y-144140000D03*
X183290000Y-141600000D03*
%TD*%
D10*
%TO.C,MX116*%
X400700000Y-184780000D03*
D11*
X405780000Y-184780000D03*
D10*
X410860000Y-184780000D03*
D12*
X401970000Y-182240000D03*
X408320000Y-179700000D03*
%TD*%
D10*
%TO.C,MX71*%
X280445000Y-165730000D03*
D11*
X285525000Y-165730000D03*
D10*
X290605000Y-165730000D03*
D12*
X281715000Y-163190000D03*
X288065000Y-160650000D03*
%TD*%
D18*
%TO.C,SPACESTAB1*%
X123600000Y-215895000D03*
D11*
X123600000Y-231135000D03*
D18*
X125660000Y-215895000D03*
D11*
X125660000Y-231135000D03*
D18*
X235840000Y-215895000D03*
D11*
X235840000Y-231135000D03*
D18*
X237900000Y-215895000D03*
D11*
X237900000Y-231135000D03*
%TD*%
D10*
%TO.C,MX39*%
X166145000Y-165730000D03*
D11*
X171225000Y-165730000D03*
D10*
X176305000Y-165730000D03*
D12*
X167415000Y-163190000D03*
X173765000Y-160650000D03*
%TD*%
%TO.C,MX98*%
X343752500Y-206617500D03*
X337402500Y-209157500D03*
D10*
X346292500Y-211697500D03*
D11*
X341212500Y-211697500D03*
D10*
X336132500Y-211697500D03*
%TD*%
%TO.C,MX75*%
X275682500Y-203830000D03*
D11*
X280762500Y-203830000D03*
D10*
X285842500Y-203830000D03*
D12*
X276952500Y-201290000D03*
X283302500Y-198750000D03*
%TD*%
D10*
%TO.C,MX64*%
X228057500Y-184780000D03*
D11*
X233137500Y-184780000D03*
D10*
X238217500Y-184780000D03*
D12*
X229327500Y-182240000D03*
X235677500Y-179700000D03*
%TD*%
D10*
%TO.C,MX115*%
X400700000Y-165730000D03*
D11*
X405780000Y-165730000D03*
D10*
X410860000Y-165730000D03*
D12*
X401970000Y-163190000D03*
X408320000Y-160650000D03*
%TD*%
D19*
%TO.C,H1*%
X60120000Y-132510000D03*
%TD*%
D10*
%TO.C,MX76*%
X285207500Y-222880000D03*
D11*
X290287500Y-222880000D03*
D10*
X295367500Y-222880000D03*
D12*
X286477500Y-220340000D03*
X292827500Y-217800000D03*
%TD*%
D10*
%TO.C,MX14*%
X118520000Y-118105000D03*
D11*
X123600000Y-118105000D03*
D10*
X128680000Y-118105000D03*
D12*
X119790000Y-115565000D03*
X126140000Y-113025000D03*
%TD*%
D10*
%TO.C,MX35*%
X175670000Y-118105000D03*
D11*
X180750000Y-118105000D03*
D10*
X185830000Y-118105000D03*
D12*
X176940000Y-115565000D03*
X183290000Y-113025000D03*
%TD*%
D10*
%TO.C,MX90*%
X362600000Y-99055000D03*
D11*
X367680000Y-99055000D03*
D10*
X372760000Y-99055000D03*
D12*
X363870000Y-96515000D03*
X370220000Y-93975000D03*
%TD*%
D18*
%TO.C,NUMENTSTAB1*%
X417845000Y-225261250D03*
D11*
X433085000Y-225261250D03*
D18*
X417845000Y-201448750D03*
D11*
X433085000Y-201448750D03*
%TD*%
D15*
%TO.C,H5*%
X171350000Y-133105000D03*
%TD*%
D10*
%TO.C,MX61*%
X232820000Y-146680000D03*
D11*
X237900000Y-146680000D03*
D10*
X242980000Y-146680000D03*
D12*
X234090000Y-144140000D03*
X240440000Y-141600000D03*
%TD*%
D10*
%TO.C,MX13*%
X118520000Y-99055000D03*
D11*
X123600000Y-99055000D03*
D10*
X128680000Y-99055000D03*
D12*
X119790000Y-96515000D03*
X126140000Y-93975000D03*
%TD*%
D10*
%TO.C,MX16*%
X99470000Y-146680000D03*
D11*
X104550000Y-146680000D03*
D10*
X109630000Y-146680000D03*
D12*
X100740000Y-144140000D03*
X107090000Y-141600000D03*
%TD*%
D15*
%TO.C,H2*%
X225860000Y-53480000D03*
%TD*%
D10*
%TO.C,MX5*%
X80420000Y-146680000D03*
D11*
X85500000Y-146680000D03*
D10*
X90580000Y-146680000D03*
D12*
X81690000Y-144140000D03*
X88040000Y-141600000D03*
%TD*%
D10*
%TO.C,MX33*%
X123282500Y-203830000D03*
D11*
X128362500Y-203830000D03*
D10*
X133442500Y-203830000D03*
D12*
X124552500Y-201290000D03*
X130902500Y-198750000D03*
%TD*%
D10*
%TO.C,MX93*%
X328070000Y-118105000D03*
D11*
X333150000Y-118105000D03*
D10*
X338230000Y-118105000D03*
D12*
X329340000Y-115565000D03*
X335690000Y-113025000D03*
%TD*%
D10*
%TO.C,MX105*%
X381650000Y-184780000D03*
D11*
X386730000Y-184780000D03*
D10*
X391810000Y-184780000D03*
D12*
X382920000Y-182240000D03*
X389270000Y-179700000D03*
%TD*%
D10*
%TO.C,MX9*%
X63751250Y-184780000D03*
D11*
X68831250Y-184780000D03*
D10*
X73911250Y-184780000D03*
D12*
X65021250Y-182240000D03*
X71371250Y-179700000D03*
%TD*%
D10*
%TO.C,MX21*%
X104232500Y-203830000D03*
D11*
X109312500Y-203830000D03*
D10*
X114392500Y-203830000D03*
D12*
X105502500Y-201290000D03*
X111852500Y-198750000D03*
%TD*%
D10*
%TO.C,MX54*%
X218532500Y-203830000D03*
D11*
X223612500Y-203830000D03*
D10*
X228692500Y-203830000D03*
D12*
X219802500Y-201290000D03*
X226152500Y-198750000D03*
%TD*%
D10*
%TO.C,MX47*%
X213770000Y-118105000D03*
D11*
X218850000Y-118105000D03*
D10*
X223930000Y-118105000D03*
D12*
X215040000Y-115565000D03*
X221390000Y-113025000D03*
%TD*%
D10*
%TO.C,MX25*%
X137570000Y-118105000D03*
D11*
X142650000Y-118105000D03*
D10*
X147730000Y-118105000D03*
D12*
X138840000Y-115565000D03*
X145190000Y-113025000D03*
%TD*%
D14*
%TO.C,D60*%
X265310000Y-152465000D03*
D20*
X263910000Y-151595000D03*
X263910000Y-148295000D03*
D14*
X265310000Y-147425000D03*
%TD*%
%TO.C,D80*%
X322460000Y-123890000D03*
D20*
X321060000Y-123020000D03*
X321060000Y-119720000D03*
D14*
X322460000Y-118850000D03*
%TD*%
%TO.C,D61*%
X246260000Y-152465000D03*
D20*
X244860000Y-151595000D03*
X244860000Y-148295000D03*
D14*
X246260000Y-147425000D03*
%TD*%
%TO.C,D45*%
X227210000Y-104840000D03*
D20*
X225810000Y-103970000D03*
X225810000Y-100670000D03*
D14*
X227210000Y-99800000D03*
%TD*%
%TO.C,D96*%
X376040000Y-190565000D03*
D20*
X374640000Y-189695000D03*
X374640000Y-186395000D03*
D14*
X376040000Y-185525000D03*
%TD*%
%TO.C,D37*%
X170060000Y-152465000D03*
D20*
X168660000Y-151595000D03*
X168660000Y-148295000D03*
D14*
X170060000Y-147425000D03*
%TD*%
%TO.C,D10*%
X95737500Y-207420000D03*
D20*
X94337500Y-206550000D03*
X94337500Y-203250000D03*
D14*
X95737500Y-202380000D03*
%TD*%
%TO.C,D103*%
X395090000Y-152465000D03*
D20*
X393690000Y-151595000D03*
X393690000Y-148295000D03*
D14*
X395090000Y-147425000D03*
%TD*%
%TO.C,D22*%
X108147500Y-228665000D03*
D20*
X106747500Y-227795000D03*
X106747500Y-224495000D03*
D14*
X108147500Y-223625000D03*
%TD*%
%TO.C,D47*%
X227210000Y-123890000D03*
D20*
X225810000Y-123020000D03*
X225810000Y-119720000D03*
D14*
X227210000Y-118850000D03*
%TD*%
%TO.C,D58*%
X265310000Y-123890000D03*
D20*
X263910000Y-123020000D03*
X263910000Y-119720000D03*
D14*
X265310000Y-118850000D03*
%TD*%
%TO.C,D87*%
X331350000Y-228030000D03*
D20*
X329950000Y-228900000D03*
X329950000Y-232200000D03*
D14*
X331350000Y-233070000D03*
%TD*%
%TO.C,D39*%
X179585000Y-171515000D03*
D20*
X178185000Y-170645000D03*
X178185000Y-167345000D03*
D14*
X179585000Y-166475000D03*
%TD*%
%TO.C,D78*%
X322460000Y-104840000D03*
D20*
X321060000Y-103970000D03*
X321060000Y-100670000D03*
D14*
X322460000Y-99800000D03*
%TD*%
%TO.C,D115*%
X414140000Y-171515000D03*
D20*
X412740000Y-170645000D03*
X412740000Y-167345000D03*
D14*
X414140000Y-166475000D03*
%TD*%
%TO.C,D56*%
X265310000Y-104840000D03*
D20*
X263910000Y-103970000D03*
X263910000Y-100670000D03*
D14*
X265310000Y-99800000D03*
%TD*%
%TO.C,D42*%
X193872500Y-209615000D03*
D20*
X192472500Y-208745000D03*
X192472500Y-205445000D03*
D14*
X193872500Y-204575000D03*
%TD*%
%TO.C,D50*%
X208160000Y-152465000D03*
D20*
X206760000Y-151595000D03*
X206760000Y-148295000D03*
D14*
X208160000Y-147425000D03*
%TD*%
%TO.C,D112*%
X414140000Y-104840000D03*
D20*
X412740000Y-103970000D03*
X412740000Y-100670000D03*
D14*
X414140000Y-99800000D03*
%TD*%
%TO.C,D104*%
X395090000Y-171515000D03*
D20*
X393690000Y-170645000D03*
X393690000Y-167345000D03*
D14*
X395090000Y-166475000D03*
%TD*%
%TO.C,D2*%
X74810000Y-104840000D03*
D20*
X73410000Y-103970000D03*
X73410000Y-100670000D03*
D14*
X74810000Y-99800000D03*
%TD*%
%TO.C,D48*%
X208160000Y-123890000D03*
D20*
X206760000Y-123020000D03*
X206760000Y-119720000D03*
D14*
X208160000Y-118850000D03*
%TD*%
%TO.C,D122*%
X433190000Y-76265000D03*
D20*
X431790000Y-75395000D03*
X431790000Y-72095000D03*
D14*
X433190000Y-71225000D03*
%TD*%
%TO.C,D40*%
X203397500Y-190565000D03*
D20*
X201997500Y-189695000D03*
X201997500Y-186395000D03*
D14*
X203397500Y-185525000D03*
%TD*%
%TO.C,D91*%
X341510000Y-104840000D03*
D20*
X340110000Y-103970000D03*
X340110000Y-100670000D03*
D14*
X341510000Y-99800000D03*
%TD*%
%TO.C,D126*%
X433190000Y-171515000D03*
D20*
X431790000Y-170645000D03*
X431790000Y-167345000D03*
D14*
X433190000Y-166475000D03*
%TD*%
%TO.C,D92*%
X376040000Y-123890000D03*
D20*
X374640000Y-123020000D03*
X374640000Y-119720000D03*
D14*
X376040000Y-118850000D03*
%TD*%
%TO.C,D28*%
X160535000Y-171515000D03*
D20*
X159135000Y-170645000D03*
X159135000Y-167345000D03*
D14*
X160535000Y-166475000D03*
%TD*%
%TO.C,D52*%
X217685000Y-171515000D03*
D20*
X216285000Y-170645000D03*
X216285000Y-167345000D03*
D14*
X217685000Y-166475000D03*
%TD*%
%TO.C,D14*%
X131960000Y-123890000D03*
D20*
X130560000Y-123020000D03*
X130560000Y-119720000D03*
D14*
X131960000Y-118850000D03*
%TD*%
%TO.C,D3*%
X74810000Y-123890000D03*
D20*
X73410000Y-123020000D03*
X73410000Y-119720000D03*
D14*
X74810000Y-118850000D03*
%TD*%
%TO.C,D69*%
X303410000Y-152465000D03*
D20*
X302010000Y-151595000D03*
X302010000Y-148295000D03*
D14*
X303410000Y-147425000D03*
%TD*%
%TO.C,D123*%
X433190000Y-104840000D03*
D20*
X431790000Y-103970000D03*
X431790000Y-100670000D03*
D14*
X433190000Y-99800000D03*
%TD*%
%TO.C,D23*%
X170060000Y-104840000D03*
D20*
X168660000Y-103970000D03*
X168660000Y-100670000D03*
D14*
X170060000Y-99800000D03*
%TD*%
%TO.C,D102*%
X395090000Y-123890000D03*
D20*
X393690000Y-123020000D03*
X393690000Y-119720000D03*
D14*
X395090000Y-118850000D03*
%TD*%
%TO.C,D125*%
X433190000Y-152465000D03*
D20*
X431790000Y-151595000D03*
X431790000Y-148295000D03*
D14*
X433190000Y-147425000D03*
%TD*%
%TO.C,D26*%
X170060000Y-123890000D03*
D20*
X168660000Y-123020000D03*
X168660000Y-119720000D03*
D14*
X170060000Y-118850000D03*
%TD*%
%TO.C,D16*%
X112910000Y-152465000D03*
D20*
X111510000Y-151595000D03*
X111510000Y-148295000D03*
D14*
X112910000Y-147425000D03*
%TD*%
%TO.C,D27*%
X151010000Y-152465000D03*
D20*
X149610000Y-151595000D03*
X149610000Y-148295000D03*
D14*
X151010000Y-147425000D03*
%TD*%
%TO.C,D35*%
X189110000Y-123890000D03*
D20*
X187710000Y-123020000D03*
X187710000Y-119720000D03*
D14*
X189110000Y-118850000D03*
%TD*%
%TO.C,D90*%
X376040000Y-104840000D03*
D20*
X374640000Y-103970000D03*
X374640000Y-100670000D03*
D14*
X376040000Y-99800000D03*
%TD*%
%TO.C,D9*%
X77191250Y-190565000D03*
D20*
X75791250Y-189695000D03*
X75791250Y-186395000D03*
D14*
X77191250Y-185525000D03*
%TD*%
%TO.C,D31*%
X146247500Y-190565000D03*
D20*
X144847500Y-189695000D03*
X144847500Y-186395000D03*
D14*
X146247500Y-185525000D03*
%TD*%
%TO.C,D83*%
X336747500Y-171515000D03*
D20*
X335347500Y-170645000D03*
X335347500Y-167345000D03*
D14*
X336747500Y-166475000D03*
%TD*%
%TO.C,D82*%
X341860000Y-150290000D03*
D20*
X340460000Y-149420000D03*
X340460000Y-146120000D03*
D14*
X341860000Y-145250000D03*
%TD*%
%TO.C,D17*%
X131960000Y-152465000D03*
D20*
X130560000Y-151595000D03*
X130560000Y-148295000D03*
D14*
X131960000Y-147425000D03*
%TD*%
D21*
%TO.C,R1*%
X87700000Y-185125000D03*
X87700000Y-183475000D03*
%TD*%
D14*
%TO.C,D111*%
X414140000Y-76265000D03*
D20*
X412740000Y-75395000D03*
X412740000Y-72095000D03*
D14*
X414140000Y-71225000D03*
%TD*%
%TO.C,D95*%
X376040000Y-171515000D03*
D20*
X374640000Y-170645000D03*
X374640000Y-167345000D03*
D14*
X376040000Y-166475000D03*
%TD*%
%TO.C,D63*%
X260547500Y-190565000D03*
D20*
X259147500Y-189695000D03*
X259147500Y-186395000D03*
D14*
X260547500Y-185525000D03*
%TD*%
%TO.C,D74*%
X279597500Y-190565000D03*
D20*
X278197500Y-189695000D03*
X278197500Y-186395000D03*
D14*
X279597500Y-185525000D03*
%TD*%
%TO.C,D46*%
X208160000Y-104840000D03*
D20*
X206760000Y-103970000D03*
X206760000Y-100670000D03*
D14*
X208160000Y-99800000D03*
%TD*%
%TO.C,D24*%
X151010000Y-104840000D03*
D20*
X149610000Y-103970000D03*
X149610000Y-100670000D03*
D14*
X151010000Y-99800000D03*
%TD*%
%TO.C,D70*%
X284360000Y-152465000D03*
D20*
X282960000Y-151595000D03*
X282960000Y-148295000D03*
D14*
X284360000Y-147425000D03*
%TD*%
%TO.C,D88*%
X350400000Y-228030000D03*
D20*
X349000000Y-228900000D03*
X349000000Y-232200000D03*
D14*
X350400000Y-233070000D03*
%TD*%
%TO.C,D89*%
X376040000Y-76265000D03*
D20*
X374640000Y-75395000D03*
X374640000Y-72095000D03*
D14*
X376040000Y-71225000D03*
%TD*%
%TO.C,D64*%
X241497500Y-190565000D03*
D20*
X240097500Y-189695000D03*
X240097500Y-186395000D03*
D14*
X241497500Y-185525000D03*
%TD*%
%TO.C,D71*%
X293885000Y-171515000D03*
D20*
X292485000Y-170645000D03*
X292485000Y-167345000D03*
D14*
X293885000Y-166475000D03*
%TD*%
%TO.C,D6*%
X74810000Y-152465000D03*
D20*
X73410000Y-151595000D03*
X73410000Y-148295000D03*
D14*
X74810000Y-147425000D03*
%TD*%
%TO.C,D21*%
X117672500Y-209615000D03*
D20*
X116272500Y-208745000D03*
X116272500Y-205445000D03*
D14*
X117672500Y-204575000D03*
%TD*%
%TO.C,D106*%
X395090000Y-209615000D03*
D20*
X393690000Y-208745000D03*
X393690000Y-205445000D03*
D14*
X395090000Y-204575000D03*
%TD*%
%TO.C,D68*%
X284360000Y-123890000D03*
D20*
X282960000Y-123020000D03*
X282960000Y-119720000D03*
D14*
X284360000Y-118850000D03*
%TD*%
%TO.C,D15*%
X112910000Y-123890000D03*
D20*
X111510000Y-123020000D03*
X111510000Y-119720000D03*
D14*
X112910000Y-118850000D03*
%TD*%
%TO.C,D18*%
X122435000Y-171515000D03*
D20*
X121035000Y-170645000D03*
X121035000Y-167345000D03*
D14*
X122435000Y-166475000D03*
%TD*%
%TO.C,D62*%
X255785000Y-171515000D03*
D20*
X254385000Y-170645000D03*
X254385000Y-167345000D03*
D14*
X255785000Y-166475000D03*
%TD*%
%TO.C,D11*%
X79572500Y-228665000D03*
D20*
X78172500Y-227795000D03*
X78172500Y-224495000D03*
D14*
X79572500Y-223625000D03*
%TD*%
%TO.C,D105*%
X395090000Y-190565000D03*
D20*
X393690000Y-189695000D03*
X393690000Y-186395000D03*
D14*
X395090000Y-185525000D03*
%TD*%
%TO.C,D8*%
X79572500Y-171515000D03*
D20*
X78172500Y-170645000D03*
X78172500Y-167345000D03*
D14*
X79572500Y-166475000D03*
%TD*%
%TO.C,D66*%
X251022500Y-209615000D03*
D20*
X249622500Y-208745000D03*
X249622500Y-205445000D03*
D14*
X251022500Y-204575000D03*
%TD*%
%TO.C,D81*%
X303410000Y-123890000D03*
D20*
X302010000Y-123020000D03*
X302010000Y-119720000D03*
D14*
X303410000Y-118850000D03*
%TD*%
%TO.C,D77*%
X270072500Y-228665000D03*
D20*
X268672500Y-227795000D03*
X268672500Y-224495000D03*
D14*
X270072500Y-223625000D03*
%TD*%
%TO.C,D41*%
X184347500Y-190565000D03*
D20*
X182947500Y-189695000D03*
X182947500Y-186395000D03*
D14*
X184347500Y-185525000D03*
%TD*%
%TO.C,D113*%
X414140000Y-123890000D03*
D20*
X412740000Y-123020000D03*
X412740000Y-119720000D03*
D14*
X414140000Y-118850000D03*
%TD*%
%TO.C,D99*%
X369450000Y-228030000D03*
D20*
X368050000Y-228900000D03*
X368050000Y-232200000D03*
D14*
X369450000Y-233070000D03*
%TD*%
%TO.C,D100*%
X395090000Y-76265000D03*
D20*
X393690000Y-75395000D03*
X393690000Y-72095000D03*
D14*
X395090000Y-71225000D03*
%TD*%
%TO.C,D85*%
X339360000Y-188540000D03*
D20*
X337960000Y-187670000D03*
X337960000Y-184370000D03*
D14*
X339360000Y-183500000D03*
%TD*%
%TO.C,D30*%
X165297500Y-190565000D03*
D20*
X163897500Y-189695000D03*
X163897500Y-186395000D03*
D14*
X165297500Y-185525000D03*
%TD*%
%TO.C,D57*%
X246260000Y-104840000D03*
D20*
X244860000Y-103970000D03*
X244860000Y-100670000D03*
D14*
X246260000Y-99800000D03*
%TD*%
%TO.C,D67*%
X284360000Y-104840000D03*
D20*
X282960000Y-103970000D03*
X282960000Y-100670000D03*
D14*
X284360000Y-99800000D03*
%TD*%
%TO.C,D97*%
X376040000Y-209615000D03*
D20*
X374640000Y-208745000D03*
X374640000Y-205445000D03*
D14*
X376040000Y-204575000D03*
%TD*%
%TO.C,D5*%
X93860000Y-152465000D03*
D20*
X92460000Y-151595000D03*
X92460000Y-148295000D03*
D14*
X93860000Y-147425000D03*
%TD*%
%TO.C,D13*%
X131960000Y-104840000D03*
D20*
X130560000Y-103970000D03*
X130560000Y-100670000D03*
D14*
X131960000Y-99800000D03*
%TD*%
D22*
%TO.C,U2*%
X80820000Y-53400000D03*
D23*
X80820000Y-55940000D03*
X80820000Y-58480000D03*
X80820000Y-61020000D03*
X80820000Y-63560000D03*
X80820000Y-66100000D03*
X80820000Y-68640000D03*
X80820000Y-71180000D03*
X80820000Y-73720000D03*
X80820000Y-76260000D03*
X80820000Y-78800000D03*
X80591400Y-81340000D03*
X65580000Y-81340000D03*
X65580000Y-78800000D03*
X65580000Y-76260000D03*
X65580000Y-73720000D03*
X65580000Y-71180000D03*
X65580000Y-68640000D03*
X65580000Y-66100000D03*
X65580000Y-63560000D03*
X65580000Y-61020000D03*
X65580000Y-58480000D03*
X65580000Y-55940000D03*
X65580000Y-53400000D03*
X78280000Y-81340000D03*
X75740000Y-81340000D03*
X73200000Y-81340000D03*
X70660000Y-81340000D03*
X68120000Y-81340000D03*
%TD*%
D14*
%TO.C,D59*%
X246260000Y-123890000D03*
D20*
X244860000Y-123020000D03*
X244860000Y-119720000D03*
D14*
X246260000Y-118850000D03*
%TD*%
%TO.C,D72*%
X274835000Y-171515000D03*
D20*
X273435000Y-170645000D03*
X273435000Y-167345000D03*
D14*
X274835000Y-166475000D03*
%TD*%
%TO.C,D49*%
X227210000Y-152465000D03*
D20*
X225810000Y-151595000D03*
X225810000Y-148295000D03*
D14*
X227210000Y-147425000D03*
%TD*%
%TO.C,D79*%
X303410000Y-104840000D03*
D20*
X302010000Y-103970000D03*
X302010000Y-100670000D03*
D14*
X303410000Y-99800000D03*
%TD*%
%TO.C,D34*%
X189110000Y-104840000D03*
D20*
X187710000Y-103970000D03*
X187710000Y-100670000D03*
D14*
X189110000Y-99800000D03*
%TD*%
%TO.C,D114*%
X414140000Y-152465000D03*
D20*
X412740000Y-151595000D03*
X412740000Y-148295000D03*
D14*
X414140000Y-147425000D03*
%TD*%
%TO.C,D75*%
X289122500Y-209615000D03*
D20*
X287722500Y-208745000D03*
X287722500Y-205445000D03*
D14*
X289122500Y-204575000D03*
%TD*%
%TO.C,D44*%
X189110000Y-228665000D03*
D20*
X187710000Y-227795000D03*
X187710000Y-224495000D03*
D14*
X189110000Y-223625000D03*
%TD*%
%TO.C,D12*%
X112910000Y-104840000D03*
D20*
X111510000Y-103970000D03*
X111510000Y-100670000D03*
D14*
X112910000Y-99800000D03*
%TD*%
%TO.C,D107*%
X395090000Y-228665000D03*
D20*
X393690000Y-227795000D03*
X393690000Y-224495000D03*
D14*
X395090000Y-223625000D03*
%TD*%
%TO.C,D118*%
X414140000Y-228665000D03*
D20*
X412740000Y-227795000D03*
X412740000Y-224495000D03*
D14*
X414140000Y-223625000D03*
%TD*%
%TO.C,D1*%
X93860000Y-104840000D03*
D20*
X92460000Y-103970000D03*
X92460000Y-100670000D03*
D14*
X93860000Y-99800000D03*
%TD*%
%TO.C,D76*%
X298647500Y-228665000D03*
D20*
X297247500Y-227795000D03*
X297247500Y-224495000D03*
D14*
X298647500Y-223625000D03*
%TD*%
%TO.C,D32*%
X155772500Y-209615000D03*
D20*
X154372500Y-208745000D03*
X154372500Y-205445000D03*
D14*
X155772500Y-204575000D03*
%TD*%
%TO.C,D55*%
X212922500Y-209615000D03*
D20*
X211522500Y-208745000D03*
X211522500Y-205445000D03*
D14*
X212922500Y-204575000D03*
%TD*%
%TO.C,D29*%
X141485000Y-171515000D03*
D20*
X140085000Y-170645000D03*
X140085000Y-167345000D03*
D14*
X141485000Y-166475000D03*
%TD*%
%TO.C,D94*%
X376040000Y-152465000D03*
D20*
X374640000Y-151595000D03*
X374640000Y-148295000D03*
D14*
X376040000Y-147425000D03*
%TD*%
%TO.C,D98*%
X349572500Y-212442500D03*
D20*
X348172500Y-213312500D03*
X348172500Y-216612500D03*
D14*
X349572500Y-217482500D03*
%TD*%
%TO.C,D51*%
X236735000Y-171515000D03*
D20*
X235335000Y-170645000D03*
X235335000Y-167345000D03*
D14*
X236735000Y-166475000D03*
%TD*%
%TO.C,D38*%
X198635000Y-171515000D03*
D20*
X197235000Y-170645000D03*
X197235000Y-167345000D03*
D14*
X198635000Y-166475000D03*
%TD*%
%TO.C,D117*%
X414140000Y-209615000D03*
D20*
X412740000Y-208745000D03*
X412740000Y-205445000D03*
D14*
X414140000Y-204575000D03*
%TD*%
%TO.C,D43*%
X174822500Y-209615000D03*
D20*
X173422500Y-208745000D03*
X173422500Y-205445000D03*
D14*
X174822500Y-204575000D03*
%TD*%
%TO.C,D116*%
X414140000Y-190565000D03*
D20*
X412740000Y-189695000D03*
X412740000Y-186395000D03*
D14*
X414140000Y-185525000D03*
%TD*%
D24*
%TO.C,U1*%
X111200000Y-68675000D03*
D25*
X114230000Y-68975000D03*
X114230000Y-73825000D03*
D24*
X111200000Y-74125000D03*
D26*
X111070000Y-62510000D03*
D27*
X111070000Y-61610000D03*
D26*
X113610000Y-62510000D03*
D27*
X113610000Y-61610000D03*
D28*
X116150000Y-62510000D03*
D27*
X116150000Y-61610000D03*
D26*
X118690000Y-62510000D03*
D27*
X118690000Y-61610000D03*
D26*
X121230000Y-62510000D03*
D27*
X121230000Y-61610000D03*
D26*
X123770000Y-62510000D03*
D27*
X123770000Y-61610000D03*
D26*
X126310000Y-62510000D03*
D27*
X126310000Y-61610000D03*
D28*
X128850000Y-62510000D03*
D27*
X128850000Y-61610000D03*
D26*
X131390000Y-62510000D03*
D27*
X131390000Y-61610000D03*
D26*
X133930000Y-62510000D03*
D27*
X133930000Y-61610000D03*
D26*
X136470000Y-62510000D03*
D27*
X136470000Y-61610000D03*
D26*
X139010000Y-62510000D03*
D27*
X139010000Y-61610000D03*
D28*
X141550000Y-62510000D03*
D27*
X141550000Y-61610000D03*
D26*
X144090000Y-62510000D03*
D27*
X144090000Y-61610000D03*
D26*
X146630000Y-62510000D03*
D27*
X146630000Y-61610000D03*
D26*
X149170000Y-62510000D03*
D27*
X149170000Y-61610000D03*
D26*
X151710000Y-62510000D03*
D27*
X151710000Y-61610000D03*
D28*
X154250000Y-62510000D03*
D27*
X154250000Y-61610000D03*
D26*
X156790000Y-62510000D03*
D27*
X156790000Y-61610000D03*
D26*
X159330000Y-62510000D03*
D27*
X159330000Y-61610000D03*
D26*
X159330000Y-80290000D03*
D27*
X159330000Y-81190000D03*
D26*
X156790000Y-80290000D03*
D27*
X156790000Y-81190000D03*
D28*
X154250000Y-80290000D03*
D27*
X154250000Y-81190000D03*
D26*
X151710000Y-80290000D03*
D27*
X151710000Y-81190000D03*
D26*
X149170000Y-80290000D03*
D27*
X149170000Y-81190000D03*
D26*
X146630000Y-80290000D03*
D27*
X146630000Y-81190000D03*
D26*
X144090000Y-80290000D03*
D27*
X144090000Y-81190000D03*
D28*
X141550000Y-80290000D03*
D27*
X141550000Y-81190000D03*
D26*
X139010000Y-80290000D03*
D27*
X139010000Y-81190000D03*
D26*
X136470000Y-80290000D03*
D27*
X136470000Y-81190000D03*
D26*
X133930000Y-80290000D03*
D27*
X133930000Y-81190000D03*
D26*
X131390000Y-80290000D03*
D27*
X131390000Y-81190000D03*
D28*
X128850000Y-80290000D03*
D27*
X128850000Y-81190000D03*
D26*
X126310000Y-80290000D03*
D27*
X126310000Y-81190000D03*
D26*
X123770000Y-80290000D03*
D27*
X123770000Y-81190000D03*
D26*
X121230000Y-80290000D03*
D27*
X121230000Y-81190000D03*
D26*
X118690000Y-80290000D03*
D27*
X118690000Y-81190000D03*
D28*
X116150000Y-80290000D03*
D27*
X116150000Y-81190000D03*
D26*
X113610000Y-80290000D03*
D27*
X113610000Y-81190000D03*
D26*
X111070000Y-80290000D03*
D27*
X111070000Y-81190000D03*
D26*
X159100000Y-68860000D03*
D29*
X160000000Y-68860000D03*
D28*
X159100000Y-71400000D03*
D29*
X160000000Y-71400000D03*
D26*
X159100000Y-73940000D03*
D29*
X160000000Y-73940000D03*
%TD*%
D14*
%TO.C,D124*%
X433190000Y-123890000D03*
D20*
X431790000Y-123020000D03*
X431790000Y-119720000D03*
D14*
X433190000Y-118850000D03*
%TD*%
%TO.C,D25*%
X151010000Y-123890000D03*
D20*
X149610000Y-123020000D03*
X149610000Y-119720000D03*
D14*
X151010000Y-118850000D03*
%TD*%
%TO.C,D54*%
X231972500Y-209615000D03*
D20*
X230572500Y-208745000D03*
X230572500Y-205445000D03*
D14*
X231972500Y-204575000D03*
%TD*%
%TO.C,D73*%
X298647500Y-190565000D03*
D20*
X297247500Y-189695000D03*
X297247500Y-186395000D03*
D14*
X298647500Y-185525000D03*
%TD*%
%TO.C,D128*%
X424230000Y-196400000D03*
D30*
X425100000Y-195000000D03*
X428400000Y-195000000D03*
D14*
X429270000Y-196400000D03*
%TD*%
%TO.C,D7*%
X103385000Y-171515000D03*
D20*
X101985000Y-170645000D03*
X101985000Y-167345000D03*
D14*
X103385000Y-166475000D03*
%TD*%
%TO.C,D33*%
X136722500Y-209615000D03*
D20*
X135322500Y-208745000D03*
X135322500Y-205445000D03*
D14*
X136722500Y-204575000D03*
%TD*%
%TO.C,D65*%
X270072500Y-209615000D03*
D20*
X268672500Y-208745000D03*
X268672500Y-205445000D03*
D14*
X270072500Y-204575000D03*
%TD*%
%TO.C,D4*%
X93860000Y-123890000D03*
D20*
X92460000Y-123020000D03*
X92460000Y-119720000D03*
D14*
X93860000Y-118850000D03*
%TD*%
%TO.C,D86*%
X315316250Y-209615000D03*
D20*
X313916250Y-208745000D03*
X313916250Y-205445000D03*
D14*
X315316250Y-204575000D03*
%TD*%
%TO.C,D20*%
X108147500Y-190565000D03*
D20*
X106747500Y-189695000D03*
X106747500Y-186395000D03*
D14*
X108147500Y-185525000D03*
%TD*%
%TO.C,D53*%
X222447500Y-190565000D03*
D20*
X221047500Y-189695000D03*
X221047500Y-186395000D03*
D14*
X222447500Y-185525000D03*
%TD*%
%TO.C,D101*%
X395090000Y-104840000D03*
D20*
X393690000Y-103970000D03*
X393690000Y-100670000D03*
D14*
X395090000Y-99800000D03*
%TD*%
%TO.C,D93*%
X341510000Y-123890000D03*
D20*
X340110000Y-123020000D03*
X340110000Y-119720000D03*
D14*
X341510000Y-118850000D03*
%TD*%
%TO.C,D127*%
X433190000Y-190565000D03*
D20*
X431790000Y-189695000D03*
X431790000Y-186395000D03*
D14*
X433190000Y-185525000D03*
%TD*%
%TO.C,D36*%
X189110000Y-152465000D03*
D20*
X187710000Y-151595000D03*
X187710000Y-148295000D03*
D14*
X189110000Y-147425000D03*
%TD*%
%TO.C,D19*%
X127197500Y-190565000D03*
D20*
X125797500Y-189695000D03*
X125797500Y-186395000D03*
D14*
X127197500Y-185525000D03*
%TD*%
%TO.C,D84*%
X312935000Y-171515000D03*
D20*
X311535000Y-170645000D03*
X311535000Y-167345000D03*
D14*
X312935000Y-166475000D03*
%TD*%
M02*
