%TF.GenerationSoftware,KiCad,Pcbnew,8.0.2*%
%TF.CreationDate,2024-06-15T15:47:28-07:00*%
%TF.ProjectId,dimension-PCB,64696d65-6e73-4696-9f6e-2d5043422e6b,rev?*%
%TF.SameCoordinates,Original*%
%TF.FileFunction,Legend,Top*%
%TF.FilePolarity,Positive*%
%FSLAX46Y46*%
G04 Gerber Fmt 4.6, Leading zero omitted, Abs format (unit mm)*
G04 Created by KiCad (PCBNEW 8.0.2) date 2024-06-15 15:47:28*
%MOMM*%
%LPD*%
G01*
G04 APERTURE LIST*
%ADD10C,0.150000*%
%ADD11C,0.120000*%
%ADD12C,0.381000*%
%ADD13C,1.750000*%
%ADD14C,3.987800*%
%ADD15R,1.800000X1.800000*%
%ADD16C,1.800000*%
%ADD17C,4.300000*%
%ADD18C,1.600000*%
%ADD19O,1.600000X1.600000*%
%ADD20C,3.048000*%
%ADD21C,8.400000*%
%ADD22R,1.752600X1.752600*%
%ADD23C,1.752600*%
%ADD24O,1.800000X1.800000*%
%ADD25O,1.500000X1.500000*%
%ADD26O,1.700000X1.700000*%
%ADD27R,1.700000X1.700000*%
G04 APERTURE END LIST*
D10*
X129198684Y-231203152D02*
X128436779Y-231488866D01*
X128436779Y-231488866D02*
X129198684Y-231774580D01*
X129674874Y-231488866D02*
X130436779Y-231488866D01*
X131627255Y-231822200D02*
X131770112Y-231869819D01*
X131770112Y-231869819D02*
X132008207Y-231869819D01*
X132008207Y-231869819D02*
X132103445Y-231822200D01*
X132103445Y-231822200D02*
X132151064Y-231774580D01*
X132151064Y-231774580D02*
X132198683Y-231679342D01*
X132198683Y-231679342D02*
X132198683Y-231584104D01*
X132198683Y-231584104D02*
X132151064Y-231488866D01*
X132151064Y-231488866D02*
X132103445Y-231441247D01*
X132103445Y-231441247D02*
X132008207Y-231393628D01*
X132008207Y-231393628D02*
X131817731Y-231346009D01*
X131817731Y-231346009D02*
X131722493Y-231298390D01*
X131722493Y-231298390D02*
X131674874Y-231250771D01*
X131674874Y-231250771D02*
X131627255Y-231155533D01*
X131627255Y-231155533D02*
X131627255Y-231060295D01*
X131627255Y-231060295D02*
X131674874Y-230965057D01*
X131674874Y-230965057D02*
X131722493Y-230917438D01*
X131722493Y-230917438D02*
X131817731Y-230869819D01*
X131817731Y-230869819D02*
X132055826Y-230869819D01*
X132055826Y-230869819D02*
X132198683Y-230917438D01*
X132627255Y-231869819D02*
X132627255Y-230869819D01*
X132627255Y-230869819D02*
X133008207Y-230869819D01*
X133008207Y-230869819D02*
X133103445Y-230917438D01*
X133103445Y-230917438D02*
X133151064Y-230965057D01*
X133151064Y-230965057D02*
X133198683Y-231060295D01*
X133198683Y-231060295D02*
X133198683Y-231203152D01*
X133198683Y-231203152D02*
X133151064Y-231298390D01*
X133151064Y-231298390D02*
X133103445Y-231346009D01*
X133103445Y-231346009D02*
X133008207Y-231393628D01*
X133008207Y-231393628D02*
X132627255Y-231393628D01*
X134389160Y-231869819D02*
X134389160Y-230869819D01*
X134389160Y-230869819D02*
X134770112Y-230869819D01*
X134770112Y-230869819D02*
X134865350Y-230917438D01*
X134865350Y-230917438D02*
X134912969Y-230965057D01*
X134912969Y-230965057D02*
X134960588Y-231060295D01*
X134960588Y-231060295D02*
X134960588Y-231203152D01*
X134960588Y-231203152D02*
X134912969Y-231298390D01*
X134912969Y-231298390D02*
X134865350Y-231346009D01*
X134865350Y-231346009D02*
X134770112Y-231393628D01*
X134770112Y-231393628D02*
X134389160Y-231393628D01*
X135722493Y-231346009D02*
X135865350Y-231393628D01*
X135865350Y-231393628D02*
X135912969Y-231441247D01*
X135912969Y-231441247D02*
X135960588Y-231536485D01*
X135960588Y-231536485D02*
X135960588Y-231679342D01*
X135960588Y-231679342D02*
X135912969Y-231774580D01*
X135912969Y-231774580D02*
X135865350Y-231822200D01*
X135865350Y-231822200D02*
X135770112Y-231869819D01*
X135770112Y-231869819D02*
X135389160Y-231869819D01*
X135389160Y-231869819D02*
X135389160Y-230869819D01*
X135389160Y-230869819D02*
X135722493Y-230869819D01*
X135722493Y-230869819D02*
X135817731Y-230917438D01*
X135817731Y-230917438D02*
X135865350Y-230965057D01*
X135865350Y-230965057D02*
X135912969Y-231060295D01*
X135912969Y-231060295D02*
X135912969Y-231155533D01*
X135912969Y-231155533D02*
X135865350Y-231250771D01*
X135865350Y-231250771D02*
X135817731Y-231298390D01*
X135817731Y-231298390D02*
X135722493Y-231346009D01*
X135722493Y-231346009D02*
X135389160Y-231346009D01*
X136246303Y-230869819D02*
X136817731Y-230869819D01*
X136532017Y-231869819D02*
X136532017Y-230869819D01*
X137912970Y-231869819D02*
X137912970Y-230869819D01*
X137912970Y-230869819D02*
X138151065Y-230869819D01*
X138151065Y-230869819D02*
X138293922Y-230917438D01*
X138293922Y-230917438D02*
X138389160Y-231012676D01*
X138389160Y-231012676D02*
X138436779Y-231107914D01*
X138436779Y-231107914D02*
X138484398Y-231298390D01*
X138484398Y-231298390D02*
X138484398Y-231441247D01*
X138484398Y-231441247D02*
X138436779Y-231631723D01*
X138436779Y-231631723D02*
X138389160Y-231726961D01*
X138389160Y-231726961D02*
X138293922Y-231822200D01*
X138293922Y-231822200D02*
X138151065Y-231869819D01*
X138151065Y-231869819D02*
X137912970Y-231869819D01*
X139484398Y-231774580D02*
X139436779Y-231822200D01*
X139436779Y-231822200D02*
X139293922Y-231869819D01*
X139293922Y-231869819D02*
X139198684Y-231869819D01*
X139198684Y-231869819D02*
X139055827Y-231822200D01*
X139055827Y-231822200D02*
X138960589Y-231726961D01*
X138960589Y-231726961D02*
X138912970Y-231631723D01*
X138912970Y-231631723D02*
X138865351Y-231441247D01*
X138865351Y-231441247D02*
X138865351Y-231298390D01*
X138865351Y-231298390D02*
X138912970Y-231107914D01*
X138912970Y-231107914D02*
X138960589Y-231012676D01*
X138960589Y-231012676D02*
X139055827Y-230917438D01*
X139055827Y-230917438D02*
X139198684Y-230869819D01*
X139198684Y-230869819D02*
X139293922Y-230869819D01*
X139293922Y-230869819D02*
X139436779Y-230917438D01*
X139436779Y-230917438D02*
X139484398Y-230965057D01*
X139865351Y-231822200D02*
X140008208Y-231869819D01*
X140008208Y-231869819D02*
X140246303Y-231869819D01*
X140246303Y-231869819D02*
X140341541Y-231822200D01*
X140341541Y-231822200D02*
X140389160Y-231774580D01*
X140389160Y-231774580D02*
X140436779Y-231679342D01*
X140436779Y-231679342D02*
X140436779Y-231584104D01*
X140436779Y-231584104D02*
X140389160Y-231488866D01*
X140389160Y-231488866D02*
X140341541Y-231441247D01*
X140341541Y-231441247D02*
X140246303Y-231393628D01*
X140246303Y-231393628D02*
X140055827Y-231346009D01*
X140055827Y-231346009D02*
X139960589Y-231298390D01*
X139960589Y-231298390D02*
X139912970Y-231250771D01*
X139912970Y-231250771D02*
X139865351Y-231155533D01*
X139865351Y-231155533D02*
X139865351Y-231060295D01*
X139865351Y-231060295D02*
X139912970Y-230965057D01*
X139912970Y-230965057D02*
X139960589Y-230917438D01*
X139960589Y-230917438D02*
X140055827Y-230869819D01*
X140055827Y-230869819D02*
X140293922Y-230869819D01*
X140293922Y-230869819D02*
X140436779Y-230917438D01*
X141532018Y-230869819D02*
X142198684Y-230869819D01*
X142198684Y-230869819D02*
X141770113Y-231869819D01*
X143008208Y-231203152D02*
X143008208Y-231869819D01*
X142579637Y-231203152D02*
X142579637Y-231726961D01*
X142579637Y-231726961D02*
X142627256Y-231822200D01*
X142627256Y-231822200D02*
X142722494Y-231869819D01*
X142722494Y-231869819D02*
X142865351Y-231869819D01*
X142865351Y-231869819D02*
X142960589Y-231822200D01*
X142960589Y-231822200D02*
X143008208Y-231774580D01*
X111008207Y-231774580D02*
X110960588Y-231822200D01*
X110960588Y-231822200D02*
X110817731Y-231869819D01*
X110817731Y-231869819D02*
X110722493Y-231869819D01*
X110722493Y-231869819D02*
X110579636Y-231822200D01*
X110579636Y-231822200D02*
X110484398Y-231726961D01*
X110484398Y-231726961D02*
X110436779Y-231631723D01*
X110436779Y-231631723D02*
X110389160Y-231441247D01*
X110389160Y-231441247D02*
X110389160Y-231298390D01*
X110389160Y-231298390D02*
X110436779Y-231107914D01*
X110436779Y-231107914D02*
X110484398Y-231012676D01*
X110484398Y-231012676D02*
X110579636Y-230917438D01*
X110579636Y-230917438D02*
X110722493Y-230869819D01*
X110722493Y-230869819D02*
X110817731Y-230869819D01*
X110817731Y-230869819D02*
X110960588Y-230917438D01*
X110960588Y-230917438D02*
X111008207Y-230965057D01*
X111436779Y-231869819D02*
X111436779Y-230869819D01*
X111865350Y-231869819D02*
X111865350Y-231346009D01*
X111865350Y-231346009D02*
X111817731Y-231250771D01*
X111817731Y-231250771D02*
X111722493Y-231203152D01*
X111722493Y-231203152D02*
X111579636Y-231203152D01*
X111579636Y-231203152D02*
X111484398Y-231250771D01*
X111484398Y-231250771D02*
X111436779Y-231298390D01*
X112722493Y-231822200D02*
X112627255Y-231869819D01*
X112627255Y-231869819D02*
X112436779Y-231869819D01*
X112436779Y-231869819D02*
X112341541Y-231822200D01*
X112341541Y-231822200D02*
X112293922Y-231726961D01*
X112293922Y-231726961D02*
X112293922Y-231346009D01*
X112293922Y-231346009D02*
X112341541Y-231250771D01*
X112341541Y-231250771D02*
X112436779Y-231203152D01*
X112436779Y-231203152D02*
X112627255Y-231203152D01*
X112627255Y-231203152D02*
X112722493Y-231250771D01*
X112722493Y-231250771D02*
X112770112Y-231346009D01*
X112770112Y-231346009D02*
X112770112Y-231441247D01*
X112770112Y-231441247D02*
X112293922Y-231536485D01*
X113198684Y-231869819D02*
X113198684Y-231203152D01*
X113198684Y-231393628D02*
X113246303Y-231298390D01*
X113246303Y-231298390D02*
X113293922Y-231250771D01*
X113293922Y-231250771D02*
X113389160Y-231203152D01*
X113389160Y-231203152D02*
X113484398Y-231203152D01*
X113817732Y-231869819D02*
X113817732Y-231203152D01*
X113817732Y-231393628D02*
X113865351Y-231298390D01*
X113865351Y-231298390D02*
X113912970Y-231250771D01*
X113912970Y-231250771D02*
X114008208Y-231203152D01*
X114008208Y-231203152D02*
X114103446Y-231203152D01*
X114341542Y-231203152D02*
X114579637Y-231869819D01*
X114817732Y-231203152D02*
X114579637Y-231869819D01*
X114579637Y-231869819D02*
X114484399Y-232107914D01*
X114484399Y-232107914D02*
X114436780Y-232155533D01*
X114436780Y-232155533D02*
X114341542Y-232203152D01*
X115865352Y-230869819D02*
X116532018Y-230869819D01*
X116532018Y-230869819D02*
X116103447Y-231869819D01*
X117341542Y-231203152D02*
X117341542Y-231869819D01*
X116912971Y-231203152D02*
X116912971Y-231726961D01*
X116912971Y-231726961D02*
X116960590Y-231822200D01*
X116960590Y-231822200D02*
X117055828Y-231869819D01*
X117055828Y-231869819D02*
X117198685Y-231869819D01*
X117198685Y-231869819D02*
X117293923Y-231822200D01*
X117293923Y-231822200D02*
X117341542Y-231774580D01*
X118579638Y-231488866D02*
X119341543Y-231488866D01*
X119817733Y-231203152D02*
X120579638Y-231488866D01*
X120579638Y-231488866D02*
X119817733Y-231774580D01*
X83310952Y-188194819D02*
X82834762Y-188194819D01*
X82834762Y-188194819D02*
X82834762Y-187194819D01*
X83644286Y-187671009D02*
X83977619Y-187671009D01*
X84120476Y-188194819D02*
X83644286Y-188194819D01*
X83644286Y-188194819D02*
X83644286Y-187194819D01*
X83644286Y-187194819D02*
X84120476Y-187194819D01*
X84549048Y-188194819D02*
X84549048Y-187194819D01*
X84549048Y-187194819D02*
X84787143Y-187194819D01*
X84787143Y-187194819D02*
X84930000Y-187242438D01*
X84930000Y-187242438D02*
X85025238Y-187337676D01*
X85025238Y-187337676D02*
X85072857Y-187432914D01*
X85072857Y-187432914D02*
X85120476Y-187623390D01*
X85120476Y-187623390D02*
X85120476Y-187766247D01*
X85120476Y-187766247D02*
X85072857Y-187956723D01*
X85072857Y-187956723D02*
X85025238Y-188051961D01*
X85025238Y-188051961D02*
X84930000Y-188147200D01*
X84930000Y-188147200D02*
X84787143Y-188194819D01*
X84787143Y-188194819D02*
X84549048Y-188194819D01*
X86072857Y-188194819D02*
X85501429Y-188194819D01*
X85787143Y-188194819D02*
X85787143Y-187194819D01*
X85787143Y-187194819D02*
X85691905Y-187337676D01*
X85691905Y-187337676D02*
X85596667Y-187432914D01*
X85596667Y-187432914D02*
X85501429Y-187480533D01*
X349788095Y-96582319D02*
X349788095Y-95582319D01*
X349788095Y-96058509D02*
X350359523Y-96058509D01*
X350359523Y-96582319D02*
X350359523Y-95582319D01*
X350740476Y-95582319D02*
X351359523Y-95582319D01*
X351359523Y-95582319D02*
X351026190Y-95963271D01*
X351026190Y-95963271D02*
X351169047Y-95963271D01*
X351169047Y-95963271D02*
X351264285Y-96010890D01*
X351264285Y-96010890D02*
X351311904Y-96058509D01*
X351311904Y-96058509D02*
X351359523Y-96153747D01*
X351359523Y-96153747D02*
X351359523Y-96391842D01*
X351359523Y-96391842D02*
X351311904Y-96487080D01*
X351311904Y-96487080D02*
X351264285Y-96534700D01*
X351264285Y-96534700D02*
X351169047Y-96582319D01*
X351169047Y-96582319D02*
X350883333Y-96582319D01*
X350883333Y-96582319D02*
X350788095Y-96534700D01*
X350788095Y-96534700D02*
X350740476Y-96487080D01*
X91254819Y-184466666D02*
X90778628Y-184799999D01*
X91254819Y-185038094D02*
X90254819Y-185038094D01*
X90254819Y-185038094D02*
X90254819Y-184657142D01*
X90254819Y-184657142D02*
X90302438Y-184561904D01*
X90302438Y-184561904D02*
X90350057Y-184514285D01*
X90350057Y-184514285D02*
X90445295Y-184466666D01*
X90445295Y-184466666D02*
X90588152Y-184466666D01*
X90588152Y-184466666D02*
X90683390Y-184514285D01*
X90683390Y-184514285D02*
X90731009Y-184561904D01*
X90731009Y-184561904D02*
X90778628Y-184657142D01*
X90778628Y-184657142D02*
X90778628Y-185038094D01*
X90350057Y-184085713D02*
X90302438Y-184038094D01*
X90302438Y-184038094D02*
X90254819Y-183942856D01*
X90254819Y-183942856D02*
X90254819Y-183704761D01*
X90254819Y-183704761D02*
X90302438Y-183609523D01*
X90302438Y-183609523D02*
X90350057Y-183561904D01*
X90350057Y-183561904D02*
X90445295Y-183514285D01*
X90445295Y-183514285D02*
X90540533Y-183514285D01*
X90540533Y-183514285D02*
X90683390Y-183561904D01*
X90683390Y-183561904D02*
X91254819Y-184133332D01*
X91254819Y-184133332D02*
X91254819Y-183514285D01*
X349788095Y-172582319D02*
X349788095Y-171582319D01*
X349788095Y-172058509D02*
X350359523Y-172058509D01*
X350359523Y-172582319D02*
X350359523Y-171582319D01*
X351264285Y-171915652D02*
X351264285Y-172582319D01*
X351026190Y-171534700D02*
X350788095Y-172248985D01*
X350788095Y-172248985D02*
X351407142Y-172248985D01*
X84238095Y-64704819D02*
X84238095Y-63704819D01*
X84238095Y-64181009D02*
X84809523Y-64181009D01*
X84809523Y-64704819D02*
X84809523Y-63704819D01*
X85714285Y-63704819D02*
X85523809Y-63704819D01*
X85523809Y-63704819D02*
X85428571Y-63752438D01*
X85428571Y-63752438D02*
X85380952Y-63800057D01*
X85380952Y-63800057D02*
X85285714Y-63942914D01*
X85285714Y-63942914D02*
X85238095Y-64133390D01*
X85238095Y-64133390D02*
X85238095Y-64514342D01*
X85238095Y-64514342D02*
X85285714Y-64609580D01*
X85285714Y-64609580D02*
X85333333Y-64657200D01*
X85333333Y-64657200D02*
X85428571Y-64704819D01*
X85428571Y-64704819D02*
X85619047Y-64704819D01*
X85619047Y-64704819D02*
X85714285Y-64657200D01*
X85714285Y-64657200D02*
X85761904Y-64609580D01*
X85761904Y-64609580D02*
X85809523Y-64514342D01*
X85809523Y-64514342D02*
X85809523Y-64276247D01*
X85809523Y-64276247D02*
X85761904Y-64181009D01*
X85761904Y-64181009D02*
X85714285Y-64133390D01*
X85714285Y-64133390D02*
X85619047Y-64085771D01*
X85619047Y-64085771D02*
X85428571Y-64085771D01*
X85428571Y-64085771D02*
X85333333Y-64133390D01*
X85333333Y-64133390D02*
X85285714Y-64181009D01*
X85285714Y-64181009D02*
X85238095Y-64276247D01*
X59368095Y-127504819D02*
X59368095Y-126504819D01*
X59368095Y-126981009D02*
X59939523Y-126981009D01*
X59939523Y-127504819D02*
X59939523Y-126504819D01*
X60939523Y-127504819D02*
X60368095Y-127504819D01*
X60653809Y-127504819D02*
X60653809Y-126504819D01*
X60653809Y-126504819D02*
X60558571Y-126647676D01*
X60558571Y-126647676D02*
X60463333Y-126742914D01*
X60463333Y-126742914D02*
X60368095Y-126790533D01*
X170588095Y-130369819D02*
X170588095Y-129369819D01*
X170588095Y-129846009D02*
X171159523Y-129846009D01*
X171159523Y-130369819D02*
X171159523Y-129369819D01*
X172111904Y-129369819D02*
X171635714Y-129369819D01*
X171635714Y-129369819D02*
X171588095Y-129846009D01*
X171588095Y-129846009D02*
X171635714Y-129798390D01*
X171635714Y-129798390D02*
X171730952Y-129750771D01*
X171730952Y-129750771D02*
X171969047Y-129750771D01*
X171969047Y-129750771D02*
X172064285Y-129798390D01*
X172064285Y-129798390D02*
X172111904Y-129846009D01*
X172111904Y-129846009D02*
X172159523Y-129941247D01*
X172159523Y-129941247D02*
X172159523Y-130179342D01*
X172159523Y-130179342D02*
X172111904Y-130274580D01*
X172111904Y-130274580D02*
X172064285Y-130322200D01*
X172064285Y-130322200D02*
X171969047Y-130369819D01*
X171969047Y-130369819D02*
X171730952Y-130369819D01*
X171730952Y-130369819D02*
X171635714Y-130322200D01*
X171635714Y-130322200D02*
X171588095Y-130274580D01*
X228638095Y-53954819D02*
X228638095Y-52954819D01*
X228638095Y-53431009D02*
X229209523Y-53431009D01*
X229209523Y-53954819D02*
X229209523Y-52954819D01*
X229638095Y-53050057D02*
X229685714Y-53002438D01*
X229685714Y-53002438D02*
X229780952Y-52954819D01*
X229780952Y-52954819D02*
X230019047Y-52954819D01*
X230019047Y-52954819D02*
X230114285Y-53002438D01*
X230114285Y-53002438D02*
X230161904Y-53050057D01*
X230161904Y-53050057D02*
X230209523Y-53145295D01*
X230209523Y-53145295D02*
X230209523Y-53240533D01*
X230209523Y-53240533D02*
X230161904Y-53383390D01*
X230161904Y-53383390D02*
X229590476Y-53954819D01*
X229590476Y-53954819D02*
X230209523Y-53954819D01*
X78070524Y-63922295D02*
X78070524Y-63122295D01*
X78070524Y-63122295D02*
X78261000Y-63122295D01*
X78261000Y-63122295D02*
X78375286Y-63160390D01*
X78375286Y-63160390D02*
X78451476Y-63236580D01*
X78451476Y-63236580D02*
X78489571Y-63312771D01*
X78489571Y-63312771D02*
X78527667Y-63465152D01*
X78527667Y-63465152D02*
X78527667Y-63579438D01*
X78527667Y-63579438D02*
X78489571Y-63731819D01*
X78489571Y-63731819D02*
X78451476Y-63808009D01*
X78451476Y-63808009D02*
X78375286Y-63884200D01*
X78375286Y-63884200D02*
X78261000Y-63922295D01*
X78261000Y-63922295D02*
X78070524Y-63922295D01*
X78832428Y-63198485D02*
X78870524Y-63160390D01*
X78870524Y-63160390D02*
X78946714Y-63122295D01*
X78946714Y-63122295D02*
X79137190Y-63122295D01*
X79137190Y-63122295D02*
X79213381Y-63160390D01*
X79213381Y-63160390D02*
X79251476Y-63198485D01*
X79251476Y-63198485D02*
X79289571Y-63274676D01*
X79289571Y-63274676D02*
X79289571Y-63350866D01*
X79289571Y-63350866D02*
X79251476Y-63465152D01*
X79251476Y-63465152D02*
X78794333Y-63922295D01*
X78794333Y-63922295D02*
X79289571Y-63922295D01*
X66767571Y-74082295D02*
X66767571Y-73282295D01*
X66767571Y-73282295D02*
X66958047Y-73282295D01*
X66958047Y-73282295D02*
X67072333Y-73320390D01*
X67072333Y-73320390D02*
X67148523Y-73396580D01*
X67148523Y-73396580D02*
X67186618Y-73472771D01*
X67186618Y-73472771D02*
X67224714Y-73625152D01*
X67224714Y-73625152D02*
X67224714Y-73739438D01*
X67224714Y-73739438D02*
X67186618Y-73891819D01*
X67186618Y-73891819D02*
X67148523Y-73968009D01*
X67148523Y-73968009D02*
X67072333Y-74044200D01*
X67072333Y-74044200D02*
X66958047Y-74082295D01*
X66958047Y-74082295D02*
X66767571Y-74082295D01*
X67529475Y-73358485D02*
X67567571Y-73320390D01*
X67567571Y-73320390D02*
X67643761Y-73282295D01*
X67643761Y-73282295D02*
X67834237Y-73282295D01*
X67834237Y-73282295D02*
X67910428Y-73320390D01*
X67910428Y-73320390D02*
X67948523Y-73358485D01*
X67948523Y-73358485D02*
X67986618Y-73434676D01*
X67986618Y-73434676D02*
X67986618Y-73510866D01*
X67986618Y-73510866D02*
X67948523Y-73625152D01*
X67948523Y-73625152D02*
X67491380Y-74082295D01*
X67491380Y-74082295D02*
X67986618Y-74082295D01*
X68291380Y-73358485D02*
X68329476Y-73320390D01*
X68329476Y-73320390D02*
X68405666Y-73282295D01*
X68405666Y-73282295D02*
X68596142Y-73282295D01*
X68596142Y-73282295D02*
X68672333Y-73320390D01*
X68672333Y-73320390D02*
X68710428Y-73358485D01*
X68710428Y-73358485D02*
X68748523Y-73434676D01*
X68748523Y-73434676D02*
X68748523Y-73510866D01*
X68748523Y-73510866D02*
X68710428Y-73625152D01*
X68710428Y-73625152D02*
X68253285Y-74082295D01*
X68253285Y-74082295D02*
X68748523Y-74082295D01*
X78070524Y-76622295D02*
X78070524Y-75822295D01*
X78070524Y-75822295D02*
X78261000Y-75822295D01*
X78261000Y-75822295D02*
X78375286Y-75860390D01*
X78375286Y-75860390D02*
X78451476Y-75936580D01*
X78451476Y-75936580D02*
X78489571Y-76012771D01*
X78489571Y-76012771D02*
X78527667Y-76165152D01*
X78527667Y-76165152D02*
X78527667Y-76279438D01*
X78527667Y-76279438D02*
X78489571Y-76431819D01*
X78489571Y-76431819D02*
X78451476Y-76508009D01*
X78451476Y-76508009D02*
X78375286Y-76584200D01*
X78375286Y-76584200D02*
X78261000Y-76622295D01*
X78261000Y-76622295D02*
X78070524Y-76622295D01*
X78794333Y-75822295D02*
X79327667Y-75822295D01*
X79327667Y-75822295D02*
X78984809Y-76622295D01*
X66775714Y-71542295D02*
X66775714Y-70742295D01*
X66775714Y-70742295D02*
X66966190Y-70742295D01*
X66966190Y-70742295D02*
X67080476Y-70780390D01*
X67080476Y-70780390D02*
X67156666Y-70856580D01*
X67156666Y-70856580D02*
X67194761Y-70932771D01*
X67194761Y-70932771D02*
X67232857Y-71085152D01*
X67232857Y-71085152D02*
X67232857Y-71199438D01*
X67232857Y-71199438D02*
X67194761Y-71351819D01*
X67194761Y-71351819D02*
X67156666Y-71428009D01*
X67156666Y-71428009D02*
X67080476Y-71504200D01*
X67080476Y-71504200D02*
X66966190Y-71542295D01*
X66966190Y-71542295D02*
X66775714Y-71542295D01*
X67537618Y-70818485D02*
X67575714Y-70780390D01*
X67575714Y-70780390D02*
X67651904Y-70742295D01*
X67651904Y-70742295D02*
X67842380Y-70742295D01*
X67842380Y-70742295D02*
X67918571Y-70780390D01*
X67918571Y-70780390D02*
X67956666Y-70818485D01*
X67956666Y-70818485D02*
X67994761Y-70894676D01*
X67994761Y-70894676D02*
X67994761Y-70970866D01*
X67994761Y-70970866D02*
X67956666Y-71085152D01*
X67956666Y-71085152D02*
X67499523Y-71542295D01*
X67499523Y-71542295D02*
X67994761Y-71542295D01*
X68680476Y-70742295D02*
X68528095Y-70742295D01*
X68528095Y-70742295D02*
X68451904Y-70780390D01*
X68451904Y-70780390D02*
X68413809Y-70818485D01*
X68413809Y-70818485D02*
X68337619Y-70932771D01*
X68337619Y-70932771D02*
X68299523Y-71085152D01*
X68299523Y-71085152D02*
X68299523Y-71389914D01*
X68299523Y-71389914D02*
X68337619Y-71466104D01*
X68337619Y-71466104D02*
X68375714Y-71504200D01*
X68375714Y-71504200D02*
X68451904Y-71542295D01*
X68451904Y-71542295D02*
X68604285Y-71542295D01*
X68604285Y-71542295D02*
X68680476Y-71504200D01*
X68680476Y-71504200D02*
X68718571Y-71466104D01*
X68718571Y-71466104D02*
X68756666Y-71389914D01*
X68756666Y-71389914D02*
X68756666Y-71199438D01*
X68756666Y-71199438D02*
X68718571Y-71123247D01*
X68718571Y-71123247D02*
X68680476Y-71085152D01*
X68680476Y-71085152D02*
X68604285Y-71047057D01*
X68604285Y-71047057D02*
X68451904Y-71047057D01*
X68451904Y-71047057D02*
X68375714Y-71085152D01*
X68375714Y-71085152D02*
X68337619Y-71123247D01*
X68337619Y-71123247D02*
X68299523Y-71199438D01*
X69670952Y-70704200D02*
X68985238Y-71732771D01*
X69899523Y-71313723D02*
X70280476Y-71313723D01*
X69823333Y-71542295D02*
X70090000Y-70742295D01*
X70090000Y-70742295D02*
X70356666Y-71542295D01*
X70775714Y-70742295D02*
X70851904Y-70742295D01*
X70851904Y-70742295D02*
X70928095Y-70780390D01*
X70928095Y-70780390D02*
X70966190Y-70818485D01*
X70966190Y-70818485D02*
X71004285Y-70894676D01*
X71004285Y-70894676D02*
X71042380Y-71047057D01*
X71042380Y-71047057D02*
X71042380Y-71237533D01*
X71042380Y-71237533D02*
X71004285Y-71389914D01*
X71004285Y-71389914D02*
X70966190Y-71466104D01*
X70966190Y-71466104D02*
X70928095Y-71504200D01*
X70928095Y-71504200D02*
X70851904Y-71542295D01*
X70851904Y-71542295D02*
X70775714Y-71542295D01*
X70775714Y-71542295D02*
X70699523Y-71504200D01*
X70699523Y-71504200D02*
X70661428Y-71466104D01*
X70661428Y-71466104D02*
X70623333Y-71389914D01*
X70623333Y-71389914D02*
X70585237Y-71237533D01*
X70585237Y-71237533D02*
X70585237Y-71047057D01*
X70585237Y-71047057D02*
X70623333Y-70894676D01*
X70623333Y-70894676D02*
X70661428Y-70818485D01*
X70661428Y-70818485D02*
X70699523Y-70780390D01*
X70699523Y-70780390D02*
X70775714Y-70742295D01*
X78070524Y-66462295D02*
X78070524Y-65662295D01*
X78070524Y-65662295D02*
X78261000Y-65662295D01*
X78261000Y-65662295D02*
X78375286Y-65700390D01*
X78375286Y-65700390D02*
X78451476Y-65776580D01*
X78451476Y-65776580D02*
X78489571Y-65852771D01*
X78489571Y-65852771D02*
X78527667Y-66005152D01*
X78527667Y-66005152D02*
X78527667Y-66119438D01*
X78527667Y-66119438D02*
X78489571Y-66271819D01*
X78489571Y-66271819D02*
X78451476Y-66348009D01*
X78451476Y-66348009D02*
X78375286Y-66424200D01*
X78375286Y-66424200D02*
X78261000Y-66462295D01*
X78261000Y-66462295D02*
X78070524Y-66462295D01*
X78794333Y-65662295D02*
X79289571Y-65662295D01*
X79289571Y-65662295D02*
X79022905Y-65967057D01*
X79022905Y-65967057D02*
X79137190Y-65967057D01*
X79137190Y-65967057D02*
X79213381Y-66005152D01*
X79213381Y-66005152D02*
X79251476Y-66043247D01*
X79251476Y-66043247D02*
X79289571Y-66119438D01*
X79289571Y-66119438D02*
X79289571Y-66309914D01*
X79289571Y-66309914D02*
X79251476Y-66386104D01*
X79251476Y-66386104D02*
X79213381Y-66424200D01*
X79213381Y-66424200D02*
X79137190Y-66462295D01*
X79137190Y-66462295D02*
X78908619Y-66462295D01*
X78908619Y-66462295D02*
X78832428Y-66424200D01*
X78832428Y-66424200D02*
X78794333Y-66386104D01*
X77309524Y-53762295D02*
X77309524Y-52962295D01*
X77309524Y-52962295D02*
X77500000Y-52962295D01*
X77500000Y-52962295D02*
X77614286Y-53000390D01*
X77614286Y-53000390D02*
X77690476Y-53076580D01*
X77690476Y-53076580D02*
X77728571Y-53152771D01*
X77728571Y-53152771D02*
X77766667Y-53305152D01*
X77766667Y-53305152D02*
X77766667Y-53419438D01*
X77766667Y-53419438D02*
X77728571Y-53571819D01*
X77728571Y-53571819D02*
X77690476Y-53648009D01*
X77690476Y-53648009D02*
X77614286Y-53724200D01*
X77614286Y-53724200D02*
X77500000Y-53762295D01*
X77500000Y-53762295D02*
X77309524Y-53762295D01*
X78261905Y-52962295D02*
X78338095Y-52962295D01*
X78338095Y-52962295D02*
X78414286Y-53000390D01*
X78414286Y-53000390D02*
X78452381Y-53038485D01*
X78452381Y-53038485D02*
X78490476Y-53114676D01*
X78490476Y-53114676D02*
X78528571Y-53267057D01*
X78528571Y-53267057D02*
X78528571Y-53457533D01*
X78528571Y-53457533D02*
X78490476Y-53609914D01*
X78490476Y-53609914D02*
X78452381Y-53686104D01*
X78452381Y-53686104D02*
X78414286Y-53724200D01*
X78414286Y-53724200D02*
X78338095Y-53762295D01*
X78338095Y-53762295D02*
X78261905Y-53762295D01*
X78261905Y-53762295D02*
X78185714Y-53724200D01*
X78185714Y-53724200D02*
X78147619Y-53686104D01*
X78147619Y-53686104D02*
X78109524Y-53609914D01*
X78109524Y-53609914D02*
X78071428Y-53457533D01*
X78071428Y-53457533D02*
X78071428Y-53267057D01*
X78071428Y-53267057D02*
X78109524Y-53114676D01*
X78109524Y-53114676D02*
X78147619Y-53038485D01*
X78147619Y-53038485D02*
X78185714Y-53000390D01*
X78185714Y-53000390D02*
X78261905Y-52962295D01*
X67289524Y-58812295D02*
X67022857Y-58431342D01*
X66832381Y-58812295D02*
X66832381Y-58012295D01*
X66832381Y-58012295D02*
X67137143Y-58012295D01*
X67137143Y-58012295D02*
X67213333Y-58050390D01*
X67213333Y-58050390D02*
X67251428Y-58088485D01*
X67251428Y-58088485D02*
X67289524Y-58164676D01*
X67289524Y-58164676D02*
X67289524Y-58278961D01*
X67289524Y-58278961D02*
X67251428Y-58355152D01*
X67251428Y-58355152D02*
X67213333Y-58393247D01*
X67213333Y-58393247D02*
X67137143Y-58431342D01*
X67137143Y-58431342D02*
X66832381Y-58431342D01*
X67632381Y-58012295D02*
X67632381Y-58659914D01*
X67632381Y-58659914D02*
X67670476Y-58736104D01*
X67670476Y-58736104D02*
X67708571Y-58774200D01*
X67708571Y-58774200D02*
X67784762Y-58812295D01*
X67784762Y-58812295D02*
X67937143Y-58812295D01*
X67937143Y-58812295D02*
X68013333Y-58774200D01*
X68013333Y-58774200D02*
X68051428Y-58736104D01*
X68051428Y-58736104D02*
X68089524Y-58659914D01*
X68089524Y-58659914D02*
X68089524Y-58012295D01*
X68470476Y-58812295D02*
X68470476Y-58012295D01*
X68470476Y-58012295D02*
X68927619Y-58812295D01*
X68927619Y-58812295D02*
X68927619Y-58012295D01*
X78070524Y-79162295D02*
X78070524Y-78362295D01*
X78070524Y-78362295D02*
X78261000Y-78362295D01*
X78261000Y-78362295D02*
X78375286Y-78400390D01*
X78375286Y-78400390D02*
X78451476Y-78476580D01*
X78451476Y-78476580D02*
X78489571Y-78552771D01*
X78489571Y-78552771D02*
X78527667Y-78705152D01*
X78527667Y-78705152D02*
X78527667Y-78819438D01*
X78527667Y-78819438D02*
X78489571Y-78971819D01*
X78489571Y-78971819D02*
X78451476Y-79048009D01*
X78451476Y-79048009D02*
X78375286Y-79124200D01*
X78375286Y-79124200D02*
X78261000Y-79162295D01*
X78261000Y-79162295D02*
X78070524Y-79162295D01*
X78984809Y-78705152D02*
X78908619Y-78667057D01*
X78908619Y-78667057D02*
X78870524Y-78628961D01*
X78870524Y-78628961D02*
X78832428Y-78552771D01*
X78832428Y-78552771D02*
X78832428Y-78514676D01*
X78832428Y-78514676D02*
X78870524Y-78438485D01*
X78870524Y-78438485D02*
X78908619Y-78400390D01*
X78908619Y-78400390D02*
X78984809Y-78362295D01*
X78984809Y-78362295D02*
X79137190Y-78362295D01*
X79137190Y-78362295D02*
X79213381Y-78400390D01*
X79213381Y-78400390D02*
X79251476Y-78438485D01*
X79251476Y-78438485D02*
X79289571Y-78514676D01*
X79289571Y-78514676D02*
X79289571Y-78552771D01*
X79289571Y-78552771D02*
X79251476Y-78628961D01*
X79251476Y-78628961D02*
X79213381Y-78667057D01*
X79213381Y-78667057D02*
X79137190Y-78705152D01*
X79137190Y-78705152D02*
X78984809Y-78705152D01*
X78984809Y-78705152D02*
X78908619Y-78743247D01*
X78908619Y-78743247D02*
X78870524Y-78781342D01*
X78870524Y-78781342D02*
X78832428Y-78857533D01*
X78832428Y-78857533D02*
X78832428Y-79009914D01*
X78832428Y-79009914D02*
X78870524Y-79086104D01*
X78870524Y-79086104D02*
X78908619Y-79124200D01*
X78908619Y-79124200D02*
X78984809Y-79162295D01*
X78984809Y-79162295D02*
X79137190Y-79162295D01*
X79137190Y-79162295D02*
X79213381Y-79124200D01*
X79213381Y-79124200D02*
X79251476Y-79086104D01*
X79251476Y-79086104D02*
X79289571Y-79009914D01*
X79289571Y-79009914D02*
X79289571Y-78857533D01*
X79289571Y-78857533D02*
X79251476Y-78781342D01*
X79251476Y-78781342D02*
X79213381Y-78743247D01*
X79213381Y-78743247D02*
X79137190Y-78705152D01*
X78070524Y-74082295D02*
X78070524Y-73282295D01*
X78070524Y-73282295D02*
X78261000Y-73282295D01*
X78261000Y-73282295D02*
X78375286Y-73320390D01*
X78375286Y-73320390D02*
X78451476Y-73396580D01*
X78451476Y-73396580D02*
X78489571Y-73472771D01*
X78489571Y-73472771D02*
X78527667Y-73625152D01*
X78527667Y-73625152D02*
X78527667Y-73739438D01*
X78527667Y-73739438D02*
X78489571Y-73891819D01*
X78489571Y-73891819D02*
X78451476Y-73968009D01*
X78451476Y-73968009D02*
X78375286Y-74044200D01*
X78375286Y-74044200D02*
X78261000Y-74082295D01*
X78261000Y-74082295D02*
X78070524Y-74082295D01*
X79213381Y-73282295D02*
X79061000Y-73282295D01*
X79061000Y-73282295D02*
X78984809Y-73320390D01*
X78984809Y-73320390D02*
X78946714Y-73358485D01*
X78946714Y-73358485D02*
X78870524Y-73472771D01*
X78870524Y-73472771D02*
X78832428Y-73625152D01*
X78832428Y-73625152D02*
X78832428Y-73929914D01*
X78832428Y-73929914D02*
X78870524Y-74006104D01*
X78870524Y-74006104D02*
X78908619Y-74044200D01*
X78908619Y-74044200D02*
X78984809Y-74082295D01*
X78984809Y-74082295D02*
X79137190Y-74082295D01*
X79137190Y-74082295D02*
X79213381Y-74044200D01*
X79213381Y-74044200D02*
X79251476Y-74006104D01*
X79251476Y-74006104D02*
X79289571Y-73929914D01*
X79289571Y-73929914D02*
X79289571Y-73739438D01*
X79289571Y-73739438D02*
X79251476Y-73663247D01*
X79251476Y-73663247D02*
X79213381Y-73625152D01*
X79213381Y-73625152D02*
X79137190Y-73587057D01*
X79137190Y-73587057D02*
X78984809Y-73587057D01*
X78984809Y-73587057D02*
X78908619Y-73625152D01*
X78908619Y-73625152D02*
X78870524Y-73663247D01*
X78870524Y-73663247D02*
X78832428Y-73739438D01*
X69688571Y-80132295D02*
X69688571Y-79332295D01*
X69688571Y-79332295D02*
X69879047Y-79332295D01*
X69879047Y-79332295D02*
X69993333Y-79370390D01*
X69993333Y-79370390D02*
X70069523Y-79446580D01*
X70069523Y-79446580D02*
X70107618Y-79522771D01*
X70107618Y-79522771D02*
X70145714Y-79675152D01*
X70145714Y-79675152D02*
X70145714Y-79789438D01*
X70145714Y-79789438D02*
X70107618Y-79941819D01*
X70107618Y-79941819D02*
X70069523Y-80018009D01*
X70069523Y-80018009D02*
X69993333Y-80094200D01*
X69993333Y-80094200D02*
X69879047Y-80132295D01*
X69879047Y-80132295D02*
X69688571Y-80132295D01*
X70907618Y-80132295D02*
X70450475Y-80132295D01*
X70679047Y-80132295D02*
X70679047Y-79332295D01*
X70679047Y-79332295D02*
X70602856Y-79446580D01*
X70602856Y-79446580D02*
X70526666Y-79522771D01*
X70526666Y-79522771D02*
X70450475Y-79560866D01*
X71631428Y-79332295D02*
X71250476Y-79332295D01*
X71250476Y-79332295D02*
X71212380Y-79713247D01*
X71212380Y-79713247D02*
X71250476Y-79675152D01*
X71250476Y-79675152D02*
X71326666Y-79637057D01*
X71326666Y-79637057D02*
X71517142Y-79637057D01*
X71517142Y-79637057D02*
X71593333Y-79675152D01*
X71593333Y-79675152D02*
X71631428Y-79713247D01*
X71631428Y-79713247D02*
X71669523Y-79789438D01*
X71669523Y-79789438D02*
X71669523Y-79979914D01*
X71669523Y-79979914D02*
X71631428Y-80056104D01*
X71631428Y-80056104D02*
X71593333Y-80094200D01*
X71593333Y-80094200D02*
X71517142Y-80132295D01*
X71517142Y-80132295D02*
X71326666Y-80132295D01*
X71326666Y-80132295D02*
X71250476Y-80094200D01*
X71250476Y-80094200D02*
X71212380Y-80056104D01*
X66767571Y-79162295D02*
X66767571Y-78362295D01*
X66767571Y-78362295D02*
X66958047Y-78362295D01*
X66958047Y-78362295D02*
X67072333Y-78400390D01*
X67072333Y-78400390D02*
X67148523Y-78476580D01*
X67148523Y-78476580D02*
X67186618Y-78552771D01*
X67186618Y-78552771D02*
X67224714Y-78705152D01*
X67224714Y-78705152D02*
X67224714Y-78819438D01*
X67224714Y-78819438D02*
X67186618Y-78971819D01*
X67186618Y-78971819D02*
X67148523Y-79048009D01*
X67148523Y-79048009D02*
X67072333Y-79124200D01*
X67072333Y-79124200D02*
X66958047Y-79162295D01*
X66958047Y-79162295D02*
X66767571Y-79162295D01*
X67529475Y-78438485D02*
X67567571Y-78400390D01*
X67567571Y-78400390D02*
X67643761Y-78362295D01*
X67643761Y-78362295D02*
X67834237Y-78362295D01*
X67834237Y-78362295D02*
X67910428Y-78400390D01*
X67910428Y-78400390D02*
X67948523Y-78438485D01*
X67948523Y-78438485D02*
X67986618Y-78514676D01*
X67986618Y-78514676D02*
X67986618Y-78590866D01*
X67986618Y-78590866D02*
X67948523Y-78705152D01*
X67948523Y-78705152D02*
X67491380Y-79162295D01*
X67491380Y-79162295D02*
X67986618Y-79162295D01*
X68253285Y-78362295D02*
X68748523Y-78362295D01*
X68748523Y-78362295D02*
X68481857Y-78667057D01*
X68481857Y-78667057D02*
X68596142Y-78667057D01*
X68596142Y-78667057D02*
X68672333Y-78705152D01*
X68672333Y-78705152D02*
X68710428Y-78743247D01*
X68710428Y-78743247D02*
X68748523Y-78819438D01*
X68748523Y-78819438D02*
X68748523Y-79009914D01*
X68748523Y-79009914D02*
X68710428Y-79086104D01*
X68710428Y-79086104D02*
X68672333Y-79124200D01*
X68672333Y-79124200D02*
X68596142Y-79162295D01*
X68596142Y-79162295D02*
X68367571Y-79162295D01*
X68367571Y-79162295D02*
X68291380Y-79124200D01*
X68291380Y-79124200D02*
X68253285Y-79086104D01*
X66785714Y-69012295D02*
X66785714Y-68212295D01*
X66785714Y-68212295D02*
X66976190Y-68212295D01*
X66976190Y-68212295D02*
X67090476Y-68250390D01*
X67090476Y-68250390D02*
X67166666Y-68326580D01*
X67166666Y-68326580D02*
X67204761Y-68402771D01*
X67204761Y-68402771D02*
X67242857Y-68555152D01*
X67242857Y-68555152D02*
X67242857Y-68669438D01*
X67242857Y-68669438D02*
X67204761Y-68821819D01*
X67204761Y-68821819D02*
X67166666Y-68898009D01*
X67166666Y-68898009D02*
X67090476Y-68974200D01*
X67090476Y-68974200D02*
X66976190Y-69012295D01*
X66976190Y-69012295D02*
X66785714Y-69012295D01*
X67547618Y-68288485D02*
X67585714Y-68250390D01*
X67585714Y-68250390D02*
X67661904Y-68212295D01*
X67661904Y-68212295D02*
X67852380Y-68212295D01*
X67852380Y-68212295D02*
X67928571Y-68250390D01*
X67928571Y-68250390D02*
X67966666Y-68288485D01*
X67966666Y-68288485D02*
X68004761Y-68364676D01*
X68004761Y-68364676D02*
X68004761Y-68440866D01*
X68004761Y-68440866D02*
X67966666Y-68555152D01*
X67966666Y-68555152D02*
X67509523Y-69012295D01*
X67509523Y-69012295D02*
X68004761Y-69012295D01*
X68271428Y-68212295D02*
X68804762Y-68212295D01*
X68804762Y-68212295D02*
X68461904Y-69012295D01*
X69680952Y-68174200D02*
X68995238Y-69202771D01*
X69909523Y-68783723D02*
X70290476Y-68783723D01*
X69833333Y-69012295D02*
X70100000Y-68212295D01*
X70100000Y-68212295D02*
X70366666Y-69012295D01*
X71052380Y-69012295D02*
X70595237Y-69012295D01*
X70823809Y-69012295D02*
X70823809Y-68212295D01*
X70823809Y-68212295D02*
X70747618Y-68326580D01*
X70747618Y-68326580D02*
X70671428Y-68402771D01*
X70671428Y-68402771D02*
X70595237Y-68440866D01*
X78070524Y-56302295D02*
X78070524Y-55502295D01*
X78070524Y-55502295D02*
X78261000Y-55502295D01*
X78261000Y-55502295D02*
X78375286Y-55540390D01*
X78375286Y-55540390D02*
X78451476Y-55616580D01*
X78451476Y-55616580D02*
X78489571Y-55692771D01*
X78489571Y-55692771D02*
X78527667Y-55845152D01*
X78527667Y-55845152D02*
X78527667Y-55959438D01*
X78527667Y-55959438D02*
X78489571Y-56111819D01*
X78489571Y-56111819D02*
X78451476Y-56188009D01*
X78451476Y-56188009D02*
X78375286Y-56264200D01*
X78375286Y-56264200D02*
X78261000Y-56302295D01*
X78261000Y-56302295D02*
X78070524Y-56302295D01*
X79289571Y-56302295D02*
X78832428Y-56302295D01*
X79061000Y-56302295D02*
X79061000Y-55502295D01*
X79061000Y-55502295D02*
X78984809Y-55616580D01*
X78984809Y-55616580D02*
X78908619Y-55692771D01*
X78908619Y-55692771D02*
X78832428Y-55730866D01*
X67129476Y-55540390D02*
X67053286Y-55502295D01*
X67053286Y-55502295D02*
X66939000Y-55502295D01*
X66939000Y-55502295D02*
X66824714Y-55540390D01*
X66824714Y-55540390D02*
X66748524Y-55616580D01*
X66748524Y-55616580D02*
X66710429Y-55692771D01*
X66710429Y-55692771D02*
X66672333Y-55845152D01*
X66672333Y-55845152D02*
X66672333Y-55959438D01*
X66672333Y-55959438D02*
X66710429Y-56111819D01*
X66710429Y-56111819D02*
X66748524Y-56188009D01*
X66748524Y-56188009D02*
X66824714Y-56264200D01*
X66824714Y-56264200D02*
X66939000Y-56302295D01*
X66939000Y-56302295D02*
X67015191Y-56302295D01*
X67015191Y-56302295D02*
X67129476Y-56264200D01*
X67129476Y-56264200D02*
X67167572Y-56226104D01*
X67167572Y-56226104D02*
X67167572Y-55959438D01*
X67167572Y-55959438D02*
X67015191Y-55959438D01*
X67510429Y-56302295D02*
X67510429Y-55502295D01*
X67510429Y-55502295D02*
X67967572Y-56302295D01*
X67967572Y-56302295D02*
X67967572Y-55502295D01*
X68348524Y-56302295D02*
X68348524Y-55502295D01*
X68348524Y-55502295D02*
X68539000Y-55502295D01*
X68539000Y-55502295D02*
X68653286Y-55540390D01*
X68653286Y-55540390D02*
X68729476Y-55616580D01*
X68729476Y-55616580D02*
X68767571Y-55692771D01*
X68767571Y-55692771D02*
X68805667Y-55845152D01*
X68805667Y-55845152D02*
X68805667Y-55959438D01*
X68805667Y-55959438D02*
X68767571Y-56111819D01*
X68767571Y-56111819D02*
X68729476Y-56188009D01*
X68729476Y-56188009D02*
X68653286Y-56264200D01*
X68653286Y-56264200D02*
X68539000Y-56302295D01*
X68539000Y-56302295D02*
X68348524Y-56302295D01*
X79458131Y-80658807D02*
X78963156Y-80163832D01*
X78963156Y-80163832D02*
X79081007Y-80045981D01*
X79081007Y-80045981D02*
X79175288Y-79998841D01*
X79175288Y-79998841D02*
X79269569Y-79998841D01*
X79269569Y-79998841D02*
X79340279Y-80022411D01*
X79340279Y-80022411D02*
X79458131Y-80093122D01*
X79458131Y-80093122D02*
X79528841Y-80163832D01*
X79528841Y-80163832D02*
X79599552Y-80281683D01*
X79599552Y-80281683D02*
X79623122Y-80352394D01*
X79623122Y-80352394D02*
X79623122Y-80446675D01*
X79623122Y-80446675D02*
X79575982Y-80540956D01*
X79575982Y-80540956D02*
X79458131Y-80658807D01*
X79976676Y-80140262D02*
X80070956Y-80045981D01*
X80070956Y-80045981D02*
X80094527Y-79975271D01*
X80094527Y-79975271D02*
X80094527Y-79928130D01*
X80094527Y-79928130D02*
X80070956Y-79810279D01*
X80070956Y-79810279D02*
X80000246Y-79692428D01*
X80000246Y-79692428D02*
X79811684Y-79503866D01*
X79811684Y-79503866D02*
X79740973Y-79480296D01*
X79740973Y-79480296D02*
X79693833Y-79480296D01*
X79693833Y-79480296D02*
X79623122Y-79503866D01*
X79623122Y-79503866D02*
X79528841Y-79598147D01*
X79528841Y-79598147D02*
X79505271Y-79668858D01*
X79505271Y-79668858D02*
X79505271Y-79715998D01*
X79505271Y-79715998D02*
X79528841Y-79786709D01*
X79528841Y-79786709D02*
X79646692Y-79904560D01*
X79646692Y-79904560D02*
X79717403Y-79928130D01*
X79717403Y-79928130D02*
X79764543Y-79928130D01*
X79764543Y-79928130D02*
X79835254Y-79904560D01*
X79835254Y-79904560D02*
X79929535Y-79810279D01*
X79929535Y-79810279D02*
X79953105Y-79739568D01*
X79953105Y-79739568D02*
X79953105Y-79692428D01*
X79953105Y-79692428D02*
X79929535Y-79621717D01*
X66785714Y-66462295D02*
X66785714Y-65662295D01*
X66785714Y-65662295D02*
X66976190Y-65662295D01*
X66976190Y-65662295D02*
X67090476Y-65700390D01*
X67090476Y-65700390D02*
X67166666Y-65776580D01*
X67166666Y-65776580D02*
X67204761Y-65852771D01*
X67204761Y-65852771D02*
X67242857Y-66005152D01*
X67242857Y-66005152D02*
X67242857Y-66119438D01*
X67242857Y-66119438D02*
X67204761Y-66271819D01*
X67204761Y-66271819D02*
X67166666Y-66348009D01*
X67166666Y-66348009D02*
X67090476Y-66424200D01*
X67090476Y-66424200D02*
X66976190Y-66462295D01*
X66976190Y-66462295D02*
X66785714Y-66462295D01*
X67547618Y-65738485D02*
X67585714Y-65700390D01*
X67585714Y-65700390D02*
X67661904Y-65662295D01*
X67661904Y-65662295D02*
X67852380Y-65662295D01*
X67852380Y-65662295D02*
X67928571Y-65700390D01*
X67928571Y-65700390D02*
X67966666Y-65738485D01*
X67966666Y-65738485D02*
X68004761Y-65814676D01*
X68004761Y-65814676D02*
X68004761Y-65890866D01*
X68004761Y-65890866D02*
X67966666Y-66005152D01*
X67966666Y-66005152D02*
X67509523Y-66462295D01*
X67509523Y-66462295D02*
X68004761Y-66462295D01*
X68461904Y-66005152D02*
X68385714Y-65967057D01*
X68385714Y-65967057D02*
X68347619Y-65928961D01*
X68347619Y-65928961D02*
X68309523Y-65852771D01*
X68309523Y-65852771D02*
X68309523Y-65814676D01*
X68309523Y-65814676D02*
X68347619Y-65738485D01*
X68347619Y-65738485D02*
X68385714Y-65700390D01*
X68385714Y-65700390D02*
X68461904Y-65662295D01*
X68461904Y-65662295D02*
X68614285Y-65662295D01*
X68614285Y-65662295D02*
X68690476Y-65700390D01*
X68690476Y-65700390D02*
X68728571Y-65738485D01*
X68728571Y-65738485D02*
X68766666Y-65814676D01*
X68766666Y-65814676D02*
X68766666Y-65852771D01*
X68766666Y-65852771D02*
X68728571Y-65928961D01*
X68728571Y-65928961D02*
X68690476Y-65967057D01*
X68690476Y-65967057D02*
X68614285Y-66005152D01*
X68614285Y-66005152D02*
X68461904Y-66005152D01*
X68461904Y-66005152D02*
X68385714Y-66043247D01*
X68385714Y-66043247D02*
X68347619Y-66081342D01*
X68347619Y-66081342D02*
X68309523Y-66157533D01*
X68309523Y-66157533D02*
X68309523Y-66309914D01*
X68309523Y-66309914D02*
X68347619Y-66386104D01*
X68347619Y-66386104D02*
X68385714Y-66424200D01*
X68385714Y-66424200D02*
X68461904Y-66462295D01*
X68461904Y-66462295D02*
X68614285Y-66462295D01*
X68614285Y-66462295D02*
X68690476Y-66424200D01*
X68690476Y-66424200D02*
X68728571Y-66386104D01*
X68728571Y-66386104D02*
X68766666Y-66309914D01*
X68766666Y-66309914D02*
X68766666Y-66157533D01*
X68766666Y-66157533D02*
X68728571Y-66081342D01*
X68728571Y-66081342D02*
X68690476Y-66043247D01*
X68690476Y-66043247D02*
X68614285Y-66005152D01*
X69680952Y-65624200D02*
X68995238Y-66652771D01*
X69909523Y-66233723D02*
X70290476Y-66233723D01*
X69833333Y-66462295D02*
X70100000Y-65662295D01*
X70100000Y-65662295D02*
X70366666Y-66462295D01*
X70595237Y-65738485D02*
X70633333Y-65700390D01*
X70633333Y-65700390D02*
X70709523Y-65662295D01*
X70709523Y-65662295D02*
X70899999Y-65662295D01*
X70899999Y-65662295D02*
X70976190Y-65700390D01*
X70976190Y-65700390D02*
X71014285Y-65738485D01*
X71014285Y-65738485D02*
X71052380Y-65814676D01*
X71052380Y-65814676D02*
X71052380Y-65890866D01*
X71052380Y-65890866D02*
X71014285Y-66005152D01*
X71014285Y-66005152D02*
X70557142Y-66462295D01*
X70557142Y-66462295D02*
X71052380Y-66462295D01*
X78070524Y-69002295D02*
X78070524Y-68202295D01*
X78070524Y-68202295D02*
X78261000Y-68202295D01*
X78261000Y-68202295D02*
X78375286Y-68240390D01*
X78375286Y-68240390D02*
X78451476Y-68316580D01*
X78451476Y-68316580D02*
X78489571Y-68392771D01*
X78489571Y-68392771D02*
X78527667Y-68545152D01*
X78527667Y-68545152D02*
X78527667Y-68659438D01*
X78527667Y-68659438D02*
X78489571Y-68811819D01*
X78489571Y-68811819D02*
X78451476Y-68888009D01*
X78451476Y-68888009D02*
X78375286Y-68964200D01*
X78375286Y-68964200D02*
X78261000Y-69002295D01*
X78261000Y-69002295D02*
X78070524Y-69002295D01*
X79213381Y-68468961D02*
X79213381Y-69002295D01*
X79022905Y-68164200D02*
X78832428Y-68735628D01*
X78832428Y-68735628D02*
X79327667Y-68735628D01*
X66672333Y-60582295D02*
X66939000Y-61382295D01*
X66939000Y-61382295D02*
X67205666Y-60582295D01*
X67929476Y-61306104D02*
X67891380Y-61344200D01*
X67891380Y-61344200D02*
X67777095Y-61382295D01*
X67777095Y-61382295D02*
X67700904Y-61382295D01*
X67700904Y-61382295D02*
X67586618Y-61344200D01*
X67586618Y-61344200D02*
X67510428Y-61268009D01*
X67510428Y-61268009D02*
X67472333Y-61191819D01*
X67472333Y-61191819D02*
X67434237Y-61039438D01*
X67434237Y-61039438D02*
X67434237Y-60925152D01*
X67434237Y-60925152D02*
X67472333Y-60772771D01*
X67472333Y-60772771D02*
X67510428Y-60696580D01*
X67510428Y-60696580D02*
X67586618Y-60620390D01*
X67586618Y-60620390D02*
X67700904Y-60582295D01*
X67700904Y-60582295D02*
X67777095Y-60582295D01*
X67777095Y-60582295D02*
X67891380Y-60620390D01*
X67891380Y-60620390D02*
X67929476Y-60658485D01*
X68729476Y-61306104D02*
X68691380Y-61344200D01*
X68691380Y-61344200D02*
X68577095Y-61382295D01*
X68577095Y-61382295D02*
X68500904Y-61382295D01*
X68500904Y-61382295D02*
X68386618Y-61344200D01*
X68386618Y-61344200D02*
X68310428Y-61268009D01*
X68310428Y-61268009D02*
X68272333Y-61191819D01*
X68272333Y-61191819D02*
X68234237Y-61039438D01*
X68234237Y-61039438D02*
X68234237Y-60925152D01*
X68234237Y-60925152D02*
X68272333Y-60772771D01*
X68272333Y-60772771D02*
X68310428Y-60696580D01*
X68310428Y-60696580D02*
X68386618Y-60620390D01*
X68386618Y-60620390D02*
X68500904Y-60582295D01*
X68500904Y-60582295D02*
X68577095Y-60582295D01*
X68577095Y-60582295D02*
X68691380Y-60620390D01*
X68691380Y-60620390D02*
X68729476Y-60658485D01*
X67849999Y-80286033D02*
X67849999Y-79586033D01*
X67849999Y-79586033D02*
X68016666Y-79586033D01*
X68016666Y-79586033D02*
X68116666Y-79619366D01*
X68116666Y-79619366D02*
X68183333Y-79686033D01*
X68183333Y-79686033D02*
X68216666Y-79752700D01*
X68216666Y-79752700D02*
X68249999Y-79886033D01*
X68249999Y-79886033D02*
X68249999Y-79986033D01*
X68249999Y-79986033D02*
X68216666Y-80119366D01*
X68216666Y-80119366D02*
X68183333Y-80186033D01*
X68183333Y-80186033D02*
X68116666Y-80252700D01*
X68116666Y-80252700D02*
X68016666Y-80286033D01*
X68016666Y-80286033D02*
X67849999Y-80286033D01*
X68916666Y-80286033D02*
X68516666Y-80286033D01*
X68716666Y-80286033D02*
X68716666Y-79586033D01*
X68716666Y-79586033D02*
X68649999Y-79686033D01*
X68649999Y-79686033D02*
X68583333Y-79752700D01*
X68583333Y-79752700D02*
X68516666Y-79786033D01*
X69516666Y-79586033D02*
X69383333Y-79586033D01*
X69383333Y-79586033D02*
X69316666Y-79619366D01*
X69316666Y-79619366D02*
X69283333Y-79652700D01*
X69283333Y-79652700D02*
X69216666Y-79752700D01*
X69216666Y-79752700D02*
X69183333Y-79886033D01*
X69183333Y-79886033D02*
X69183333Y-80152700D01*
X69183333Y-80152700D02*
X69216666Y-80219366D01*
X69216666Y-80219366D02*
X69250000Y-80252700D01*
X69250000Y-80252700D02*
X69316666Y-80286033D01*
X69316666Y-80286033D02*
X69450000Y-80286033D01*
X69450000Y-80286033D02*
X69516666Y-80252700D01*
X69516666Y-80252700D02*
X69550000Y-80219366D01*
X69550000Y-80219366D02*
X69583333Y-80152700D01*
X69583333Y-80152700D02*
X69583333Y-79986033D01*
X69583333Y-79986033D02*
X69550000Y-79919366D01*
X69550000Y-79919366D02*
X69516666Y-79886033D01*
X69516666Y-79886033D02*
X69450000Y-79852700D01*
X69450000Y-79852700D02*
X69316666Y-79852700D01*
X69316666Y-79852700D02*
X69250000Y-79886033D01*
X69250000Y-79886033D02*
X69216666Y-79919366D01*
X69216666Y-79919366D02*
X69183333Y-79986033D01*
X72228571Y-80132295D02*
X72228571Y-79332295D01*
X72228571Y-79332295D02*
X72419047Y-79332295D01*
X72419047Y-79332295D02*
X72533333Y-79370390D01*
X72533333Y-79370390D02*
X72609523Y-79446580D01*
X72609523Y-79446580D02*
X72647618Y-79522771D01*
X72647618Y-79522771D02*
X72685714Y-79675152D01*
X72685714Y-79675152D02*
X72685714Y-79789438D01*
X72685714Y-79789438D02*
X72647618Y-79941819D01*
X72647618Y-79941819D02*
X72609523Y-80018009D01*
X72609523Y-80018009D02*
X72533333Y-80094200D01*
X72533333Y-80094200D02*
X72419047Y-80132295D01*
X72419047Y-80132295D02*
X72228571Y-80132295D01*
X73447618Y-80132295D02*
X72990475Y-80132295D01*
X73219047Y-80132295D02*
X73219047Y-79332295D01*
X73219047Y-79332295D02*
X73142856Y-79446580D01*
X73142856Y-79446580D02*
X73066666Y-79522771D01*
X73066666Y-79522771D02*
X72990475Y-79560866D01*
X74133333Y-79598961D02*
X74133333Y-80132295D01*
X73942857Y-79294200D02*
X73752380Y-79865628D01*
X73752380Y-79865628D02*
X74247619Y-79865628D01*
X78070524Y-71542295D02*
X78070524Y-70742295D01*
X78070524Y-70742295D02*
X78261000Y-70742295D01*
X78261000Y-70742295D02*
X78375286Y-70780390D01*
X78375286Y-70780390D02*
X78451476Y-70856580D01*
X78451476Y-70856580D02*
X78489571Y-70932771D01*
X78489571Y-70932771D02*
X78527667Y-71085152D01*
X78527667Y-71085152D02*
X78527667Y-71199438D01*
X78527667Y-71199438D02*
X78489571Y-71351819D01*
X78489571Y-71351819D02*
X78451476Y-71428009D01*
X78451476Y-71428009D02*
X78375286Y-71504200D01*
X78375286Y-71504200D02*
X78261000Y-71542295D01*
X78261000Y-71542295D02*
X78070524Y-71542295D01*
X79251476Y-70742295D02*
X78870524Y-70742295D01*
X78870524Y-70742295D02*
X78832428Y-71123247D01*
X78832428Y-71123247D02*
X78870524Y-71085152D01*
X78870524Y-71085152D02*
X78946714Y-71047057D01*
X78946714Y-71047057D02*
X79137190Y-71047057D01*
X79137190Y-71047057D02*
X79213381Y-71085152D01*
X79213381Y-71085152D02*
X79251476Y-71123247D01*
X79251476Y-71123247D02*
X79289571Y-71199438D01*
X79289571Y-71199438D02*
X79289571Y-71389914D01*
X79289571Y-71389914D02*
X79251476Y-71466104D01*
X79251476Y-71466104D02*
X79213381Y-71504200D01*
X79213381Y-71504200D02*
X79137190Y-71542295D01*
X79137190Y-71542295D02*
X78946714Y-71542295D01*
X78946714Y-71542295D02*
X78870524Y-71504200D01*
X78870524Y-71504200D02*
X78832428Y-71466104D01*
X67186619Y-53762295D02*
X66919952Y-53381342D01*
X66729476Y-53762295D02*
X66729476Y-52962295D01*
X66729476Y-52962295D02*
X67034238Y-52962295D01*
X67034238Y-52962295D02*
X67110428Y-53000390D01*
X67110428Y-53000390D02*
X67148523Y-53038485D01*
X67148523Y-53038485D02*
X67186619Y-53114676D01*
X67186619Y-53114676D02*
X67186619Y-53228961D01*
X67186619Y-53228961D02*
X67148523Y-53305152D01*
X67148523Y-53305152D02*
X67110428Y-53343247D01*
X67110428Y-53343247D02*
X67034238Y-53381342D01*
X67034238Y-53381342D02*
X66729476Y-53381342D01*
X67491380Y-53533723D02*
X67872333Y-53533723D01*
X67415190Y-53762295D02*
X67681857Y-52962295D01*
X67681857Y-52962295D02*
X67948523Y-53762295D01*
X68138999Y-52962295D02*
X68329475Y-53762295D01*
X68329475Y-53762295D02*
X68481856Y-53190866D01*
X68481856Y-53190866D02*
X68634237Y-53762295D01*
X68634237Y-53762295D02*
X68824714Y-52962295D01*
X74719523Y-60630390D02*
X74643333Y-60592295D01*
X74643333Y-60592295D02*
X74529047Y-60592295D01*
X74529047Y-60592295D02*
X74414761Y-60630390D01*
X74414761Y-60630390D02*
X74338571Y-60706580D01*
X74338571Y-60706580D02*
X74300476Y-60782771D01*
X74300476Y-60782771D02*
X74262380Y-60935152D01*
X74262380Y-60935152D02*
X74262380Y-61049438D01*
X74262380Y-61049438D02*
X74300476Y-61201819D01*
X74300476Y-61201819D02*
X74338571Y-61278009D01*
X74338571Y-61278009D02*
X74414761Y-61354200D01*
X74414761Y-61354200D02*
X74529047Y-61392295D01*
X74529047Y-61392295D02*
X74605238Y-61392295D01*
X74605238Y-61392295D02*
X74719523Y-61354200D01*
X74719523Y-61354200D02*
X74757619Y-61316104D01*
X74757619Y-61316104D02*
X74757619Y-61049438D01*
X74757619Y-61049438D02*
X74605238Y-61049438D01*
X75100476Y-61392295D02*
X75100476Y-60592295D01*
X75100476Y-60592295D02*
X75557619Y-61392295D01*
X75557619Y-61392295D02*
X75557619Y-60592295D01*
X75938571Y-61392295D02*
X75938571Y-60592295D01*
X75938571Y-60592295D02*
X76129047Y-60592295D01*
X76129047Y-60592295D02*
X76243333Y-60630390D01*
X76243333Y-60630390D02*
X76319523Y-60706580D01*
X76319523Y-60706580D02*
X76357618Y-60782771D01*
X76357618Y-60782771D02*
X76395714Y-60935152D01*
X76395714Y-60935152D02*
X76395714Y-61049438D01*
X76395714Y-61049438D02*
X76357618Y-61201819D01*
X76357618Y-61201819D02*
X76319523Y-61278009D01*
X76319523Y-61278009D02*
X76243333Y-61354200D01*
X76243333Y-61354200D02*
X76129047Y-61392295D01*
X76129047Y-61392295D02*
X75938571Y-61392295D01*
X77309999Y-60554200D02*
X76624285Y-61582771D01*
X77576666Y-61392295D02*
X77576666Y-60592295D01*
X77576666Y-60592295D02*
X77767142Y-60592295D01*
X77767142Y-60592295D02*
X77881428Y-60630390D01*
X77881428Y-60630390D02*
X77957618Y-60706580D01*
X77957618Y-60706580D02*
X77995713Y-60782771D01*
X77995713Y-60782771D02*
X78033809Y-60935152D01*
X78033809Y-60935152D02*
X78033809Y-61049438D01*
X78033809Y-61049438D02*
X77995713Y-61201819D01*
X77995713Y-61201819D02*
X77957618Y-61278009D01*
X77957618Y-61278009D02*
X77881428Y-61354200D01*
X77881428Y-61354200D02*
X77767142Y-61392295D01*
X77767142Y-61392295D02*
X77576666Y-61392295D01*
X78795713Y-61392295D02*
X78338570Y-61392295D01*
X78567142Y-61392295D02*
X78567142Y-60592295D01*
X78567142Y-60592295D02*
X78490951Y-60706580D01*
X78490951Y-60706580D02*
X78414761Y-60782771D01*
X78414761Y-60782771D02*
X78338570Y-60820866D01*
X79557618Y-61392295D02*
X79100475Y-61392295D01*
X79329047Y-61392295D02*
X79329047Y-60592295D01*
X79329047Y-60592295D02*
X79252856Y-60706580D01*
X79252856Y-60706580D02*
X79176666Y-60782771D01*
X79176666Y-60782771D02*
X79100475Y-60820866D01*
X66767571Y-76622295D02*
X66767571Y-75822295D01*
X66767571Y-75822295D02*
X66958047Y-75822295D01*
X66958047Y-75822295D02*
X67072333Y-75860390D01*
X67072333Y-75860390D02*
X67148523Y-75936580D01*
X67148523Y-75936580D02*
X67186618Y-76012771D01*
X67186618Y-76012771D02*
X67224714Y-76165152D01*
X67224714Y-76165152D02*
X67224714Y-76279438D01*
X67224714Y-76279438D02*
X67186618Y-76431819D01*
X67186618Y-76431819D02*
X67148523Y-76508009D01*
X67148523Y-76508009D02*
X67072333Y-76584200D01*
X67072333Y-76584200D02*
X66958047Y-76622295D01*
X66958047Y-76622295D02*
X66767571Y-76622295D01*
X67529475Y-75898485D02*
X67567571Y-75860390D01*
X67567571Y-75860390D02*
X67643761Y-75822295D01*
X67643761Y-75822295D02*
X67834237Y-75822295D01*
X67834237Y-75822295D02*
X67910428Y-75860390D01*
X67910428Y-75860390D02*
X67948523Y-75898485D01*
X67948523Y-75898485D02*
X67986618Y-75974676D01*
X67986618Y-75974676D02*
X67986618Y-76050866D01*
X67986618Y-76050866D02*
X67948523Y-76165152D01*
X67948523Y-76165152D02*
X67491380Y-76622295D01*
X67491380Y-76622295D02*
X67986618Y-76622295D01*
X68481857Y-75822295D02*
X68558047Y-75822295D01*
X68558047Y-75822295D02*
X68634238Y-75860390D01*
X68634238Y-75860390D02*
X68672333Y-75898485D01*
X68672333Y-75898485D02*
X68710428Y-75974676D01*
X68710428Y-75974676D02*
X68748523Y-76127057D01*
X68748523Y-76127057D02*
X68748523Y-76317533D01*
X68748523Y-76317533D02*
X68710428Y-76469914D01*
X68710428Y-76469914D02*
X68672333Y-76546104D01*
X68672333Y-76546104D02*
X68634238Y-76584200D01*
X68634238Y-76584200D02*
X68558047Y-76622295D01*
X68558047Y-76622295D02*
X68481857Y-76622295D01*
X68481857Y-76622295D02*
X68405666Y-76584200D01*
X68405666Y-76584200D02*
X68367571Y-76546104D01*
X68367571Y-76546104D02*
X68329476Y-76469914D01*
X68329476Y-76469914D02*
X68291380Y-76317533D01*
X68291380Y-76317533D02*
X68291380Y-76127057D01*
X68291380Y-76127057D02*
X68329476Y-75974676D01*
X68329476Y-75974676D02*
X68367571Y-75898485D01*
X68367571Y-75898485D02*
X68405666Y-75860390D01*
X68405666Y-75860390D02*
X68481857Y-75822295D01*
X65975489Y-79692428D02*
X66470464Y-79197453D01*
X66470464Y-79197453D02*
X66588315Y-79315304D01*
X66588315Y-79315304D02*
X66635456Y-79409585D01*
X66635456Y-79409585D02*
X66635456Y-79503866D01*
X66635456Y-79503866D02*
X66611885Y-79574577D01*
X66611885Y-79574577D02*
X66541175Y-79692428D01*
X66541175Y-79692428D02*
X66470464Y-79763138D01*
X66470464Y-79763138D02*
X66352613Y-79833849D01*
X66352613Y-79833849D02*
X66281902Y-79857419D01*
X66281902Y-79857419D02*
X66187621Y-79857419D01*
X66187621Y-79857419D02*
X66093340Y-79810279D01*
X66093340Y-79810279D02*
X65975489Y-79692428D01*
X66894728Y-79715998D02*
X66941868Y-79715998D01*
X66941868Y-79715998D02*
X67012579Y-79739568D01*
X67012579Y-79739568D02*
X67130430Y-79857419D01*
X67130430Y-79857419D02*
X67154000Y-79928130D01*
X67154000Y-79928130D02*
X67154000Y-79975271D01*
X67154000Y-79975271D02*
X67130430Y-80045981D01*
X67130430Y-80045981D02*
X67083290Y-80093122D01*
X67083290Y-80093122D02*
X66989009Y-80140262D01*
X66989009Y-80140262D02*
X66423323Y-80140262D01*
X66423323Y-80140262D02*
X66729736Y-80446675D01*
X67201141Y-80918080D02*
X66918298Y-80635237D01*
X67059720Y-80776658D02*
X67554695Y-80281684D01*
X67554695Y-80281684D02*
X67436843Y-80305254D01*
X67436843Y-80305254D02*
X67342563Y-80305254D01*
X67342563Y-80305254D02*
X67271852Y-80281684D01*
X76849999Y-80286033D02*
X76849999Y-79586033D01*
X76849999Y-79586033D02*
X77016666Y-79586033D01*
X77016666Y-79586033D02*
X77116666Y-79619366D01*
X77116666Y-79619366D02*
X77183333Y-79686033D01*
X77183333Y-79686033D02*
X77216666Y-79752700D01*
X77216666Y-79752700D02*
X77249999Y-79886033D01*
X77249999Y-79886033D02*
X77249999Y-79986033D01*
X77249999Y-79986033D02*
X77216666Y-80119366D01*
X77216666Y-80119366D02*
X77183333Y-80186033D01*
X77183333Y-80186033D02*
X77116666Y-80252700D01*
X77116666Y-80252700D02*
X77016666Y-80286033D01*
X77016666Y-80286033D02*
X76849999Y-80286033D01*
X77916666Y-80286033D02*
X77516666Y-80286033D01*
X77716666Y-80286033D02*
X77716666Y-79586033D01*
X77716666Y-79586033D02*
X77649999Y-79686033D01*
X77649999Y-79686033D02*
X77583333Y-79752700D01*
X77583333Y-79752700D02*
X77516666Y-79786033D01*
X78183333Y-79652700D02*
X78216666Y-79619366D01*
X78216666Y-79619366D02*
X78283333Y-79586033D01*
X78283333Y-79586033D02*
X78450000Y-79586033D01*
X78450000Y-79586033D02*
X78516666Y-79619366D01*
X78516666Y-79619366D02*
X78550000Y-79652700D01*
X78550000Y-79652700D02*
X78583333Y-79719366D01*
X78583333Y-79719366D02*
X78583333Y-79786033D01*
X78583333Y-79786033D02*
X78550000Y-79886033D01*
X78550000Y-79886033D02*
X78150000Y-80286033D01*
X78150000Y-80286033D02*
X78583333Y-80286033D01*
X74768571Y-80132295D02*
X74768571Y-79332295D01*
X74768571Y-79332295D02*
X74959047Y-79332295D01*
X74959047Y-79332295D02*
X75073333Y-79370390D01*
X75073333Y-79370390D02*
X75149523Y-79446580D01*
X75149523Y-79446580D02*
X75187618Y-79522771D01*
X75187618Y-79522771D02*
X75225714Y-79675152D01*
X75225714Y-79675152D02*
X75225714Y-79789438D01*
X75225714Y-79789438D02*
X75187618Y-79941819D01*
X75187618Y-79941819D02*
X75149523Y-80018009D01*
X75149523Y-80018009D02*
X75073333Y-80094200D01*
X75073333Y-80094200D02*
X74959047Y-80132295D01*
X74959047Y-80132295D02*
X74768571Y-80132295D01*
X75987618Y-80132295D02*
X75530475Y-80132295D01*
X75759047Y-80132295D02*
X75759047Y-79332295D01*
X75759047Y-79332295D02*
X75682856Y-79446580D01*
X75682856Y-79446580D02*
X75606666Y-79522771D01*
X75606666Y-79522771D02*
X75530475Y-79560866D01*
X76254285Y-79332295D02*
X76749523Y-79332295D01*
X76749523Y-79332295D02*
X76482857Y-79637057D01*
X76482857Y-79637057D02*
X76597142Y-79637057D01*
X76597142Y-79637057D02*
X76673333Y-79675152D01*
X76673333Y-79675152D02*
X76711428Y-79713247D01*
X76711428Y-79713247D02*
X76749523Y-79789438D01*
X76749523Y-79789438D02*
X76749523Y-79979914D01*
X76749523Y-79979914D02*
X76711428Y-80056104D01*
X76711428Y-80056104D02*
X76673333Y-80094200D01*
X76673333Y-80094200D02*
X76597142Y-80132295D01*
X76597142Y-80132295D02*
X76368571Y-80132295D01*
X76368571Y-80132295D02*
X76292380Y-80094200D01*
X76292380Y-80094200D02*
X76254285Y-80056104D01*
X66785714Y-63922295D02*
X66785714Y-63122295D01*
X66785714Y-63122295D02*
X66976190Y-63122295D01*
X66976190Y-63122295D02*
X67090476Y-63160390D01*
X67090476Y-63160390D02*
X67166666Y-63236580D01*
X67166666Y-63236580D02*
X67204761Y-63312771D01*
X67204761Y-63312771D02*
X67242857Y-63465152D01*
X67242857Y-63465152D02*
X67242857Y-63579438D01*
X67242857Y-63579438D02*
X67204761Y-63731819D01*
X67204761Y-63731819D02*
X67166666Y-63808009D01*
X67166666Y-63808009D02*
X67090476Y-63884200D01*
X67090476Y-63884200D02*
X66976190Y-63922295D01*
X66976190Y-63922295D02*
X66785714Y-63922295D01*
X67547618Y-63198485D02*
X67585714Y-63160390D01*
X67585714Y-63160390D02*
X67661904Y-63122295D01*
X67661904Y-63122295D02*
X67852380Y-63122295D01*
X67852380Y-63122295D02*
X67928571Y-63160390D01*
X67928571Y-63160390D02*
X67966666Y-63198485D01*
X67966666Y-63198485D02*
X68004761Y-63274676D01*
X68004761Y-63274676D02*
X68004761Y-63350866D01*
X68004761Y-63350866D02*
X67966666Y-63465152D01*
X67966666Y-63465152D02*
X67509523Y-63922295D01*
X67509523Y-63922295D02*
X68004761Y-63922295D01*
X68385714Y-63922295D02*
X68538095Y-63922295D01*
X68538095Y-63922295D02*
X68614285Y-63884200D01*
X68614285Y-63884200D02*
X68652381Y-63846104D01*
X68652381Y-63846104D02*
X68728571Y-63731819D01*
X68728571Y-63731819D02*
X68766666Y-63579438D01*
X68766666Y-63579438D02*
X68766666Y-63274676D01*
X68766666Y-63274676D02*
X68728571Y-63198485D01*
X68728571Y-63198485D02*
X68690476Y-63160390D01*
X68690476Y-63160390D02*
X68614285Y-63122295D01*
X68614285Y-63122295D02*
X68461904Y-63122295D01*
X68461904Y-63122295D02*
X68385714Y-63160390D01*
X68385714Y-63160390D02*
X68347619Y-63198485D01*
X68347619Y-63198485D02*
X68309523Y-63274676D01*
X68309523Y-63274676D02*
X68309523Y-63465152D01*
X68309523Y-63465152D02*
X68347619Y-63541342D01*
X68347619Y-63541342D02*
X68385714Y-63579438D01*
X68385714Y-63579438D02*
X68461904Y-63617533D01*
X68461904Y-63617533D02*
X68614285Y-63617533D01*
X68614285Y-63617533D02*
X68690476Y-63579438D01*
X68690476Y-63579438D02*
X68728571Y-63541342D01*
X68728571Y-63541342D02*
X68766666Y-63465152D01*
X69680952Y-63084200D02*
X68995238Y-64112771D01*
X69909523Y-63693723D02*
X70290476Y-63693723D01*
X69833333Y-63922295D02*
X70100000Y-63122295D01*
X70100000Y-63122295D02*
X70366666Y-63922295D01*
X70557142Y-63122295D02*
X71052380Y-63122295D01*
X71052380Y-63122295D02*
X70785714Y-63427057D01*
X70785714Y-63427057D02*
X70899999Y-63427057D01*
X70899999Y-63427057D02*
X70976190Y-63465152D01*
X70976190Y-63465152D02*
X71014285Y-63503247D01*
X71014285Y-63503247D02*
X71052380Y-63579438D01*
X71052380Y-63579438D02*
X71052380Y-63769914D01*
X71052380Y-63769914D02*
X71014285Y-63846104D01*
X71014285Y-63846104D02*
X70976190Y-63884200D01*
X70976190Y-63884200D02*
X70899999Y-63922295D01*
X70899999Y-63922295D02*
X70671428Y-63922295D01*
X70671428Y-63922295D02*
X70595237Y-63884200D01*
X70595237Y-63884200D02*
X70557142Y-63846104D01*
X74689523Y-58090390D02*
X74613333Y-58052295D01*
X74613333Y-58052295D02*
X74499047Y-58052295D01*
X74499047Y-58052295D02*
X74384761Y-58090390D01*
X74384761Y-58090390D02*
X74308571Y-58166580D01*
X74308571Y-58166580D02*
X74270476Y-58242771D01*
X74270476Y-58242771D02*
X74232380Y-58395152D01*
X74232380Y-58395152D02*
X74232380Y-58509438D01*
X74232380Y-58509438D02*
X74270476Y-58661819D01*
X74270476Y-58661819D02*
X74308571Y-58738009D01*
X74308571Y-58738009D02*
X74384761Y-58814200D01*
X74384761Y-58814200D02*
X74499047Y-58852295D01*
X74499047Y-58852295D02*
X74575238Y-58852295D01*
X74575238Y-58852295D02*
X74689523Y-58814200D01*
X74689523Y-58814200D02*
X74727619Y-58776104D01*
X74727619Y-58776104D02*
X74727619Y-58509438D01*
X74727619Y-58509438D02*
X74575238Y-58509438D01*
X75070476Y-58852295D02*
X75070476Y-58052295D01*
X75070476Y-58052295D02*
X75527619Y-58852295D01*
X75527619Y-58852295D02*
X75527619Y-58052295D01*
X75908571Y-58852295D02*
X75908571Y-58052295D01*
X75908571Y-58052295D02*
X76099047Y-58052295D01*
X76099047Y-58052295D02*
X76213333Y-58090390D01*
X76213333Y-58090390D02*
X76289523Y-58166580D01*
X76289523Y-58166580D02*
X76327618Y-58242771D01*
X76327618Y-58242771D02*
X76365714Y-58395152D01*
X76365714Y-58395152D02*
X76365714Y-58509438D01*
X76365714Y-58509438D02*
X76327618Y-58661819D01*
X76327618Y-58661819D02*
X76289523Y-58738009D01*
X76289523Y-58738009D02*
X76213333Y-58814200D01*
X76213333Y-58814200D02*
X76099047Y-58852295D01*
X76099047Y-58852295D02*
X75908571Y-58852295D01*
X77279999Y-58014200D02*
X76594285Y-59042771D01*
X77546666Y-58852295D02*
X77546666Y-58052295D01*
X77546666Y-58052295D02*
X77737142Y-58052295D01*
X77737142Y-58052295D02*
X77851428Y-58090390D01*
X77851428Y-58090390D02*
X77927618Y-58166580D01*
X77927618Y-58166580D02*
X77965713Y-58242771D01*
X77965713Y-58242771D02*
X78003809Y-58395152D01*
X78003809Y-58395152D02*
X78003809Y-58509438D01*
X78003809Y-58509438D02*
X77965713Y-58661819D01*
X77965713Y-58661819D02*
X77927618Y-58738009D01*
X77927618Y-58738009D02*
X77851428Y-58814200D01*
X77851428Y-58814200D02*
X77737142Y-58852295D01*
X77737142Y-58852295D02*
X77546666Y-58852295D01*
X78765713Y-58852295D02*
X78308570Y-58852295D01*
X78537142Y-58852295D02*
X78537142Y-58052295D01*
X78537142Y-58052295D02*
X78460951Y-58166580D01*
X78460951Y-58166580D02*
X78384761Y-58242771D01*
X78384761Y-58242771D02*
X78308570Y-58280866D01*
X79260952Y-58052295D02*
X79337142Y-58052295D01*
X79337142Y-58052295D02*
X79413333Y-58090390D01*
X79413333Y-58090390D02*
X79451428Y-58128485D01*
X79451428Y-58128485D02*
X79489523Y-58204676D01*
X79489523Y-58204676D02*
X79527618Y-58357057D01*
X79527618Y-58357057D02*
X79527618Y-58547533D01*
X79527618Y-58547533D02*
X79489523Y-58699914D01*
X79489523Y-58699914D02*
X79451428Y-58776104D01*
X79451428Y-58776104D02*
X79413333Y-58814200D01*
X79413333Y-58814200D02*
X79337142Y-58852295D01*
X79337142Y-58852295D02*
X79260952Y-58852295D01*
X79260952Y-58852295D02*
X79184761Y-58814200D01*
X79184761Y-58814200D02*
X79146666Y-58776104D01*
X79146666Y-58776104D02*
X79108571Y-58699914D01*
X79108571Y-58699914D02*
X79070475Y-58547533D01*
X79070475Y-58547533D02*
X79070475Y-58357057D01*
X79070475Y-58357057D02*
X79108571Y-58204676D01*
X79108571Y-58204676D02*
X79146666Y-58128485D01*
X79146666Y-58128485D02*
X79184761Y-58090390D01*
X79184761Y-58090390D02*
X79260952Y-58052295D01*
D11*
%TO.C,LED1*%
X85990000Y-183700000D02*
X85990000Y-183544000D01*
X85990000Y-186016000D02*
X85990000Y-185860000D01*
X82757665Y-183701392D02*
G75*
G02*
X85990000Y-183544484I1672335J-1078608D01*
G01*
X83388870Y-183700163D02*
G75*
G02*
X85470961Y-183700000I1041130J-1079837D01*
G01*
X85470961Y-185860000D02*
G75*
G02*
X83388870Y-185859837I-1040961J1080000D01*
G01*
X85990000Y-186015516D02*
G75*
G02*
X82757665Y-185858608I-1560000J1235516D01*
G01*
%TO.C,R2*%
X89230000Y-180940000D02*
X89560000Y-180940000D01*
X89230000Y-187480000D02*
X89230000Y-180940000D01*
X89560000Y-187480000D02*
X89230000Y-187480000D01*
X91640000Y-187480000D02*
X91970000Y-187480000D01*
X91970000Y-180940000D02*
X91640000Y-180940000D01*
X91970000Y-187480000D02*
X91970000Y-180940000D01*
D12*
%TO.C,U2*%
X64310000Y-49590000D02*
X64310000Y-82610000D01*
X64310000Y-82610000D02*
X82090000Y-82610000D01*
X82090000Y-49590000D02*
X64310000Y-49590000D01*
X82090000Y-82610000D02*
X82090000Y-49590000D01*
%TD*%
%LPC*%
D13*
%TO.C,MX127*%
X419750000Y-184780000D03*
D14*
X424830000Y-184780000D03*
D13*
X429910000Y-184780000D03*
%TD*%
%TO.C,MX4*%
X80420000Y-118105000D03*
D14*
X85500000Y-118105000D03*
D13*
X90580000Y-118105000D03*
%TD*%
%TO.C,MX103*%
X381650000Y-146680000D03*
D14*
X386730000Y-146680000D03*
D13*
X391810000Y-146680000D03*
%TD*%
%TO.C,MX62*%
X242345000Y-165730000D03*
D14*
X247425000Y-165730000D03*
D13*
X252505000Y-165730000D03*
%TD*%
%TO.C,MX82*%
X318545000Y-146680000D03*
D14*
X323625000Y-146680000D03*
D13*
X328705000Y-146680000D03*
%TD*%
%TO.C,MX78*%
X309020000Y-99055000D03*
D14*
X314100000Y-99055000D03*
D13*
X319180000Y-99055000D03*
%TD*%
%TO.C,MX43*%
X161382500Y-203830000D03*
D14*
X166462500Y-203830000D03*
D13*
X171542500Y-203830000D03*
%TD*%
%TO.C,MX104*%
X381650000Y-165730000D03*
D14*
X386730000Y-165730000D03*
D13*
X391810000Y-165730000D03*
%TD*%
%TO.C,MX106*%
X381650000Y-203830000D03*
D14*
X386730000Y-203830000D03*
D13*
X391810000Y-203830000D03*
%TD*%
%TO.C,MX87*%
X327242500Y-230747500D03*
D14*
X322162500Y-230747500D03*
D13*
X317082500Y-230747500D03*
%TD*%
%TO.C,MX7*%
X89945000Y-165730000D03*
D14*
X95025000Y-165730000D03*
D13*
X100105000Y-165730000D03*
%TD*%
%TO.C,MX28*%
X147095000Y-165730000D03*
D14*
X152175000Y-165730000D03*
D13*
X157255000Y-165730000D03*
%TD*%
%TO.C,MX118*%
X400700000Y-222880000D03*
D14*
X405780000Y-222880000D03*
D13*
X410860000Y-222880000D03*
%TD*%
%TO.C,MX3*%
X61370000Y-118105000D03*
D14*
X66450000Y-118105000D03*
D13*
X71530000Y-118105000D03*
%TD*%
%TO.C,MX24*%
X137570000Y-99055000D03*
D14*
X142650000Y-99055000D03*
D13*
X147730000Y-99055000D03*
%TD*%
%TO.C,MX92*%
X362600000Y-118105000D03*
D14*
X367680000Y-118105000D03*
D13*
X372760000Y-118105000D03*
%TD*%
%TO.C,MX66*%
X237582500Y-203830000D03*
D14*
X242662500Y-203830000D03*
D13*
X247742500Y-203830000D03*
%TD*%
%TO.C,MX86*%
X301876250Y-203830000D03*
D14*
X306956250Y-203830000D03*
D13*
X312036250Y-203830000D03*
%TD*%
%TO.C,MX72*%
X261395000Y-165730000D03*
D14*
X266475000Y-165730000D03*
D13*
X271555000Y-165730000D03*
%TD*%
%TO.C,MX102*%
X381650000Y-118105000D03*
D14*
X386730000Y-118105000D03*
D13*
X391810000Y-118105000D03*
%TD*%
%TO.C,MX6*%
X61370000Y-146680000D03*
D14*
X66450000Y-146680000D03*
D13*
X71530000Y-146680000D03*
%TD*%
%TO.C,MX94*%
X362600000Y-146680000D03*
D14*
X367680000Y-146680000D03*
D13*
X372760000Y-146680000D03*
%TD*%
%TO.C,MX53*%
X209007500Y-184780000D03*
D14*
X214087500Y-184780000D03*
D13*
X219167500Y-184780000D03*
%TD*%
%TO.C,MX51*%
X223295000Y-165730000D03*
D14*
X228375000Y-165730000D03*
D13*
X233455000Y-165730000D03*
%TD*%
%TO.C,MX95*%
X362600000Y-165730000D03*
D14*
X367680000Y-165730000D03*
D13*
X372760000Y-165730000D03*
%TD*%
%TO.C,MX80*%
X309020000Y-118105000D03*
D14*
X314100000Y-118105000D03*
D13*
X319180000Y-118105000D03*
%TD*%
%TO.C,MX56*%
X251870000Y-99055000D03*
D14*
X256950000Y-99055000D03*
D13*
X262030000Y-99055000D03*
%TD*%
%TO.C,MX126*%
X419750000Y-165730000D03*
D14*
X424830000Y-165730000D03*
D13*
X429910000Y-165730000D03*
%TD*%
%TO.C,MX123*%
X419750000Y-99055000D03*
D14*
X424830000Y-99055000D03*
D13*
X429910000Y-99055000D03*
%TD*%
%TO.C,MX100*%
X381650000Y-70480000D03*
D14*
X386730000Y-70480000D03*
D13*
X391810000Y-70480000D03*
%TD*%
%TO.C,MX8*%
X66132500Y-165730000D03*
D14*
X71212500Y-165730000D03*
D13*
X76292500Y-165730000D03*
%TD*%
%TO.C,MX40*%
X189957500Y-184780000D03*
D14*
X195037500Y-184780000D03*
D13*
X200117500Y-184780000D03*
%TD*%
%TO.C,MX114*%
X400700000Y-146680000D03*
D14*
X405780000Y-146680000D03*
D13*
X410860000Y-146680000D03*
%TD*%
%TO.C,MX111*%
X400700000Y-70480000D03*
D14*
X405780000Y-70480000D03*
D13*
X410860000Y-70480000D03*
%TD*%
%TO.C,MX41*%
X170907500Y-184780000D03*
D14*
X175987500Y-184780000D03*
D13*
X181067500Y-184780000D03*
%TD*%
%TO.C,MX63*%
X247107500Y-184780000D03*
D14*
X252187500Y-184780000D03*
D13*
X257267500Y-184780000D03*
%TD*%
%TO.C,MX15*%
X99470000Y-118105000D03*
D14*
X104550000Y-118105000D03*
D13*
X109630000Y-118105000D03*
%TD*%
%TO.C,MX48*%
X194720000Y-118105000D03*
D14*
X199800000Y-118105000D03*
D13*
X204880000Y-118105000D03*
%TD*%
%TO.C,MX125*%
X419750000Y-146680000D03*
D14*
X424830000Y-146680000D03*
D13*
X429910000Y-146680000D03*
%TD*%
%TO.C,MX55*%
X199482500Y-203830000D03*
D14*
X204562500Y-203830000D03*
D13*
X209642500Y-203830000D03*
%TD*%
D15*
%TO.C,LED1*%
X85700000Y-184780000D03*
D16*
X83160000Y-184780000D03*
%TD*%
D13*
%TO.C,MX73*%
X285207500Y-184780000D03*
D14*
X290287500Y-184780000D03*
D13*
X295367500Y-184780000D03*
%TD*%
D17*
%TO.C,H3*%
X350550000Y-99317500D03*
%TD*%
D13*
%TO.C,MX89*%
X362600000Y-70480000D03*
D14*
X367680000Y-70480000D03*
D13*
X372760000Y-70480000D03*
%TD*%
%TO.C,MX27*%
X137570000Y-146680000D03*
D14*
X142650000Y-146680000D03*
D13*
X147730000Y-146680000D03*
%TD*%
%TO.C,MX50*%
X194720000Y-146680000D03*
D14*
X199800000Y-146680000D03*
D13*
X204880000Y-146680000D03*
%TD*%
%TO.C,MX17*%
X118520000Y-146680000D03*
D14*
X123600000Y-146680000D03*
D13*
X128680000Y-146680000D03*
%TD*%
%TO.C,MX42*%
X180432500Y-203830000D03*
D14*
X185512500Y-203830000D03*
D13*
X190592500Y-203830000D03*
%TD*%
%TO.C,MX88*%
X346292500Y-230747500D03*
D14*
X341212500Y-230747500D03*
D13*
X336132500Y-230747500D03*
%TD*%
%TO.C,MX83*%
X323307500Y-165730000D03*
D14*
X328387500Y-165730000D03*
D13*
X333467500Y-165730000D03*
%TD*%
%TO.C,MX31*%
X132807500Y-184780000D03*
D14*
X137887500Y-184780000D03*
D13*
X142967500Y-184780000D03*
%TD*%
%TO.C,MX60*%
X251870000Y-146680000D03*
D14*
X256950000Y-146680000D03*
D13*
X262030000Y-146680000D03*
%TD*%
%TO.C,MX128*%
X419750000Y-213355000D03*
D14*
X424830000Y-213355000D03*
D13*
X429910000Y-213355000D03*
%TD*%
%TO.C,MX1*%
X80420000Y-99055000D03*
D14*
X85500000Y-99055000D03*
D13*
X90580000Y-99055000D03*
%TD*%
%TO.C,MX30*%
X151857500Y-184780000D03*
D14*
X156937500Y-184780000D03*
D13*
X162017500Y-184780000D03*
%TD*%
D18*
%TO.C,R2*%
X90600000Y-188020000D03*
D19*
X90600000Y-180400000D03*
%TD*%
D13*
%TO.C,MX23*%
X156620000Y-99055000D03*
D14*
X161700000Y-99055000D03*
D13*
X166780000Y-99055000D03*
%TD*%
%TO.C,MX57*%
X232820000Y-99055000D03*
D14*
X237900000Y-99055000D03*
D13*
X242980000Y-99055000D03*
%TD*%
D20*
%TO.C,LSHFTSTAB1*%
X66450000Y-196845000D03*
D14*
X66450000Y-212085000D03*
D20*
X90262500Y-196845000D03*
D14*
X90262500Y-212085000D03*
%TD*%
D13*
%TO.C,MX74*%
X266157500Y-184780000D03*
D14*
X271237500Y-184780000D03*
D13*
X276317500Y-184780000D03*
%TD*%
%TO.C,MX58*%
X251870000Y-118105000D03*
D14*
X256950000Y-118105000D03*
D13*
X262030000Y-118105000D03*
%TD*%
%TO.C,MX97*%
X362600000Y-203830000D03*
D14*
X367680000Y-203830000D03*
D13*
X372760000Y-203830000D03*
%TD*%
%TO.C,MX29*%
X128045000Y-165730000D03*
D14*
X133125000Y-165730000D03*
D13*
X138205000Y-165730000D03*
%TD*%
%TO.C,MX49*%
X213770000Y-146680000D03*
D14*
X218850000Y-146680000D03*
D13*
X223930000Y-146680000D03*
%TD*%
%TO.C,MX84*%
X299495000Y-165730000D03*
D14*
X304575000Y-165730000D03*
D13*
X309655000Y-165730000D03*
%TD*%
%TO.C,MX26*%
X156620000Y-118105000D03*
D14*
X161700000Y-118105000D03*
D13*
X166780000Y-118105000D03*
%TD*%
%TO.C,MX113*%
X400700000Y-118105000D03*
D14*
X405780000Y-118105000D03*
D13*
X410860000Y-118105000D03*
%TD*%
D17*
%TO.C,H4*%
X350550000Y-175317500D03*
%TD*%
D13*
%TO.C,MX107*%
X381650000Y-222880000D03*
D14*
X386730000Y-222880000D03*
D13*
X391810000Y-222880000D03*
%TD*%
%TO.C,MX67*%
X270920000Y-99055000D03*
D14*
X276000000Y-99055000D03*
D13*
X281080000Y-99055000D03*
%TD*%
%TO.C,MX65*%
X256632500Y-203830000D03*
D14*
X261712500Y-203830000D03*
D13*
X266792500Y-203830000D03*
%TD*%
%TO.C,MX37*%
X156620000Y-146680000D03*
D14*
X161700000Y-146680000D03*
D13*
X166780000Y-146680000D03*
%TD*%
%TO.C,MX91*%
X328070000Y-99055000D03*
D14*
X333150000Y-99055000D03*
D13*
X338230000Y-99055000D03*
%TD*%
%TO.C,MX112*%
X400700000Y-99055000D03*
D14*
X405780000Y-99055000D03*
D13*
X410860000Y-99055000D03*
%TD*%
%TO.C,MX34*%
X175670000Y-99055000D03*
D14*
X180750000Y-99055000D03*
D13*
X185830000Y-99055000D03*
%TD*%
%TO.C,MX52*%
X204245000Y-165730000D03*
D14*
X209325000Y-165730000D03*
D13*
X214405000Y-165730000D03*
%TD*%
D20*
%TO.C,ENTSTAB1*%
X309337500Y-177795000D03*
D14*
X309337500Y-193035000D03*
D20*
X333150000Y-177795000D03*
D14*
X333150000Y-193035000D03*
%TD*%
D13*
%TO.C,MX69*%
X289970000Y-146680000D03*
D14*
X295050000Y-146680000D03*
D13*
X300130000Y-146680000D03*
%TD*%
%TO.C,MX96*%
X362600000Y-184780000D03*
D14*
X367680000Y-184780000D03*
D13*
X372760000Y-184780000D03*
%TD*%
%TO.C,MX18*%
X108995000Y-165730000D03*
D14*
X114075000Y-165730000D03*
D13*
X119155000Y-165730000D03*
%TD*%
%TO.C,MX22*%
X94707500Y-222880000D03*
D14*
X99787500Y-222880000D03*
D13*
X104867500Y-222880000D03*
%TD*%
%TO.C,MX85*%
X316163750Y-184780000D03*
D14*
X321243750Y-184780000D03*
D13*
X326323750Y-184780000D03*
%TD*%
D17*
%TO.C,H6*%
X85000000Y-67440000D03*
%TD*%
D13*
%TO.C,MX12*%
X99470000Y-99055000D03*
D14*
X104550000Y-99055000D03*
D13*
X109630000Y-99055000D03*
%TD*%
%TO.C,MX81*%
X289970000Y-118105000D03*
D14*
X295050000Y-118105000D03*
D13*
X300130000Y-118105000D03*
%TD*%
%TO.C,MX99*%
X365342500Y-230747500D03*
D14*
X360262500Y-230747500D03*
D13*
X355182500Y-230747500D03*
%TD*%
%TO.C,MX2*%
X61370000Y-99055000D03*
D14*
X66450000Y-99055000D03*
D13*
X71530000Y-99055000D03*
%TD*%
%TO.C,MX32*%
X142332500Y-203830000D03*
D14*
X147412500Y-203830000D03*
D13*
X152492500Y-203830000D03*
%TD*%
%TO.C,MX124*%
X419750000Y-118105000D03*
D14*
X424830000Y-118105000D03*
D13*
X429910000Y-118105000D03*
%TD*%
%TO.C,MX46*%
X194720000Y-99055000D03*
D14*
X199800000Y-99055000D03*
D13*
X204880000Y-99055000D03*
%TD*%
%TO.C,MX77*%
X256632500Y-222880000D03*
D14*
X261712500Y-222880000D03*
D13*
X266792500Y-222880000D03*
%TD*%
%TO.C,MX117*%
X400700000Y-203830000D03*
D14*
X405780000Y-203830000D03*
D13*
X410860000Y-203830000D03*
%TD*%
%TO.C,MX10*%
X73276250Y-203830000D03*
D14*
X78356250Y-203830000D03*
D13*
X83436250Y-203830000D03*
%TD*%
%TO.C,MX68*%
X270920000Y-118105000D03*
D14*
X276000000Y-118105000D03*
D13*
X281080000Y-118105000D03*
%TD*%
%TO.C,MX59*%
X232820000Y-118105000D03*
D14*
X237900000Y-118105000D03*
D13*
X242980000Y-118105000D03*
%TD*%
%TO.C,MX20*%
X94707500Y-184780000D03*
D14*
X99787500Y-184780000D03*
D13*
X104867500Y-184780000D03*
%TD*%
%TO.C,MX79*%
X289970000Y-99055000D03*
D14*
X295050000Y-99055000D03*
D13*
X300130000Y-99055000D03*
%TD*%
D20*
%TO.C,BSPCSTAB1*%
X311718750Y-139695000D03*
D14*
X311718750Y-154935000D03*
D20*
X335531250Y-139695000D03*
D14*
X335531250Y-154935000D03*
%TD*%
D13*
%TO.C,MX70*%
X270920000Y-146680000D03*
D14*
X276000000Y-146680000D03*
D13*
X281080000Y-146680000D03*
%TD*%
%TO.C,MX101*%
X381650000Y-99055000D03*
D14*
X386730000Y-99055000D03*
D13*
X391810000Y-99055000D03*
%TD*%
%TO.C,MX122*%
X419750000Y-70480000D03*
D14*
X424830000Y-70480000D03*
D13*
X429910000Y-70480000D03*
%TD*%
%TO.C,MX45*%
X213770000Y-99055000D03*
D14*
X218850000Y-99055000D03*
D13*
X223930000Y-99055000D03*
%TD*%
%TO.C,MX44*%
X175670000Y-222880000D03*
D14*
X180750000Y-222880000D03*
D13*
X185830000Y-222880000D03*
%TD*%
%TO.C,MX38*%
X185195000Y-165730000D03*
D14*
X190275000Y-165730000D03*
D13*
X195355000Y-165730000D03*
%TD*%
%TO.C,MX11*%
X66132500Y-222880000D03*
D14*
X71212500Y-222880000D03*
D13*
X76292500Y-222880000D03*
%TD*%
%TO.C,MX19*%
X113757500Y-184780000D03*
D14*
X118837500Y-184780000D03*
D13*
X123917500Y-184780000D03*
%TD*%
%TO.C,MX36*%
X175670000Y-146680000D03*
D14*
X180750000Y-146680000D03*
D13*
X185830000Y-146680000D03*
%TD*%
%TO.C,MX116*%
X400700000Y-184780000D03*
D14*
X405780000Y-184780000D03*
D13*
X410860000Y-184780000D03*
%TD*%
%TO.C,MX71*%
X280445000Y-165730000D03*
D14*
X285525000Y-165730000D03*
D13*
X290605000Y-165730000D03*
%TD*%
D20*
%TO.C,SPACESTAB1*%
X123600000Y-215895000D03*
D14*
X123600000Y-231135000D03*
D20*
X125660000Y-215895000D03*
D14*
X125660000Y-231135000D03*
D20*
X235840000Y-215895000D03*
D14*
X235840000Y-231135000D03*
D20*
X237900000Y-215895000D03*
D14*
X237900000Y-231135000D03*
%TD*%
D13*
%TO.C,MX39*%
X166145000Y-165730000D03*
D14*
X171225000Y-165730000D03*
D13*
X176305000Y-165730000D03*
%TD*%
%TO.C,MX98*%
X346292500Y-211697500D03*
D14*
X341212500Y-211697500D03*
D13*
X336132500Y-211697500D03*
%TD*%
%TO.C,MX75*%
X275682500Y-203830000D03*
D14*
X280762500Y-203830000D03*
D13*
X285842500Y-203830000D03*
%TD*%
%TO.C,MX64*%
X228057500Y-184780000D03*
D14*
X233137500Y-184780000D03*
D13*
X238217500Y-184780000D03*
%TD*%
%TO.C,MX115*%
X400700000Y-165730000D03*
D14*
X405780000Y-165730000D03*
D13*
X410860000Y-165730000D03*
%TD*%
D21*
%TO.C,H1*%
X60120000Y-132510000D03*
%TD*%
D13*
%TO.C,MX76*%
X285207500Y-222880000D03*
D14*
X290287500Y-222880000D03*
D13*
X295367500Y-222880000D03*
%TD*%
%TO.C,MX14*%
X118520000Y-118105000D03*
D14*
X123600000Y-118105000D03*
D13*
X128680000Y-118105000D03*
%TD*%
%TO.C,MX35*%
X175670000Y-118105000D03*
D14*
X180750000Y-118105000D03*
D13*
X185830000Y-118105000D03*
%TD*%
%TO.C,MX90*%
X362600000Y-99055000D03*
D14*
X367680000Y-99055000D03*
D13*
X372760000Y-99055000D03*
%TD*%
D20*
%TO.C,NUMENTSTAB1*%
X417845000Y-225261250D03*
D14*
X433085000Y-225261250D03*
D20*
X417845000Y-201448750D03*
D14*
X433085000Y-201448750D03*
%TD*%
D17*
%TO.C,H5*%
X171350000Y-133105000D03*
%TD*%
D13*
%TO.C,MX61*%
X232820000Y-146680000D03*
D14*
X237900000Y-146680000D03*
D13*
X242980000Y-146680000D03*
%TD*%
%TO.C,MX13*%
X118520000Y-99055000D03*
D14*
X123600000Y-99055000D03*
D13*
X128680000Y-99055000D03*
%TD*%
%TO.C,MX16*%
X99470000Y-146680000D03*
D14*
X104550000Y-146680000D03*
D13*
X109630000Y-146680000D03*
%TD*%
D17*
%TO.C,H2*%
X225860000Y-53480000D03*
%TD*%
D13*
%TO.C,MX5*%
X80420000Y-146680000D03*
D14*
X85500000Y-146680000D03*
D13*
X90580000Y-146680000D03*
%TD*%
%TO.C,MX33*%
X123282500Y-203830000D03*
D14*
X128362500Y-203830000D03*
D13*
X133442500Y-203830000D03*
%TD*%
%TO.C,MX93*%
X328070000Y-118105000D03*
D14*
X333150000Y-118105000D03*
D13*
X338230000Y-118105000D03*
%TD*%
%TO.C,MX105*%
X381650000Y-184780000D03*
D14*
X386730000Y-184780000D03*
D13*
X391810000Y-184780000D03*
%TD*%
%TO.C,MX9*%
X63751250Y-184780000D03*
D14*
X68831250Y-184780000D03*
D13*
X73911250Y-184780000D03*
%TD*%
%TO.C,MX21*%
X104232500Y-203830000D03*
D14*
X109312500Y-203830000D03*
D13*
X114392500Y-203830000D03*
%TD*%
%TO.C,MX54*%
X218532500Y-203830000D03*
D14*
X223612500Y-203830000D03*
D13*
X228692500Y-203830000D03*
%TD*%
%TO.C,MX47*%
X213770000Y-118105000D03*
D14*
X218850000Y-118105000D03*
D13*
X223930000Y-118105000D03*
%TD*%
%TO.C,MX25*%
X137570000Y-118105000D03*
D14*
X142650000Y-118105000D03*
D13*
X147730000Y-118105000D03*
%TD*%
D16*
%TO.C,D60*%
X265310000Y-152465000D03*
X265310000Y-147425000D03*
%TD*%
%TO.C,D80*%
X322460000Y-123890000D03*
X322460000Y-118850000D03*
%TD*%
%TO.C,D61*%
X246260000Y-152465000D03*
X246260000Y-147425000D03*
%TD*%
%TO.C,D45*%
X227210000Y-104840000D03*
X227210000Y-99800000D03*
%TD*%
%TO.C,D96*%
X376040000Y-190565000D03*
X376040000Y-185525000D03*
%TD*%
%TO.C,D37*%
X170060000Y-152465000D03*
X170060000Y-147425000D03*
%TD*%
%TO.C,D10*%
X95737500Y-207420000D03*
X95737500Y-202380000D03*
%TD*%
%TO.C,D103*%
X395090000Y-152465000D03*
X395090000Y-147425000D03*
%TD*%
%TO.C,D22*%
X108147500Y-228665000D03*
X108147500Y-223625000D03*
%TD*%
%TO.C,D47*%
X227210000Y-123890000D03*
X227210000Y-118850000D03*
%TD*%
%TO.C,D58*%
X265310000Y-123890000D03*
X265310000Y-118850000D03*
%TD*%
%TO.C,D87*%
X331350000Y-228030000D03*
X331350000Y-233070000D03*
%TD*%
%TO.C,D39*%
X179585000Y-171515000D03*
X179585000Y-166475000D03*
%TD*%
%TO.C,D78*%
X322460000Y-104840000D03*
X322460000Y-99800000D03*
%TD*%
%TO.C,D115*%
X414140000Y-171515000D03*
X414140000Y-166475000D03*
%TD*%
%TO.C,D56*%
X265310000Y-104840000D03*
X265310000Y-99800000D03*
%TD*%
%TO.C,D42*%
X193872500Y-209615000D03*
X193872500Y-204575000D03*
%TD*%
%TO.C,D50*%
X208160000Y-152465000D03*
X208160000Y-147425000D03*
%TD*%
%TO.C,D112*%
X414140000Y-104840000D03*
X414140000Y-99800000D03*
%TD*%
%TO.C,D104*%
X395090000Y-171515000D03*
X395090000Y-166475000D03*
%TD*%
%TO.C,D2*%
X74810000Y-104840000D03*
X74810000Y-99800000D03*
%TD*%
%TO.C,D48*%
X208160000Y-123890000D03*
X208160000Y-118850000D03*
%TD*%
%TO.C,D122*%
X433190000Y-76265000D03*
X433190000Y-71225000D03*
%TD*%
%TO.C,D40*%
X203397500Y-190565000D03*
X203397500Y-185525000D03*
%TD*%
%TO.C,D91*%
X341510000Y-104840000D03*
X341510000Y-99800000D03*
%TD*%
%TO.C,D126*%
X433190000Y-171515000D03*
X433190000Y-166475000D03*
%TD*%
%TO.C,D92*%
X376040000Y-123890000D03*
X376040000Y-118850000D03*
%TD*%
%TO.C,D28*%
X160535000Y-171515000D03*
X160535000Y-166475000D03*
%TD*%
%TO.C,D52*%
X217685000Y-171515000D03*
X217685000Y-166475000D03*
%TD*%
%TO.C,D14*%
X131960000Y-123890000D03*
X131960000Y-118850000D03*
%TD*%
%TO.C,D3*%
X74810000Y-123890000D03*
X74810000Y-118850000D03*
%TD*%
%TO.C,D69*%
X303410000Y-152465000D03*
X303410000Y-147425000D03*
%TD*%
%TO.C,D123*%
X433190000Y-104840000D03*
X433190000Y-99800000D03*
%TD*%
%TO.C,D23*%
X170060000Y-104840000D03*
X170060000Y-99800000D03*
%TD*%
%TO.C,D102*%
X395090000Y-123890000D03*
X395090000Y-118850000D03*
%TD*%
%TO.C,D125*%
X433190000Y-152465000D03*
X433190000Y-147425000D03*
%TD*%
%TO.C,D26*%
X170060000Y-123890000D03*
X170060000Y-118850000D03*
%TD*%
%TO.C,D16*%
X112910000Y-152465000D03*
X112910000Y-147425000D03*
%TD*%
%TO.C,D27*%
X151010000Y-152465000D03*
X151010000Y-147425000D03*
%TD*%
%TO.C,D35*%
X189110000Y-123890000D03*
X189110000Y-118850000D03*
%TD*%
%TO.C,D90*%
X376040000Y-104840000D03*
X376040000Y-99800000D03*
%TD*%
%TO.C,D9*%
X77191250Y-190565000D03*
X77191250Y-185525000D03*
%TD*%
%TO.C,D31*%
X146247500Y-190565000D03*
X146247500Y-185525000D03*
%TD*%
%TO.C,D83*%
X336747500Y-171515000D03*
X336747500Y-166475000D03*
%TD*%
%TO.C,D82*%
X341860000Y-150290000D03*
X341860000Y-145250000D03*
%TD*%
%TO.C,D17*%
X131960000Y-152465000D03*
X131960000Y-147425000D03*
%TD*%
%TO.C,D111*%
X414140000Y-76265000D03*
X414140000Y-71225000D03*
%TD*%
%TO.C,D95*%
X376040000Y-171515000D03*
X376040000Y-166475000D03*
%TD*%
%TO.C,D63*%
X260547500Y-190565000D03*
X260547500Y-185525000D03*
%TD*%
%TO.C,D74*%
X279597500Y-190565000D03*
X279597500Y-185525000D03*
%TD*%
%TO.C,D46*%
X208160000Y-104840000D03*
X208160000Y-99800000D03*
%TD*%
%TO.C,D24*%
X151010000Y-104840000D03*
X151010000Y-99800000D03*
%TD*%
%TO.C,D70*%
X284360000Y-152465000D03*
X284360000Y-147425000D03*
%TD*%
%TO.C,D88*%
X350400000Y-228030000D03*
X350400000Y-233070000D03*
%TD*%
%TO.C,D89*%
X376040000Y-76265000D03*
X376040000Y-71225000D03*
%TD*%
%TO.C,D64*%
X241497500Y-190565000D03*
X241497500Y-185525000D03*
%TD*%
%TO.C,D71*%
X293885000Y-171515000D03*
X293885000Y-166475000D03*
%TD*%
%TO.C,D6*%
X74810000Y-152465000D03*
X74810000Y-147425000D03*
%TD*%
%TO.C,D21*%
X117672500Y-209615000D03*
X117672500Y-204575000D03*
%TD*%
%TO.C,D106*%
X395090000Y-209615000D03*
X395090000Y-204575000D03*
%TD*%
%TO.C,D68*%
X284360000Y-123890000D03*
X284360000Y-118850000D03*
%TD*%
%TO.C,D15*%
X112910000Y-123890000D03*
X112910000Y-118850000D03*
%TD*%
%TO.C,D18*%
X122435000Y-171515000D03*
X122435000Y-166475000D03*
%TD*%
%TO.C,D62*%
X255785000Y-171515000D03*
X255785000Y-166475000D03*
%TD*%
%TO.C,D11*%
X79572500Y-228665000D03*
X79572500Y-223625000D03*
%TD*%
%TO.C,D105*%
X395090000Y-190565000D03*
X395090000Y-185525000D03*
%TD*%
%TO.C,D8*%
X79572500Y-171515000D03*
X79572500Y-166475000D03*
%TD*%
%TO.C,D66*%
X251022500Y-209615000D03*
X251022500Y-204575000D03*
%TD*%
%TO.C,D81*%
X303410000Y-123890000D03*
X303410000Y-118850000D03*
%TD*%
%TO.C,D77*%
X270072500Y-228665000D03*
X270072500Y-223625000D03*
%TD*%
%TO.C,D41*%
X184347500Y-190565000D03*
X184347500Y-185525000D03*
%TD*%
%TO.C,D113*%
X414140000Y-123890000D03*
X414140000Y-118850000D03*
%TD*%
%TO.C,D99*%
X369450000Y-228030000D03*
X369450000Y-233070000D03*
%TD*%
%TO.C,D100*%
X395090000Y-76265000D03*
X395090000Y-71225000D03*
%TD*%
%TO.C,D85*%
X339360000Y-188540000D03*
X339360000Y-183500000D03*
%TD*%
%TO.C,D30*%
X165297500Y-190565000D03*
X165297500Y-185525000D03*
%TD*%
%TO.C,D57*%
X246260000Y-104840000D03*
X246260000Y-99800000D03*
%TD*%
%TO.C,D67*%
X284360000Y-104840000D03*
X284360000Y-99800000D03*
%TD*%
%TO.C,D97*%
X376040000Y-209615000D03*
X376040000Y-204575000D03*
%TD*%
%TO.C,D5*%
X93860000Y-152465000D03*
X93860000Y-147425000D03*
%TD*%
%TO.C,D13*%
X131960000Y-104840000D03*
X131960000Y-99800000D03*
%TD*%
D22*
%TO.C,U2*%
X80820000Y-53400000D03*
D23*
X80820000Y-55940000D03*
X80820000Y-58480000D03*
X80820000Y-61020000D03*
X80820000Y-63560000D03*
X80820000Y-66100000D03*
X80820000Y-68640000D03*
X80820000Y-71180000D03*
X80820000Y-73720000D03*
X80820000Y-76260000D03*
X80820000Y-78800000D03*
X80591400Y-81340000D03*
X65580000Y-81340000D03*
X65580000Y-78800000D03*
X65580000Y-76260000D03*
X65580000Y-73720000D03*
X65580000Y-71180000D03*
X65580000Y-68640000D03*
X65580000Y-66100000D03*
X65580000Y-63560000D03*
X65580000Y-61020000D03*
X65580000Y-58480000D03*
X65580000Y-55940000D03*
X65580000Y-53400000D03*
X78280000Y-81340000D03*
X75740000Y-81340000D03*
X73200000Y-81340000D03*
X70660000Y-81340000D03*
X68120000Y-81340000D03*
%TD*%
D16*
%TO.C,D59*%
X246260000Y-123890000D03*
X246260000Y-118850000D03*
%TD*%
%TO.C,D72*%
X274835000Y-171515000D03*
X274835000Y-166475000D03*
%TD*%
%TO.C,D49*%
X227210000Y-152465000D03*
X227210000Y-147425000D03*
%TD*%
%TO.C,D79*%
X303410000Y-104840000D03*
X303410000Y-99800000D03*
%TD*%
%TO.C,D34*%
X189110000Y-104840000D03*
X189110000Y-99800000D03*
%TD*%
%TO.C,D114*%
X414140000Y-152465000D03*
X414140000Y-147425000D03*
%TD*%
%TO.C,D75*%
X289122500Y-209615000D03*
X289122500Y-204575000D03*
%TD*%
%TO.C,D44*%
X189110000Y-228665000D03*
X189110000Y-223625000D03*
%TD*%
%TO.C,D12*%
X112910000Y-104840000D03*
X112910000Y-99800000D03*
%TD*%
%TO.C,D107*%
X395090000Y-228665000D03*
X395090000Y-223625000D03*
%TD*%
%TO.C,D118*%
X414140000Y-228665000D03*
X414140000Y-223625000D03*
%TD*%
%TO.C,D1*%
X93860000Y-104840000D03*
X93860000Y-99800000D03*
%TD*%
%TO.C,D76*%
X298647500Y-228665000D03*
X298647500Y-223625000D03*
%TD*%
%TO.C,D32*%
X155772500Y-209615000D03*
X155772500Y-204575000D03*
%TD*%
%TO.C,D55*%
X212922500Y-209615000D03*
X212922500Y-204575000D03*
%TD*%
%TO.C,D29*%
X141485000Y-171515000D03*
X141485000Y-166475000D03*
%TD*%
%TO.C,D94*%
X376040000Y-152465000D03*
X376040000Y-147425000D03*
%TD*%
%TO.C,D98*%
X349572500Y-212442500D03*
X349572500Y-217482500D03*
%TD*%
%TO.C,D51*%
X236735000Y-171515000D03*
X236735000Y-166475000D03*
%TD*%
%TO.C,D38*%
X198635000Y-171515000D03*
X198635000Y-166475000D03*
%TD*%
%TO.C,D117*%
X414140000Y-209615000D03*
X414140000Y-204575000D03*
%TD*%
%TO.C,D43*%
X174822500Y-209615000D03*
X174822500Y-204575000D03*
%TD*%
%TO.C,D116*%
X414140000Y-190565000D03*
X414140000Y-185525000D03*
%TD*%
D24*
%TO.C,U1*%
X111200000Y-68675000D03*
D25*
X114230000Y-68975000D03*
X114230000Y-73825000D03*
D24*
X111200000Y-74125000D03*
D26*
X111070000Y-62510000D03*
X113610000Y-62510000D03*
D27*
X116150000Y-62510000D03*
D26*
X118690000Y-62510000D03*
X121230000Y-62510000D03*
X123770000Y-62510000D03*
X126310000Y-62510000D03*
D27*
X128850000Y-62510000D03*
D26*
X131390000Y-62510000D03*
X133930000Y-62510000D03*
X136470000Y-62510000D03*
X139010000Y-62510000D03*
D27*
X141550000Y-62510000D03*
D26*
X144090000Y-62510000D03*
X146630000Y-62510000D03*
X149170000Y-62510000D03*
X151710000Y-62510000D03*
D27*
X154250000Y-62510000D03*
D26*
X156790000Y-62510000D03*
X159330000Y-62510000D03*
X159330000Y-80290000D03*
X156790000Y-80290000D03*
D27*
X154250000Y-80290000D03*
D26*
X151710000Y-80290000D03*
X149170000Y-80290000D03*
X146630000Y-80290000D03*
X144090000Y-80290000D03*
D27*
X141550000Y-80290000D03*
D26*
X139010000Y-80290000D03*
X136470000Y-80290000D03*
X133930000Y-80290000D03*
X131390000Y-80290000D03*
D27*
X128850000Y-80290000D03*
D26*
X126310000Y-80290000D03*
X123770000Y-80290000D03*
X121230000Y-80290000D03*
X118690000Y-80290000D03*
D27*
X116150000Y-80290000D03*
D26*
X113610000Y-80290000D03*
X111070000Y-80290000D03*
X159100000Y-68860000D03*
D27*
X159100000Y-71400000D03*
D26*
X159100000Y-73940000D03*
%TD*%
D16*
%TO.C,D124*%
X433190000Y-123890000D03*
X433190000Y-118850000D03*
%TD*%
%TO.C,D25*%
X151010000Y-123890000D03*
X151010000Y-118850000D03*
%TD*%
%TO.C,D54*%
X231972500Y-209615000D03*
X231972500Y-204575000D03*
%TD*%
%TO.C,D73*%
X298647500Y-190565000D03*
X298647500Y-185525000D03*
%TD*%
%TO.C,D128*%
X424230000Y-196400000D03*
X429270000Y-196400000D03*
%TD*%
%TO.C,D7*%
X103385000Y-171515000D03*
X103385000Y-166475000D03*
%TD*%
%TO.C,D33*%
X136722500Y-209615000D03*
X136722500Y-204575000D03*
%TD*%
%TO.C,D65*%
X270072500Y-209615000D03*
X270072500Y-204575000D03*
%TD*%
%TO.C,D4*%
X93860000Y-123890000D03*
X93860000Y-118850000D03*
%TD*%
%TO.C,D86*%
X315316250Y-209615000D03*
X315316250Y-204575000D03*
%TD*%
%TO.C,D20*%
X108147500Y-190565000D03*
X108147500Y-185525000D03*
%TD*%
%TO.C,D53*%
X222447500Y-190565000D03*
X222447500Y-185525000D03*
%TD*%
%TO.C,D101*%
X395090000Y-104840000D03*
X395090000Y-99800000D03*
%TD*%
%TO.C,D93*%
X341510000Y-123890000D03*
X341510000Y-118850000D03*
%TD*%
%TO.C,D127*%
X433190000Y-190565000D03*
X433190000Y-185525000D03*
%TD*%
%TO.C,D36*%
X189110000Y-152465000D03*
X189110000Y-147425000D03*
%TD*%
%TO.C,D19*%
X127197500Y-190565000D03*
X127197500Y-185525000D03*
%TD*%
%TO.C,D84*%
X312935000Y-171515000D03*
X312935000Y-166475000D03*
%TD*%
%LPD*%
M02*
